<?xml version="1.0" standalone="no"?>
<!DOCTYPE svg PUBLIC "-//W3C//DTD SVG 1.1//EN" "http://www.w3.org/Graphics/SVG/1.1/DTD/svg11.dtd" >
<svg>
<metadata>
Created by FontForge 20090622 at Mon Sep 26 14:23:36 2016
 By deploy user
Copyright 1990-1993 Bitstream Inc.  All rights reserved.
</metadata>
<defs>
<font id="ZurichCondensedBT" horiz-adv-x="1024" >
  <font-face 
    font-family="Zurich"
    font-weight="400"
    font-stretch="condensed"
    units-per-em="2048"
    panose-1="2 11 5 6 2 2 2 4 2 4"
    ascent="1638"
    descent="-410"
    x-height="1028"
    cap-height="1475"
    bbox="-342 -483 2048 1972"
    underline-thickness="119"
    underline-position="-136"
    unicode-range="U+0020-U+F002"
  />
<missing-glyph 
d="M128 0v1972h768v-1972h-768zM256 128h512v1716h-512v-1716z" />
    <glyph glyph-name=".notdef" 
d="M128 0v1972h768v-1972h-768zM256 128h512v1716h-512v-1716z" />
    <glyph glyph-name=".null" horiz-adv-x="0" 
 />
    <glyph glyph-name="nonmarkingreturn" horiz-adv-x="492" 
 />
    <glyph glyph-name="space" unicode=" " horiz-adv-x="492" 
 />
    <glyph glyph-name="exclam" unicode="!" horiz-adv-x="616" 
d="M215 0v199h191v-199h-191zM238 350l-41 1125h223l-39 -1125h-143z" />
    <glyph glyph-name="quotedbl" unicode="&#x22;" horiz-adv-x="590" 
d="M496 1434v-553h-119v553h119zM211 1434v-553h-117v553h117z" />
    <glyph glyph-name="numbersign" unicode="#" horiz-adv-x="1575" 
d="M973 862h-264l-95 -272h263zM922 1456l-166 -471h260l168 471h143l-164 -471h307l-43 -123h-311l-94 -272h330l-43 -123h-332l-166 -469h-145l168 469h-265l-168 -469h-143l166 469h-320l43 123h320l96 272h-342l43 123h344l168 471h146z" />
    <glyph glyph-name="dollar" unicode="$" horiz-adv-x="981" 
d="M541 643v-497q182 18 182 243q0 143 -182 254zM446 -162v162q-370 28 -370 416q0 8 1 24.5t1 24.5h178q-2 -22 -2 -59q0 -261 192 -261v539q-155 88 -227 163q-106 111 -106 249q0 150 92 239q88 84 241 97v131h95v-131q331 -16 331 -349v-28h-178v8q0 223 -153 223v-442
q169 -92 247 -170q115 -117 115 -266q0 -174 -94.5 -282t-267.5 -126v-162h-95zM446 887v399q-153 -24 -153 -184q0 -118 153 -215z" />
    <glyph glyph-name="percent" unicode="%" horiz-adv-x="1315" 
d="M293 -25l612 1475h119l-621 -1475h-110zM322 1331q-129 0 -129 -244q0 -258 129 -258t129 258q0 244 -129 244zM594 1067q0 -356 -272 -356q-273 0 -273 370q0 369 273 369q272 0 272 -383zM993 715q273 0 273 -383q0 -357 -273 -357q-270 0 -270 371q0 369 270 369z
M993 596q-129 0 -129 -244q0 -258 129 -258t129 258q0 244 -129 244z" />
    <glyph glyph-name="ampersand" unicode="&#x26;" horiz-adv-x="1208" 
d="M793 168v498h-191q-152 0 -224 -47q-89 -57 -89 -199q0 -150 79 -206q65 -46 224 -46h201zM715 1309h-111q-274 0 -274 -236q0 -252 268 -252h195v234h190v-234h180v-155h-180v-666h-395q-137 0 -188 6q-111 13 -175 60q-145 106 -145 321q0 147 68 242q73 103 214 123
q-115 28 -176 121q-57 87 -57 210q0 199 132 302q119 92 325 92h129v-168z" />
    <glyph glyph-name="quotesingle" unicode="'" horiz-adv-x="305" 
d="M211 1434v-553h-117v553h117z" />
    <glyph glyph-name="parenleft" unicode="(" horiz-adv-x="592" 
d="M322 -307q-209 586 -209 905t215 899h127q-138 -503 -138 -899q0 -405 125 -905h-120z" />
    <glyph glyph-name="parenright" unicode=")" horiz-adv-x="592" 
d="M270 -307h-120q124 496 124 905q0 400 -137 899h129q213 -575 213 -899q0 -319 -209 -905z" />
    <glyph glyph-name="asterisk" unicode="*" horiz-adv-x="981" 
d="M492 1069l-134 -281l-108 64l176 254l-309 -25v127l309 -26l-176 252l108 63l134 -278l131 278l110 -63l-176 -252l307 24v-127l-307 27l176 -254l-110 -64z" />
    <glyph glyph-name="plus" unicode="+" horiz-adv-x="1706" 
d="M913 1221v-551h539v-117h-539v-553h-118v553h-541v117h541v551h118z" />
    <glyph glyph-name="comma" unicode="," horiz-adv-x="492" 
d="M66 -240l104 467h195l-160 -467h-139z" />
    <glyph glyph-name="hyphen" unicode="-" horiz-adv-x="569" 
d="M68 442v150h434v-150h-434z" />
    <glyph glyph-name="hyphen" unicode="&#x2010;" horiz-adv-x="569" 
d="M68 442v150h434v-150h-434z" />
    <glyph glyph-name="period" unicode="." horiz-adv-x="492" 
d="M147 0v227h195v-227h-195z" />
    <glyph glyph-name="slash" unicode="/" horiz-adv-x="569" 
d="M629 1497l-598 -1687h-125l598 1687h125z" />
    <glyph glyph-name="zero" unicode="0" horiz-adv-x="981" 
d="M492 1452q322 0 380 -314q19 -106 19 -388v-74q0 -217 -6 -286q-17 -184 -80 -271q-105 -144 -313 -144q-210 0 -316 144q-64 87 -81 289q-5 68 -5 305q0 236 6 305q16 201 80 289q106 145 316 145zM272 713q0 -308 -3 -227q5 -156 46 -241q54 -112 174 -112
q121 0 175 112q42 84 47 240q-2 -62 -2 228q0 286 2 228q-5 156 -47 241q-54 112 -175 112q-120 0 -174 -112q-41 -85 -46 -242q3 84 3 -227z" />
    <glyph glyph-name="one" unicode="1" horiz-adv-x="981" 
d="M612 0h-184v1208q-48 -44 -213 -151v196q76 37 256 174h141v-1427z" />
    <glyph glyph-name="two" unicode="2" horiz-adv-x="981" 
d="M109 0v182l438 627q133 190 133 313q0 81 -51 128.5t-133 47.5q-100 0 -144 -69q-33 -53 -39 -164h-198q0 7 -1 19.5t-1 19.5q0 346 389 346q163 0 260 -76q106 -83 106 -241q0 -208 -204 -492l-338 -471h548v-170h-765z" />
    <glyph glyph-name="three" unicode="3" horiz-adv-x="981" 
d="M82 377h196q8 -242 189 -242q213 0 213 264q0 265 -266 265h-31v170q279 0 279 237q0 219 -185 219q-180 0 -180 -205h-193v23q0 160 97 251t258 91q385 0 385 -358q0 -320 -248 -347q260 -12 260 -346q0 -424 -381 -424q-187 0 -288 94q-105 96 -105 281v27z" />
    <glyph glyph-name="four" unicode="4" horiz-adv-x="981" 
d="M553 0v358h-467v207l401 862h250v-913h158v-156h-158v-358h-184zM555 512l18 766l-350 -766h332z" />
    <glyph glyph-name="five" unicode="5" horiz-adv-x="981" 
d="M117 332h188q15 -207 184 -207q191 0 191 338q0 150 -26 215q-43 106 -167 106q-146 0 -168 -153h-188l14 796h660v-161h-471l-19 -432q88 104 236 104q313 0 313 -461q0 -504 -395 -504q-170 0 -261 94t-91 265z" />
    <glyph glyph-name="six" unicode="6" horiz-adv-x="981" 
d="M842 1124h-191q-12 172 -151 172q-134 0 -177 -153q-22 -79 -22 -262q0 -14 1 -43t1 -43q71 125 219 125q348 0 348 -457q0 -228 -71 -342q-88 -141 -301 -141q-264 0 -344 246q-43 131 -43 472q0 432 71 576q87 176 316 176q154 0 246 -78q98 -84 98 -235v-13zM504 137
q184 0 184 330q0 295 -188 295q-193 0 -193 -279q0 -346 197 -346z" />
    <glyph glyph-name="seven" unicode="7" horiz-adv-x="981" 
d="M469 0h-207l383 1270h-545v157h736v-163z" />
    <glyph glyph-name="eight" unicode="8" horiz-adv-x="981" 
d="M682 1065q0 231 -190 231q-191 0 -191 -231q0 -101 45 -167q52 -77 148 -77q91 0 143 79q45 69 45 165zM692 389q0 283 -203 283q-202 0 -202 -271q0 -272 202 -272q105 0 158 81q45 68 45 179zM344 758q-221 63 -221 327q0 173 97.5 269t271.5 96q173 0 269.5 -95.5
t96.5 -267.5q0 -269 -221 -329q240 -57 240 -365q0 -190 -96 -301q-102 -117 -289 -117q-189 0 -291 118q-97 112 -97 304q0 303 240 361z" />
    <glyph glyph-name="nine" unicode="9" horiz-adv-x="981" 
d="M330 301q12 -174 151 -174q134 0 177 155q22 79 22 263q0 14 -1 43t-1 43q-70 -125 -219 -125q-348 0 -348 457q0 228 71 342q88 141 301 141q264 0 345 -247q42 -130 42 -472q0 -429 -71 -575q-86 -177 -316 -177q-155 0 -246 79q-98 83 -98 235v12h191zM477 1288
q-184 0 -184 -330q0 -294 188 -294q191 0 191 278q0 346 -195 346z" />
    <glyph glyph-name="colon" unicode=":" horiz-adv-x="518" 
d="M162 801v227h194v-227h-194zM162 0v227h194v-227h-194z" />
    <glyph glyph-name="semicolon" unicode=";" horiz-adv-x="518" 
d="M170 801v227h195v-227h-195zM66 -240l104 467h197l-162 -467h-139z" />
    <glyph glyph-name="less" unicode="&#x3c;" horiz-adv-x="1706" 
d="M1442 1018l-1000 -408l1000 -405v-129l-1178 483v103l1178 483v-127z" />
    <glyph glyph-name="equal" unicode="=" horiz-adv-x="1706" 
d="M1452 477v-117h-1198v117h1198zM1452 860v-117h-1198v117h1198z" />
    <glyph glyph-name="greater" unicode="&#x3e;" horiz-adv-x="1706" 
d="M1442 662v-103l-1178 -483v129l1000 405l-1000 408v127z" />
    <glyph glyph-name="question" unicode="?" horiz-adv-x="807" 
d="M291 0v205h194v-205h-194zM305 375v227q0 88 27 129l123 170q88 131 88 258q0 197 -148 197q-143 0 -149 -274l-182 -1q-7 39 -7 80q0 166 98 255q93 85 261 85q329 0 329 -364q0 -152 -122 -322q-46 -57 -131 -178q-23 -38 -23 -117v-145h-164z" />
    <glyph glyph-name="at" unicode="@" horiz-adv-x="2048" 
d="M1292 844l58 121h110l-141 -568q-12 -48 -12 -80q0 -90 110 -90q99 0 203 88q190 161 190 451q0 288 -220 448q-195 142 -494 142q-338 0 -572 -205q-282 -247 -282 -637q0 -338 247 -534q212 -168 535 -168q354 0 631 188l45 -66q-298 -221 -660 -221q-383 0 -624 185
q-303 233 -303 624q0 334 200 578q293 358 803 358q343 0 559 -168q262 -204 262 -512q0 -348 -245 -545q-139 -112 -312 -112q-198 0 -198 155q0 4 1 11.5t1 11.5q-104 -178 -297 -178q-314 0 -314 332q0 215 124 375q135 173 345 173q182 0 250 -157zM1202 473l60 242
q-36 190 -207 190q-164 0 -260 -154q-82 -132 -82 -305q0 -229 196 -229q108 0 190 76q76 71 103 180z" />
    <glyph glyph-name="A" unicode="A" horiz-adv-x="1208" 
d="M393 532h422l-207 713zM965 0l-99 358h-522l-102 -358h-211l463 1475h233l451 -1475h-213z" />
    <glyph glyph-name="B" unicode="B" horiz-adv-x="1139" 
d="M565 1475q436 0 436 -355q0 -301 -247 -352q290 -42 290 -354q0 -222 -117 -322q-108 -92 -335 -92h-447v1475h420zM328 168h219q152 0 226 54q85 62 85 208q0 264 -299 264h-231v-526zM328 860h198q143 0 209 52q76 58 76 196q0 125 -77 178q-64 43 -197 43h-209v-469z
" />
    <glyph glyph-name="C" unicode="C" horiz-adv-x="1098" 
d="M989 455v-33q0 -205 -106 -323q-111 -122 -314 -122q-198 0 -307 101q-106 98 -138 327q-15 110 -15 365q0 400 94 553q105 170 364 170q412 0 412 -440h-207v22q0 262 -211 262q-136 0 -199 -102q-43 -69 -54 -265q-3 -58 -3 -272q0 -261 23 -354q52 -209 233 -209
q223 0 223 303v17h205z" />
    <glyph glyph-name="D" unicode="D" horiz-adv-x="1155" 
d="M135 0v1475h354q157 0 225 -11q126 -21 201 -92q100 -94 126 -309q10 -83 10 -342q0 -420 -88 -551q-76 -113 -210 -148q-82 -22 -264 -22h-354zM332 168h207q203 0 262 101.5t59 478.5q0 325 -29 403q-36 98 -114 134q-61 30 -178 30h-207v-1147z" />
    <glyph glyph-name="E" unicode="E" horiz-adv-x="950" 
d="M135 0v1475h737v-162h-542v-473h526v-166h-526v-512h542v-162h-737z" />
    <glyph glyph-name="F" unicode="F" horiz-adv-x="934" 
d="M135 0v1475h709v-162h-514v-473h489v-166h-489v-674h-195z" />
    <glyph glyph-name="G" unicode="G" horiz-adv-x="1163" 
d="M830 1073q-4 266 -244 266q-203 0 -258 -215q-23 -90 -23 -383q0 -285 30 -388q62 -212 273 -212q87 0 234 29v436h-205v170h397v-739q-262 -62 -428 -62q-254 0 -368 125q-90 99 -119 318q-15 117 -15 346q0 403 99 559q110 174 389 174q206 0 320 -106
q118 -110 118 -314v-4h-200z" />
    <glyph glyph-name="H" unicode="H" horiz-adv-x="1165" 
d="M135 0v1475h195v-631h506v631h194v-1475h-194v674h-506v-674h-195z" />
    <glyph glyph-name="I" unicode="I" horiz-adv-x="465" 
d="M133 0v1475h199v-1475h-199z" />
    <glyph glyph-name="J" unicode="J" horiz-adv-x="979" 
d="M272 463q-2 -24 -2 -64q0 -256 181 -256q152 0 192 150q16 61 16 278v904h193v-1026q0 -234 -66 -332q-95 -142 -333 -142q-207 0 -301 112q-86 104 -86 316q0 10 1 30t1 30h204z" />
    <glyph glyph-name="K" unicode="K" horiz-adv-x="989" 
d="M137 0v1475h189v-621l438 621h213l-471 -662l506 -813h-221l-465 766v-766h-189z" />
    <glyph glyph-name="L" unicode="L" horiz-adv-x="868" 
d="M135 0v1475h193v-1305h503v-170h-696z" />
    <glyph glyph-name="M" unicode="M" horiz-adv-x="1630" 
d="M135 0v1475h314l317 -1014q15 -49 61 -234q16 80 56 236l309 1012h303v-1475h-180v1055q0 159 4 309l-416 -1364h-166l-426 1378q6 -158 6 -364v-1014h-182z" />
    <glyph glyph-name="N" unicode="N" horiz-adv-x="1262" 
d="M954 170q-8 142 -8 270v1035h180v-1475h-264l-567 1341q16 -190 16 -278v-1063h-176v1475h277z" />
    <glyph glyph-name="O" unicode="O" horiz-adv-x="1167" 
d="M1053 721q0 -417 -76 -549q-113 -197 -393 -197q-227 0 -348 134q-86 96 -110 301q-11 91 -11 327q0 435 75 566q111 194 394 194q231 0 348 -133q86 -98 110 -309q11 -94 11 -334zM854 737q0 290 -21 377q-53 217 -251 217q-138 0 -201 -96q-51 -77 -64 -243
q-4 -57 -4 -255q0 -357 41 -450q64 -146 228 -146q197 0 251 218q21 88 21 378z" />
    <glyph glyph-name="P" unicode="P" horiz-adv-x="1028" 
d="M330 1309v-484h153q156 0 214 45q67 52 67 201q0 130 -49 183q-52 55 -180 55h-205zM537 1475q230 0 325 -87q99 -92 99 -319q0 -206 -87 -305q-92 -105 -294 -105h-250v-659h-195v1475h402z" />
    <glyph glyph-name="Q" unicode="Q" horiz-adv-x="1167" 
d="M850 737q0 354 -41 449q-63 145 -229 145q-141 0 -203 -96q-48 -75 -61 -224q-5 -59 -5 -235v-39q0 -360 39 -450q63 -146 230 -146q140 0 204 97q48 73 61 225q5 59 5 235v39zM936 150q102 20 184 20h68v-170h-340q-42 0 -127.5 -12.5t-128.5 -12.5q-241 0 -361 134
q-85 95 -108 301q-10 88 -10 327q0 208 6 288q15 187 67 278q111 194 394 194q229 0 348 -133q84 -94 109 -285q12 -94 12 -311v-55q0 -214 -10 -294q-22 -181 -103 -269z" />
    <glyph glyph-name="R" unicode="R" horiz-adv-x="1110" 
d="M326 834h143q151 0 223 55q82 62 82 207q0 225 -229 225h-219v-487zM518 1475q215 0 321 -69q130 -85 130 -286q0 -289 -254 -360q130 -14 179 -99q40 -68 40 -210q0 -25 -1 -75t-1 -75q0 -168 39 -301h-201q-30 98 -32 329q0 42 -3 128q-3 110 -34 157q-40 60 -142 60
h-233v-674h-195v1475h387z" />
    <glyph glyph-name="S" unicode="S" horiz-adv-x="1079" 
d="M78 426h213v-27q0 -270 219 -270q104 0 174 60q74 63 74 165q0 126 -274 298q-25 15 -60 38q-172 110 -231 173q-99 108 -99 259q0 179 132 282q120 95 304 95q412 0 412 -387v-37h-203v31q0 240 -217 240q-94 0 -159 -53q-70 -56 -70 -148q0 -142 294 -330l83 -53
q144 -94 198 -154q88 -97 88 -225q0 -203 -126 -309q-117 -99 -324 -99q-430 0 -430 406q0 8 1 22.5t1 22.5z" />
    <glyph glyph-name="T" unicode="T" horiz-adv-x="958" 
d="M387 0v1323h-362v152h909v-152h-352v-1323h-195z" />
    <glyph glyph-name="U" unicode="U" horiz-adv-x="1186" 
d="M319 1475v-953q0 -193 43 -264q73 -121 230 -121q159 0 231 121q41 69 41 262v955h187v-924q0 -282 -87 -414q-107 -162 -372 -162q-251 0 -371 166q-86 119 -86 400v934h184z" />
    <glyph glyph-name="V" unicode="V" horiz-adv-x="1069" 
d="M418 0l-418 1475h221l264 -1100q1 -6 5 -20q33 -140 45 -205l21 100t28 123l280 1102h205l-418 -1475h-233z" />
    <glyph glyph-name="W" unicode="W" horiz-adv-x="1821" 
d="M377 0l-359 1475h197l252 -1115q17 -73 35 -231q18 101 43 216q1 4 2 9l266 1121h205l254 -1102q21 -93 37 -244q10 82 45 233l256 1113h190l-377 -1475h-231l-217 924q-35 150 -64 397q-12 -117 -73 -390l-2 -9l-224 -922h-235z" />
    <glyph glyph-name="X" unicode="X" horiz-adv-x="1100" 
d="M12 0l414 772l-381 703h223l281 -560l297 560h209l-385 -699l417 -776h-227l-313 631l-314 -631h-221z" />
    <glyph glyph-name="Y" unicode="Y" horiz-adv-x="977" 
d="M377 0v618l-387 857h223l281 -695l294 695h197l-410 -875v-600h-198z" />
    <glyph glyph-name="Z" unicode="Z" horiz-adv-x="930" 
d="M35 0v201l672 1112h-627v162h829v-185l-676 -1120h676v-170h-874z" />
    <glyph glyph-name="bracketleft" unicode="[" horiz-adv-x="592" 
d="M512 -324h-324v1799h324v-119h-166v-1561h166v-119z" />
    <glyph glyph-name="backslash" unicode="\" horiz-adv-x="569" 
d="M-70 1497h125l598 -1687h-125z" />
    <glyph glyph-name="bracketright" unicode="]" horiz-adv-x="592" 
d="M80 -324v119h166v1561h-166v119h323v-1799h-323z" />
    <glyph glyph-name="asciicircum" unicode="^" horiz-adv-x="2048" 
d="M1104 1458l520 -557h-158l-442 438l-442 -438h-160l520 557h162z" />
    <glyph glyph-name="underscore" unicode="_" 
d="M1024 -365v-118h-1024v118h1024z" />
    <glyph glyph-name="grave" unicode="`" 
d="M655 1163h-120l-285 348h201z" />
    <glyph glyph-name="a" unicode="a" horiz-adv-x="920" 
d="M285 760h-189v20q0 273 365 273q346 0 346 -299v-480q0 -142 18 -274h-176l-12 129q-108 -139 -266 -139q-136 0 -217 91q-78 87 -78 224q0 357 456 357h99v51q0 107 -26 152q-35 61 -132 61q-188 0 -188 -156v-10zM633 539q-174 0 -251 -28q-130 -48 -130 -189
q0 -74 44 -124q45 -53 118 -53q219 0 219 314v80z" />
    <glyph glyph-name="b" unicode="b" horiz-adv-x="961" 
d="M495 905q-209 0 -209 -383q0 -171 25 -258q45 -155 173 -155q137 0 180 145q23 76 23 258q0 393 -192 393zM100 0q10 72 10 184v1291h178v-560q88 140 246 140q335 0 335 -553q0 -529 -344 -529q-164 0 -235 121l-23 -94h-167z" />
    <glyph glyph-name="c" unicode="c" horiz-adv-x="924" 
d="M668 348h177q-3 -175 -98 -273q-98 -100 -272 -100q-227 0 -317 164q-68 123 -68 373t68 374q90 165 317 165q155 0 256 -80q109 -87 109 -238v-22h-174q0 190 -181 190q-140 0 -188 -135q-27 -78 -27 -254q0 -169 26 -249q46 -138 179 -138q92 0 144 67q46 61 49 156z
" />
    <glyph glyph-name="d" unicode="d" horiz-adv-x="961" 
d="M668 915v560h178v-1291q0 -124 8 -182h-174l-10 100q-96 -125 -246 -125q-338 0 -338 525q0 553 336 553q158 0 246 -140zM461 905q-195 0 -195 -387q0 -182 24 -261q44 -148 181 -148q127 0 171 150q26 86 26 253t-28 251q-47 142 -179 142z" />
    <glyph glyph-name="e" unicode="e" horiz-adv-x="924" 
d="M273 606h397v88q0 236 -189 236q-202 0 -208 -324zM844 322q-8 -165 -106 -256t-263 -91q-232 0 -320 167q-65 122 -65 380q0 245 70 368q91 161 315 161q200 0 289 -111q80 -101 80 -307v-160h-572v-59q0 -289 203 -289q166 0 193 197h176z" />
    <glyph glyph-name="f" unicode="f" horiz-adv-x="526" 
d="M152 1270q0 125 71 174q39 27 100 40t150 13h45v-139q-124 -3 -158 -41.5t-34 -165.5v-123h192v-127h-192v-901h-174v901h-144v127h144v242z" />
    <glyph glyph-name="g" unicode="g" horiz-adv-x="967" 
d="M268 518q0 -165 26 -249q45 -144 173 -144q215 0 215 393q0 173 -27 259q-47 147 -182 147q-137 0 -181 -146q-24 -79 -24 -260zM150 -115h200q2 -69 41 -111t107 -42q109 0 147 67q29 50 29 170v148q-107 -142 -246 -142q-206 0 -287 186q-55 128 -55 367q0 527 340 527
q153 0 248 -125l10 98h178q-10 -70 -10 -182v-901q0 -163 -59 -238q-85 -108 -297 -108q-151 0 -240 67q-100 74 -106 219z" />
    <glyph glyph-name="h" unicode="h" horiz-adv-x="948" 
d="M662 0v657q0 126 -24 180q-38 81 -146 81q-201 0 -201 -324v-594h-176v1475h176v-566q108 144 274 144q128 0 201.5 -74.5t73.5 -202.5v-776h-178z" />
    <glyph glyph-name="i" unicode="i" horiz-adv-x="428" 
d="M129 1286v189h170v-189h-170zM129 0v1028h170v-1028h-170z" />
    <glyph glyph-name="j" unicode="j" horiz-adv-x="438" 
d="M137 1286v189h170v-189h-170zM307 -168q0 -138 -59.5 -186.5t-167.5 -48.5q-36 0 -72 6v143h23q63 0 84.5 23.5t21.5 87.5v1171h170v-1196z" />
    <glyph glyph-name="k" unicode="k" horiz-adv-x="872" 
d="M293 0h-176v1475h176v-854l313 407h197l-348 -426l417 -602h-215l-364 553v-553z" />
    <glyph glyph-name="l" unicode="l" horiz-adv-x="399" 
d="M287 0h-176v1475h176v-1475z" />
    <glyph glyph-name="m" unicode="m" horiz-adv-x="1497" 
d="M292 909q104 144 272 144q202 0 264 -172q91 172 285 172q128 0 200 -74t72 -203v-776h-176v657q0 127 -24 180q-37 81 -146 81q-200 0 -200 -324v-594h-178v657q0 126 -24 180q-38 81 -146 81q-201 0 -201 -324v-594h-176v866q0 64 -10 162h180z" />
    <glyph glyph-name="n" unicode="n" horiz-adv-x="948" 
d="M661 0v657q0 126 -24 180q-38 81 -146 81q-201 0 -201 -324v-594h-176v866q0 64 -10 162h180l8 -119q104 144 272 144q128 0 201.5 -74.5t73.5 -202.5v-776h-178z" />
    <glyph glyph-name="o" unicode="o" horiz-adv-x="950" 
d="M88 516q0 247 70 372q91 163 317 163q227 0 317 -164q68 -123 68 -373q0 -249 -68 -374q-91 -165 -317 -165q-228 0 -319 165q-68 125 -68 376zM475 901q-132 0 -179 -138q-28 -83 -28 -249q0 -169 27 -250q46 -139 180 -139q132 0 178 138q27 81 27 249q0 170 -26 250
q-46 139 -179 139z" />
    <glyph glyph-name="p" unicode="p" horiz-adv-x="961" 
d="M289 510q0 -385 211 -385q190 0 190 393q0 181 -23 259q-44 147 -180 147q-128 0 -173 -156q-25 -86 -25 -258zM113 -389v1235q0 130 -9 182h181l10 -98q95 125 242 125q200 0 280 -175q55 -122 55 -352q0 -553 -335 -553q-158 0 -246 142v-506h-178z" />
    <glyph glyph-name="q" unicode="q" horiz-adv-x="961" 
d="M668 -389v506q-90 -142 -246 -142q-336 0 -336 553q0 527 338 527q149 0 244 -125l10 98h176q-8 -58 -8 -182v-1235h-178zM461 125q209 0 209 385q0 172 -25 259q-45 155 -174 155q-136 0 -180 -147q-23 -78 -23 -259q0 -393 193 -393z" />
    <glyph glyph-name="r" unicode="r" horiz-adv-x="592" 
d="M274 1030l17 -135q58 160 258 160q6 0 16.5 -1t16.5 -1v-181q-8 0 -22.5 1t-22.5 1q-134 0 -190 -58.5t-56 -192.5v-623h-176v856q0 14 -11 118l-6 56h176z" />
    <glyph glyph-name="s" unicode="s" horiz-adv-x="877" 
d="M76 313h192q6 -192 174 -192q70 0 116 33q52 37 52 104q0 88 -149 164l-187 96q-184 94 -184 242q0 143 110 223q98 72 246 72q144 0 234 -64q104 -73 104 -211v-18h-188q0 162 -166 162q-63 0 -107 -32q-49 -36 -49 -97q0 -73 105 -125l170 -84q123 -61 175 -112
q77 -76 77 -185q0 -152 -109 -237q-100 -77 -256 -77q-358 0 -360 338z" />
    <glyph glyph-name="t" unicode="t" horiz-adv-x="584" 
d="M346 1319v-291h205v-127h-205v-616q0 -77 21 -108q26 -38 98 -38q5 0 32 2t48 2h6l-1 -133q-82 -18 -144 -18q-129 0 -182.5 51t-53.5 180v678h-156v127h156v207z" />
    <glyph glyph-name="u" unicode="u" horiz-adv-x="948" 
d="M285 1028v-655q0 -126 24 -179q37 -81 146 -81q200 0 200 321v594h176v-866q0 -42 10 -162h-179l-9 121q-105 -146 -272 -146q-128 0 -201.5 74.5t-73.5 202.5v776h179z" />
    <glyph glyph-name="v" unicode="v" horiz-adv-x="901" 
d="M340 0l-322 1028h205l162 -592q40 -145 64 -311q33 143 73 280l9 30l165 593h185l-322 -1028h-219z" />
    <glyph glyph-name="w" unicode="w" horiz-adv-x="1470" 
d="M287 0l-267 1028h183l139 -592q38 -162 55 -288q21 97 68 288l166 592h211l162 -604q8 -30 36 -166l23 -110q14 101 59 284l146 596h180l-272 -1028h-222l-170 660q-18 69 -53 253q-15 -85 -53 -254l-174 -659h-217z" />
    <glyph glyph-name="x" unicode="x" horiz-adv-x="915" 
d="M207 0h-195l328 549l-297 479h203l209 -362l215 362h192l-311 -487l350 -541h-207l-254 424z" />
    <glyph glyph-name="y" unicode="y" horiz-adv-x="930" 
d="M434 -389h-174l113 389l-353 1028h207l246 -813l244 813h190z" />
    <glyph glyph-name="z" unicode="z" horiz-adv-x="696" 
d="M25 0v164l450 731h-424v133h623v-133l-469 -758h469v-137h-649z" />
    <glyph glyph-name="braceleft" unicode="{" 
d="M858 1350q-8 0 -22.5 1t-22.5 1q-129 0 -172 -58q-35 -49 -35 -186v-242q0 -146 -32 -213q-42 -88 -166 -123q124 -33 166 -122q32 -67 32 -213v-242q0 -139 37 -187q43 -55 176 -55h39v-125h-35q-183 0 -262 52q-68 45 -88 141q-12 53 -12 172v244q0 144 -49 206
q-55 68 -195 68q-8 0 -22.5 -1t-22.5 -1v127q8 0 22.5 -1t22.5 -1q140 0 195 69q49 62 49 207v244q0 121 11 172q21 97 89 141q80 52 262 52h35v-127z" />
    <glyph glyph-name="bar" unicode="|" 
d="M575 1565v-2048h-126v2048h126z" />
    <glyph glyph-name="braceright" unicode="}" 
d="M563 1112v-244q0 -145 50 -207q56 -69 196 -69q8 0 22.5 1t22.5 1v-127q-8 0 -22.5 1t-22.5 1q-140 0 -196 -69q-50 -62 -50 -207v-242q0 -121 -11 -173q-20 -98 -87 -143q-74 -49 -258 -49h-41v125q8 0 22.5 -1t22.5 -1q129 0 172 60q35 48 35 186v240q0 146 32 213
q42 89 166 122q-124 35 -166 123q-32 67 -32 213v242q0 139 -37 187q-44 57 -176 57h-39v125h35q183 0 264 -52q67 -43 87 -141q11 -52 11 -172z" />
    <glyph glyph-name="asciitilde" unicode="~" horiz-adv-x="1706" 
d="M1530 627q-202 -144 -387 -144q-83 0 -191 35q-7 2 -87 31q-201 72 -302 72q-157 0 -385 -160v133q209 145 387 145q106 0 291 -65q10 -3 44 -16q158 -58 245 -58q159 0 385 158v-131z" />
    <glyph glyph-name="exclamdown" unicode="&#xa1;" horiz-adv-x="616" 
d="M238 1124h143l39 -1124h-223zM215 1475h191v-199h-191v199z" />
    <glyph glyph-name="cent" unicode="&#xa2;" horiz-adv-x="981" 
d="M322 233l271 654q-40 14 -85 14q-144 0 -193 -128q-30 -78 -30 -253q0 -206 37 -287zM868 348q-3 -175 -99.5 -274t-270.5 -99q-94 0 -179 33l-63 -153h-92l84 196q-137 124 -137 461q0 250 69 374q90 165 318 165q76 0 157 -25l60 148h92l-78 -187q135 -99 135 -248
q0 -5 -1 -14t-1 -14h-157q-4 103 -38 130l-284 -681q47 -35 115 -35q96 0 150 65q49 59 53 158h167z" />
    <glyph glyph-name="sterling" unicode="&#xa3;" horiz-adv-x="981" 
d="M84 0v166h145v516h-145v158h145v149q0 231 58 320q95 145 303 145q150 0 233.5 -86.5t83.5 -237.5v-6h-198q-13 168 -144 168q-153 0 -153 -217v-235h284v-158h-284v-516h493v-166h-821z" />
    <glyph glyph-name="currency" unicode="&#xa4;" horiz-adv-x="1241" 
d="M936 887q0 130 -91.5 221.5t-221.5 91.5t-222 -91.5t-92 -221.5q0 -132 91 -224t223 -92q130 0 221.5 92.5t91.5 223.5zM365 1212q119 91 256 91q141 0 260 -91l204 207l72 -73l-205 -205q86 -114 86 -256q0 -144 -86 -256l205 -205l-72 -74l-204 207q-114 -88 -260 -88
q-145 0 -256 88l-207 -207l-72 74l207 205q-88 116 -88 256t88 256l-207 205l72 73z" />
    <glyph glyph-name="yen" unicode="&#xa5;" horiz-adv-x="956" 
d="M961 1427l-203 -432h174v-108h-225l-95 -182h320v-109h-365v-596h-186v596h-358v109h311l-84 182h-227v108h176l-193 432h207l274 -673l287 673h187z" />
    <glyph glyph-name="brokenbar" unicode="&#xa6;" 
d="M575 408v-758h-126v758h126zM575 1432v-758h-126v758h126z" />
    <glyph glyph-name="section" unicode="&#xa7;" horiz-adv-x="981" 
d="M494 602q165 92 165 178q0 77 -180 152q-160 -96 -160 -170q0 -81 175 -160zM188 31v147q151 -57 275 -57q211 0 211 135q0 67 -108 136q-26 17 -163 85q-124 62 -169 100q-82 70 -82 168q0 123 215 259q-172 96 -172 245q0 125 109 192q90 56 224 56q146 0 234 -37v-129
q-141 45 -240 45q-170 0 -170 -116q0 -92 192 -184l68 -34q207 -106 207 -237q0 -155 -207 -264q107 -64 148 -109q65 -70 65 -166q0 -145 -107 -222q-94 -67 -245 -67q-169 0 -285 54z" />
    <glyph glyph-name="dieresis" unicode="&#xa8;" 
d="M586 1223v209h182v-209h-182zM256 1223v209h182v-209h-182z" />
    <glyph glyph-name="copyright" unicode="&#xa9;" horiz-adv-x="1706" 
d="M1065 911q-32 164 -209 164q-133 0 -197 -116q-51 -91 -51 -236q0 -140 53 -231q65 -113 195 -113q187 0 219 182h129q-12 -135 -117 -214q-98 -73 -237 -73q-187 0 -291 133q-94 121 -94 314q0 196 97 321q107 136 298 136q130 0 222 -68q100 -74 112 -199h-129z
M1501 725q0 270 -187.5 458.5t-461.5 188.5q-270 0 -453 -186q-192 -195 -192 -461q0 -264 189.5 -454.5t455.5 -190.5q267 0 463 192q186 182 186 453zM852 1460q309 0 524 -215q211 -211 211 -520q0 -310 -211 -516q-224 -219 -524 -219q-298 0 -515.5 216.5t-217.5 518.5
q0 219 126 408t327 273q132 54 280 54z" />
    <glyph glyph-name="ordfeminine" unicode="&#xaa;" horiz-adv-x="690" 
d="M213 1286h-141v14q0 191 274 191q260 0 260 -209v-336q0 -102 12 -192h-131l-10 90q-76 -96 -198 -96q-99 0 -160.5 60.5t-61.5 158.5q0 250 342 250h74v36q0 77 -21 109q-26 39 -98 39q-141 0 -141 -109v-6zM475 1130q-128 0 -185 -18q-102 -33 -102 -133q0 -53 35 -88
t88 -35q164 0 164 219v55z" />
    <glyph glyph-name="guillemotleft" unicode="&#xab;" horiz-adv-x="825" 
d="M410 119h-158l-186 393l186 397h158l-158 -397zM758 119h-164l-182 393l182 397h164l-164 -397z" />
    <glyph glyph-name="logicalnot" unicode="&#xac;" horiz-adv-x="1706" 
d="M1452 858v-502h-115v385h-1083v117h1198z" />
    <glyph glyph-name="registered" unicode="&#xae;" horiz-adv-x="1706" 
d="M846 1065h-144v-291h148q227 0 227 141q0 150 -231 150zM872 1157q351 0 351 -231q0 -189 -197 -224l188 -385h-157l-176 365h-179v-365h-141v840h311zM1501 721q0 275 -186 461q-190 190 -463 190q-269 0 -451 -184q-194 -196 -194 -463q0 -193 110 -357t288 -239
q117 -49 245 -49q270 0 463 190q188 185 188 451zM852 1460q307 0 524 -217q211 -211 211 -518q0 -309 -213 -516q-225 -219 -522 -219q-299 0 -518 219q-215 215 -215 516t221 524q209 211 512 211z" />
    <glyph glyph-name="degree" unicode="&#xb0;" horiz-adv-x="674" 
d="M539 1171q0 85 -58 143t-143 58t-144 -58.5t-59 -142.5q0 -85 59 -143.5t144 -58.5t143 58.5t58 143.5zM338 1454q118 0 200.5 -82.5t82.5 -200.5t-83.5 -200t-201.5 -82q-119 0 -200 81.5t-81 200.5t82 201t201 82z" />
    <glyph glyph-name="plusminus" unicode="&#xb1;" horiz-adv-x="1706" 
d="M1452 158v-117h-1198v117h1198zM913 1180v-344h539v-117h-539v-344h-118v344h-541v117h541v344h118z" />
    <glyph glyph-name="twosuperior" unicode="&#xb2;" horiz-adv-x="647" 
d="M72 571v109l288 377q89 117 89 188q0 105 -121 105q-112 0 -121 -139l-131 -1q0 4 -1 11.5t-1 11.5q0 209 258 209q103 0 167 -43q74 -50 74 -148q0 -124 -135 -295l-223 -282h363v-103h-506z" />
    <glyph glyph-name="threesuperior" unicode="&#xb3;" horiz-adv-x="647" 
d="M53 797h131q4 -144 123 -144q142 0 142 158t-177 158h-20v102q184 0 184 143q0 132 -121 132q-118 0 -118 -123h-127v14q0 99 68 154q63 51 165 51q254 0 254 -215q0 -192 -163 -209q171 -6 171 -207q0 -254 -252 -254q-260 0 -260 225v15z" />
    <glyph glyph-name="acute" unicode="&#xb4;" 
d="M369 1163l204 348h201l-285 -348h-120z" />
    <glyph glyph-name="paragraph" unicode="&#xb6;" 
d="M948 1401h-125v-1401h-94v1401h-182v-1401h-96v782q-164 8 -265 94q-110 94 -110 254q0 166 116 261q108 88 277 88h479v-78z" />
    <glyph glyph-name="cedilla" unicode="&#xb8;" 
d="M258 -426v100q171 -39 248 -39q119 0 119 82q0 86 -131 86q-9 0 -27 -1h-27v198h76v-102h29q223 0 223 -181q0 -188 -250 -188q-105 0 -260 45z" />
    <glyph glyph-name="onesuperior" unicode="&#xb9;" horiz-adv-x="647" 
d="M406 571h-123l-1 725q-26 -25 -141 -90v117q47 20 170 104h95v-856z" />
    <glyph glyph-name="ordmasculine" unicode="&#xba;" horiz-adv-x="713" 
d="M66 1114q0 177 56 265q69 110 234 110q166 0 235 -109q54 -87 54 -266q0 -180 -54 -267q-68 -110 -235 -110q-168 0 -236 110q-54 87 -54 267zM356 1384q-155 0 -155 -270q0 -120 22 -178q35 -94 133 -94q97 0 132 93q22 58 22 177q0 121 -21 178q-34 94 -133 94z" />
    <glyph glyph-name="guillemotright" unicode="&#xbb;" horiz-adv-x="825" 
d="M416 119l155 393l-155 397h155l187 -397l-187 -393h-155zM66 119l163 393l-163 397h163l185 -397l-185 -393h-163z" />
    <glyph glyph-name="onequarter" unicode="&#xbc;" horiz-adv-x="1579" 
d="M1309 0v201h-295v116l254 482h157v-510h99v-88h-99v-201h-116zM1311 287l10 428l-219 -428h209zM276 -25l904 1475h120l-903 -1475h-121zM385 627h-117v676q-30 -18 -129 -82l-3 -2l-1 110q53 23 160 96h90v-798z" />
    <glyph glyph-name="onehalf" unicode="&#xbd;" horiz-adv-x="1579" 
d="M1028 0v102l277 351q84 106 84 176q0 98 -117 98q-106 0 -115 -131h-125v22q0 193 244 193q231 0 231 -176q0 -117 -129 -277l-213 -264h346v-94h-483zM276 -25l904 1475h120l-903 -1475h-121zM385 627h-117v676q-30 -18 -129 -82l-3 -2l-1 110q53 23 160 96h90v-798z
" />
    <glyph glyph-name="threequarters" unicode="&#xbe;" horiz-adv-x="1579" 
d="M1309 0v201h-295v116l254 482h157v-510h99v-88h-99v-201h-116zM1311 287l10 428l-219 -428h209zM276 -25l904 1475h120l-903 -1475h-121zM51 838l125 -1q4 -135 119 -135q133 0 133 148q0 147 -168 147h-18v97q174 0 174 133q0 123 -115 123t-115 -115h-120v12
q0 94 66 145q60 46 157 46q243 0 243 -201q0 -178 -157 -193q164 -6 164 -194q0 -238 -240 -238q-248 0 -248 211v15z" />
    <glyph glyph-name="questiondown" unicode="&#xbf;" horiz-adv-x="807" 
d="M516 1100v-228q0 -87 -27 -129l-120 -169q-90 -135 -90 -259q0 -196 147 -196q142 0 150 274h184q4 -30 4 -80q0 -165 -94.5 -252.5t-261.5 -87.5q-332 0 -332 365q0 150 123 321q47 58 133 179q20 33 20 100v162h164zM530 1475v-205h-194v205h194z" />
    <glyph glyph-name="Agrave" unicode="&#xc0;" horiz-adv-x="1208" 
d="M393 532h422l-207 713zM965 0l-99 358h-522l-102 -358h-211l463 1475h233l451 -1475h-213zM747 1609h-120l-285 348h201z" />
    <glyph glyph-name="Aacute" unicode="&#xc1;" horiz-adv-x="1208" 
d="M393 532h422l-207 713zM965 0l-99 358h-522l-102 -358h-211l463 1475h233l451 -1475h-213zM461 1609l204 348h201l-285 -348h-120z" />
    <glyph glyph-name="Acircumflex" unicode="&#xc2;" horiz-adv-x="1208" 
d="M393 532h422l-207 713zM965 0l-99 358h-522l-102 -358h-211l463 1475h233l451 -1475h-213zM309 1609l197 348h196l197 -348h-123l-172 230l-174 -230h-121z" />
    <glyph glyph-name="Atilde" unicode="&#xc3;" horiz-adv-x="1208" 
d="M393 532h422l-207 713zM965 0l-99 358h-522l-102 -358h-211l463 1475h233l451 -1475h-213zM876 1888q-37 -209 -182 -209q-28 0 -61 10l-89 27q-26 8 -46 8q-60 0 -84 -68h-82q35 203 188 203q28 0 47 -6l91 -29q31 -10 46 -10q67 0 90 74h82z" />
    <glyph glyph-name="Adieresis" unicode="&#xc4;" horiz-adv-x="1208" 
d="M393 532h422l-207 713zM965 0l-99 358h-522l-102 -358h-211l463 1475h233l451 -1475h-213zM678 1669v209h182v-209h-182zM348 1669v209h182v-209h-182z" />
    <glyph glyph-name="Aring" unicode="&#xc5;" horiz-adv-x="1208" 
d="M487 1747q0 -50 35.5 -85.5t85.5 -35.5q51 0 87 35t36 86q0 52 -35.5 87.5t-87.5 35.5t-86.5 -35.5t-34.5 -87.5zM385 1747q0 94 64.5 159.5t158.5 65.5q96 0 161 -64.5t65 -160.5t-65 -159.5t-161 -63.5q-95 0 -159 64t-64 159zM393 532h422l-207 713zM965 0l-99 358
h-522l-102 -358h-211l461 1462h237l449 -1462h-213z" />
    <glyph glyph-name="AE" unicode="&#xc6;" horiz-adv-x="1548" 
d="M657 1329l-307 -813h422zM1470 1475v-162h-632l69 -473h563v-166h-542l78 -512h464v-162h-624l-49 356h-506l-129 -356h-174l547 1475h935z" />
    <glyph glyph-name="Ccedilla" unicode="&#xc7;" horiz-adv-x="1098" 
d="M989 455v-33q0 -205 -106 -323q-111 -122 -314 -122q-198 0 -307 101q-106 98 -138 327q-15 110 -15 365q0 400 94 553q105 170 364 170q412 0 412 -440h-207v22q0 262 -211 262q-136 0 -199 -102q-43 -69 -54 -265q-3 -58 -3 -272q0 -261 23 -354q52 -209 233 -209
q223 0 223 303v17h205zM295 -426v100q171 -39 248 -39q119 0 119 82q0 86 -131 86q-9 0 -27 -1h-27v198h76v-102h29q223 0 223 -181q0 -188 -250 -188q-105 0 -260 45z" />
    <glyph glyph-name="Egrave" unicode="&#xc8;" horiz-adv-x="950" 
d="M135 0v1475h737v-162h-542v-473h526v-166h-526v-512h542v-162h-737zM647 1609h-120l-285 348h201z" />
    <glyph glyph-name="Eacute" unicode="&#xc9;" horiz-adv-x="950" 
d="M135 0v1475h737v-162h-542v-473h526v-166h-526v-512h542v-162h-737zM361 1609l204 348h201l-285 -348h-120z" />
    <glyph glyph-name="Ecircumflex" unicode="&#xca;" horiz-adv-x="950" 
d="M135 0v1475h737v-162h-542v-473h526v-166h-526v-512h542v-162h-737zM209 1609l197 348h196l197 -348h-123l-172 230l-174 -230h-121z" />
    <glyph glyph-name="Edieresis" unicode="&#xcb;" horiz-adv-x="950" 
d="M135 0v1475h737v-162h-542v-473h526v-166h-526v-512h542v-162h-737zM578 1669v209h182v-209h-182zM248 1669v209h182v-209h-182z" />
    <glyph glyph-name="Igrave" unicode="&#xcc;" horiz-adv-x="465" 
d="M133 0v1475h199v-1475h-199zM376 1609h-120l-285 348h201z" />
    <glyph glyph-name="Iacute" unicode="&#xcd;" horiz-adv-x="465" 
d="M133 0v1475h199v-1475h-199zM90 1609l204 348h201l-285 -348h-120z" />
    <glyph glyph-name="Icircumflex" unicode="&#xce;" horiz-adv-x="465" 
d="M133 0v1475h199v-1475h-199zM-62 1609l197 348h196l197 -348h-123l-172 230l-174 -230h-121z" />
    <glyph glyph-name="Idieresis" unicode="&#xcf;" horiz-adv-x="465" 
d="M133 0v1475h199v-1475h-199zM307 1669v209h182v-209h-182zM-23 1669v209h182v-209h-182z" />
    <glyph glyph-name="Eth" unicode="&#xd0;" horiz-adv-x="1163" 
d="M830 1073q-4 266 -244 266q-203 0 -258 -215q-23 -90 -23 -383q0 -285 30 -388q62 -212 273 -212q87 0 234 29v436h-205v170h397v-739q-262 -62 -428 -62q-254 0 -368 125q-90 99 -119 318q-15 117 -15 346q0 403 99 559q110 174 389 174q206 0 320 -106
q118 -110 118 -314v-4h-200zM312 1922l102 1q24 -140 168 -140q145 0 168 140l102 -1q-17 -278 -270 -278t-270 278z" />
    <glyph glyph-name="Ntilde" unicode="&#xd1;" horiz-adv-x="1262" 
d="M954 170q-8 142 -8 270v1035h180v-1475h-264l-567 1341q16 -190 16 -278v-1063h-176v1475h277zM903 1888q-37 -209 -182 -209q-28 0 -61 10l-89 27q-26 8 -46 8q-60 0 -84 -68h-82q35 203 188 203q28 0 47 -6l91 -29q31 -10 46 -10q67 0 90 74h82z" />
    <glyph glyph-name="Ograve" unicode="&#xd2;" horiz-adv-x="1167" 
d="M1053 721q0 -417 -76 -549q-113 -197 -393 -197q-227 0 -348 134q-86 96 -110 301q-11 91 -11 327q0 435 75 566q111 194 394 194q231 0 348 -133q86 -98 110 -309q11 -94 11 -334zM854 737q0 290 -21 377q-53 217 -251 217q-138 0 -201 -96q-51 -77 -64 -243
q-4 -57 -4 -255q0 -357 41 -450q64 -146 228 -146q197 0 251 218q21 88 21 378zM727 1609h-120l-285 348h201z" />
    <glyph glyph-name="Oacute" unicode="&#xd3;" horiz-adv-x="1167" 
d="M1053 721q0 -417 -76 -549q-113 -197 -393 -197q-227 0 -348 134q-86 96 -110 301q-11 91 -11 327q0 435 75 566q111 194 394 194q231 0 348 -133q86 -98 110 -309q11 -94 11 -334zM854 737q0 290 -21 377q-53 217 -251 217q-138 0 -201 -96q-51 -77 -64 -243
q-4 -57 -4 -255q0 -357 41 -450q64 -146 228 -146q197 0 251 218q21 88 21 378zM441 1609l204 348h201l-285 -348h-120z" />
    <glyph glyph-name="Ocircumflex" unicode="&#xd4;" horiz-adv-x="1167" 
d="M1053 721q0 -417 -76 -549q-113 -197 -393 -197q-227 0 -348 134q-86 96 -110 301q-11 91 -11 327q0 435 75 566q111 194 394 194q231 0 348 -133q86 -98 110 -309q11 -94 11 -334zM854 737q0 290 -21 377q-53 217 -251 217q-138 0 -201 -96q-51 -77 -64 -243
q-4 -57 -4 -255q0 -357 41 -450q64 -146 228 -146q197 0 251 218q21 88 21 378zM289 1609l197 348h196l197 -348h-123l-172 230l-174 -230h-121z" />
    <glyph glyph-name="Otilde" unicode="&#xd5;" horiz-adv-x="1167" 
d="M1053 721q0 -417 -76 -549q-113 -197 -393 -197q-227 0 -348 134q-86 96 -110 301q-11 91 -11 327q0 435 75 566q111 194 394 194q231 0 348 -133q86 -98 110 -309q11 -94 11 -334zM854 737q0 290 -21 377q-53 217 -251 217q-138 0 -201 -96q-51 -77 -64 -243
q-4 -57 -4 -255q0 -357 41 -450q64 -146 228 -146q197 0 251 218q21 88 21 378zM856 1888q-37 -209 -182 -209q-28 0 -61 10l-89 27q-26 8 -46 8q-60 0 -84 -68h-82q35 203 188 203q28 0 47 -6l91 -29q31 -10 46 -10q67 0 90 74h82z" />
    <glyph glyph-name="Odieresis" unicode="&#xd6;" horiz-adv-x="1167" 
d="M1053 721q0 -417 -76 -549q-113 -197 -393 -197q-227 0 -348 134q-86 96 -110 301q-11 91 -11 327q0 435 75 566q111 194 394 194q231 0 348 -133q86 -98 110 -309q11 -94 11 -334zM854 737q0 290 -21 377q-53 217 -251 217q-138 0 -201 -96q-51 -77 -64 -243
q-4 -57 -4 -255q0 -357 41 -450q64 -146 228 -146q197 0 251 218q21 88 21 378zM658 1669v209h182v-209h-182zM328 1669v209h182v-209h-182z" />
    <glyph glyph-name="multiply" unicode="&#xd7;" horiz-adv-x="1706" 
d="M858 692l475 477l82 -82l-475 -477l475 -475l-82 -82l-475 475l-477 -475l-80 82l475 475l-475 477l80 82z" />
    <glyph glyph-name="Oslash" unicode="&#xd8;" horiz-adv-x="1167" 
d="M39 -39l143 223q-67 105 -67 570q0 421 75 549q113 194 394 194q235 0 358 -141l121 174l70 -53l-138 -213q56 -90 56 -486v-104q0 -371 -74 -502q-111 -197 -393 -197q-223 0 -348 131l-130 -192zM860 1057l-510 -776q67 -140 238 -140q204 0 260 214q24 91 24 382
q0 168 -12 320zM320 396l509 786q-41 149 -241 149q-204 0 -260 -213q-23 -90 -23 -381q0 -195 15 -341z" />
    <glyph glyph-name="Ugrave" unicode="&#xd9;" horiz-adv-x="1186" 
d="M319 1475v-953q0 -193 43 -264q73 -121 230 -121q159 0 231 121q41 69 41 262v955h187v-924q0 -282 -87 -414q-107 -162 -372 -162q-251 0 -371 166q-86 119 -86 400v934h184zM737 1609h-120l-285 348h201z" />
    <glyph glyph-name="Uacute" unicode="&#xda;" horiz-adv-x="1186" 
d="M319 1475v-953q0 -193 43 -264q73 -121 230 -121q159 0 231 121q41 69 41 262v955h187v-924q0 -282 -87 -414q-107 -162 -372 -162q-251 0 -371 166q-86 119 -86 400v934h184zM451 1609l204 348h201l-285 -348h-120z" />
    <glyph glyph-name="Ucircumflex" unicode="&#xdb;" horiz-adv-x="1186" 
d="M319 1475v-953q0 -193 43 -264q73 -121 230 -121q159 0 231 121q41 69 41 262v955h187v-924q0 -282 -87 -414q-107 -162 -372 -162q-251 0 -371 166q-86 119 -86 400v934h184zM299 1609l197 348h196l197 -348h-123l-172 230l-174 -230h-121z" />
    <glyph glyph-name="Udieresis" unicode="&#xdc;" horiz-adv-x="1186" 
d="M319 1475v-953q0 -193 43 -264q73 -121 230 -121q159 0 231 121q41 69 41 262v955h187v-924q0 -282 -87 -414q-107 -162 -372 -162q-251 0 -371 166q-86 119 -86 400v934h184zM668 1669v209h182v-209h-182zM338 1669v209h182v-209h-182z" />
    <glyph glyph-name="Yacute" unicode="&#xdd;" horiz-adv-x="465" 
d="M133 0v1475h199v-1475h-199zM137 1663v221h192v-221h-192z" />
    <glyph glyph-name="Thorn" unicode="&#xde;" horiz-adv-x="1079" 
d="M78 426h213v-27q0 -270 219 -270q104 0 174 60q74 63 74 165q0 126 -274 298q-25 15 -60 38q-172 110 -231 173q-99 108 -99 259q0 179 132 282q120 95 304 95q412 0 412 -387v-37h-203v31q0 240 -217 240q-94 0 -159 -53q-70 -56 -70 -148q0 -142 294 -330l83 -53
q144 -94 198 -154q88 -97 88 -225q0 -203 -126 -309q-117 -99 -324 -99q-430 0 -430 406q0 8 1 22.5t1 22.5zM287 -426v100q171 -39 248 -39q119 0 119 82q0 86 -131 86q-9 0 -27 -1h-27v198h76v-102h29q223 0 223 -181q0 -188 -250 -188q-105 0 -260 45z" />
    <glyph glyph-name="germandbls" unicode="&#xdf;" horiz-adv-x="1067" 
d="M113 0v1063q0 249 75 326q106 108 330 108q156 0 253 -61q116 -72 116 -219q0 -115 -96 -232q-16 -19 -52 -57q-63 -66 -63 -99q0 -53 131 -172q18 -16 63 -59q142 -135 142 -287q0 -149 -86.5 -236t-235.5 -87q-307 0 -307 260v18h176q4 -143 121 -143q74 0 116 49
q40 46 40 121q0 70 -51 136q-28 36 -106 104q-3 3 -13 12q-187 167 -187 254q0 60 115 200q6 8 23 28q79 94 79 171q0 158 -190 158q-114 0 -166 -53q-43 -44 -43 -158v-1145h-184z" />
    <glyph glyph-name="agrave" unicode="&#xe0;" horiz-adv-x="920" 
d="M285 760h-189v20q0 273 365 273q346 0 346 -299v-480q0 -142 18 -274h-176l-12 129q-108 -139 -266 -139q-136 0 -217 91q-78 87 -78 224q0 357 456 357h99v51q0 107 -26 152q-35 61 -132 61q-188 0 -188 -156v-10zM633 539q-174 0 -251 -28q-130 -48 -130 -189
q0 -74 44 -124q45 -53 118 -53q219 0 219 314v80zM624 1163h-120l-285 348h201z" />
    <glyph glyph-name="aacute" unicode="&#xe1;" horiz-adv-x="920" 
d="M285 760h-189v20q0 273 365 273q346 0 346 -299v-480q0 -142 18 -274h-176l-12 129q-108 -139 -266 -139q-136 0 -217 91q-78 87 -78 224q0 357 456 357h99v51q0 107 -26 152q-35 61 -132 61q-188 0 -188 -156v-10zM633 539q-174 0 -251 -28q-130 -48 -130 -189
q0 -74 44 -124q45 -53 118 -53q219 0 219 314v80zM338 1163l204 348h201l-285 -348h-120z" />
    <glyph glyph-name="acircumflex" unicode="&#xe2;" horiz-adv-x="920" 
d="M285 760h-189v20q0 273 365 273q346 0 346 -299v-480q0 -142 18 -274h-176l-12 129q-108 -139 -266 -139q-136 0 -217 91q-78 87 -78 224q0 357 456 357h99v51q0 107 -26 152q-35 61 -132 61q-188 0 -188 -156v-10zM633 539q-174 0 -251 -28q-130 -48 -130 -189
q0 -74 44 -124q45 -53 118 -53q219 0 219 314v80zM186 1163l197 348h196l197 -348h-123l-172 230l-174 -230h-121z" />
    <glyph glyph-name="atilde" unicode="&#xe3;" horiz-adv-x="920" 
d="M285 760h-189v20q0 273 365 273q346 0 346 -299v-480q0 -142 18 -274h-176l-12 129q-108 -139 -266 -139q-136 0 -217 91q-78 87 -78 224q0 357 456 357h99v51q0 107 -26 152q-35 61 -132 61q-188 0 -188 -156v-10zM633 539q-174 0 -251 -28q-130 -48 -130 -189
q0 -74 44 -124q45 -53 118 -53q219 0 219 314v80zM753 1442q-37 -209 -182 -209q-28 0 -61 10l-89 27q-26 8 -46 8q-60 0 -84 -68h-82q35 203 188 203q28 0 47 -6l91 -29q31 -10 46 -10q67 0 90 74h82z" />
    <glyph glyph-name="adieresis" unicode="&#xe4;" horiz-adv-x="920" 
d="M285 760h-189v20q0 273 365 273q346 0 346 -299v-480q0 -142 18 -274h-176l-12 129q-108 -139 -266 -139q-136 0 -217 91q-78 87 -78 224q0 357 456 357h99v51q0 107 -26 152q-35 61 -132 61q-188 0 -188 -156v-10zM633 539q-174 0 -251 -28q-130 -48 -130 -189
q0 -74 44 -124q45 -53 118 -53q219 0 219 314v80zM555 1223v209h182v-209h-182zM225 1223v209h182v-209h-182z" />
    <glyph glyph-name="aring" unicode="&#xe5;" horiz-adv-x="920" 
d="M354 1335q0 -50 35.5 -85.5t85.5 -35.5q51 0 87 35t36 86q0 52 -35.5 87.5t-87.5 35.5t-86.5 -35.5t-34.5 -87.5zM252 1337q0 95 64 159.5t159 64.5q96 0 160.5 -64t64.5 -160t-64.5 -160.5t-160.5 -64.5q-95 0 -159 65t-64 160zM633 539q-174 0 -252 -28
q-131 -48 -131 -189q0 -74 45.5 -125.5t118.5 -51.5q219 0 219 314v80zM285 760h-189v20q0 273 365 273q346 0 346 -299v-480q0 -142 18 -274h-176l-12 129q-108 -139 -266 -139q-136 0 -217 91q-78 87 -78 224q0 357 456 357h99v51q0 107 -26 152q-35 61 -132 61
q-188 0 -188 -156v-10z" />
    <glyph glyph-name="ae" unicode="&#xe6;" horiz-adv-x="1470" 
d="M819 662h398v63q0 207 -195 207q-94 0 -148.5 -58t-54.5 -153v-59zM643 539q-173 0 -251 -29q-130 -47 -130 -188q0 -75 40 -124q43 -53 116 -53q225 0 225 314v80zM641 662v51q0 108 -26 153q-34 60 -132 60q-190 0 -190 -156v-10h-191q0 3 1 10t1 10q0 273 367 273
q208 0 287 -113q71 111 264 111q369 0 369 -418v-94h-572v-125q0 -136 34 -200q47 -89 169 -89q166 0 195 197h174q-8 -165 -106 -256t-263 -91q-249 0 -336 191q-109 -176 -301 -176q-139 0 -220 86t-81 225q0 361 459 361h98z" />
    <glyph glyph-name="ccedilla" unicode="&#xe7;" horiz-adv-x="924" 
d="M668 348h177q-3 -175 -98 -273q-98 -100 -272 -100q-227 0 -317 164q-68 123 -68 373t68 374q90 165 317 165q155 0 256 -80q109 -87 109 -238v-22h-174q0 190 -181 190q-140 0 -188 -135q-27 -78 -27 -254q0 -169 26 -249q46 -138 179 -138q92 0 144 67q46 61 49 156z
M217 -426v100q171 -39 248 -39q119 0 119 82q0 86 -131 86q-9 0 -27 -1h-27v198h76v-102h29q223 0 223 -181q0 -188 -250 -188q-105 0 -260 45z" />
    <glyph glyph-name="egrave" unicode="&#xe8;" horiz-adv-x="924" 
d="M273 606h397v88q0 236 -189 236q-202 0 -208 -324zM844 322q-8 -165 -106 -256t-263 -91q-232 0 -320 167q-65 122 -65 380q0 245 70 368q91 161 315 161q200 0 289 -111q80 -101 80 -307v-160h-572v-59q0 -289 203 -289q166 0 193 197h176zM622 1163h-120l-285 348h201z
" />
    <glyph glyph-name="eacute" unicode="&#xe9;" horiz-adv-x="924" 
d="M273 606h397v88q0 236 -189 236q-202 0 -208 -324zM844 322q-8 -165 -106 -256t-263 -91q-232 0 -320 167q-65 122 -65 380q0 245 70 368q91 161 315 161q200 0 289 -111q80 -101 80 -307v-160h-572v-59q0 -289 203 -289q166 0 193 197h176zM336 1163l204 348h201
l-285 -348h-120z" />
    <glyph glyph-name="ecircumflex" unicode="&#xea;" horiz-adv-x="924" 
d="M273 606h397v88q0 236 -189 236q-202 0 -208 -324zM844 322q-8 -165 -106 -256t-263 -91q-232 0 -320 167q-65 122 -65 380q0 245 70 368q91 161 315 161q200 0 289 -111q80 -101 80 -307v-160h-572v-59q0 -289 203 -289q166 0 193 197h176zM184 1163l197 348h196
l197 -348h-123l-172 230l-174 -230h-121z" />
    <glyph glyph-name="edieresis" unicode="&#xeb;" horiz-adv-x="924" 
d="M273 606h397v88q0 236 -189 236q-202 0 -208 -324zM844 322q-8 -165 -106 -256t-263 -91q-232 0 -320 167q-65 122 -65 380q0 245 70 368q91 161 315 161q200 0 289 -111q80 -101 80 -307v-160h-572v-59q0 -289 203 -289q166 0 193 197h176zM553 1223v209h182v-209h-182z
M223 1223v209h182v-209h-182z" />
    <glyph glyph-name="igrave" unicode="&#xec;" horiz-adv-x="428" 
d="M129 0v1028h170v-1028h-170zM358 1163h-120l-285 348h201z" />
    <glyph glyph-name="iacute" unicode="&#xed;" horiz-adv-x="428" 
d="M129 0v1028h170v-1028h-170zM72 1163l204 348h201l-285 -348h-120z" />
    <glyph glyph-name="icircumflex" unicode="&#xee;" horiz-adv-x="428" 
d="M129 0v1028h170v-1028h-170zM-80 1163l197 348h196l197 -348h-123l-172 230l-174 -230h-121z" />
    <glyph glyph-name="idieresis" unicode="&#xef;" horiz-adv-x="428" 
d="M129 0v1028h170v-1028h-170zM289 1223v209h182v-209h-182zM-41 1223v209h182v-209h-182z" />
    <glyph glyph-name="eth" unicode="&#xf0;" horiz-adv-x="967" 
d="M268 518q0 -165 26 -249q45 -144 173 -144q215 0 215 393q0 173 -27 259q-47 147 -182 147q-137 0 -181 -146q-24 -79 -24 -260zM150 -115h200q2 -69 41 -111t107 -42q109 0 147 67q29 50 29 170v148q-107 -142 -246 -142q-206 0 -287 186q-55 128 -55 367q0 527 340 527
q153 0 248 -125l10 98h178q-10 -70 -10 -182v-901q0 -163 -59 -238q-85 -108 -297 -108q-151 0 -240 67q-100 74 -106 219zM213 1476l102 1q24 -140 168 -140q145 0 168 140l102 -1q-17 -278 -270 -278t-270 278z" />
    <glyph glyph-name="ntilde" unicode="&#xf1;" horiz-adv-x="948" 
d="M661 0v657q0 126 -24 180q-38 81 -146 81q-201 0 -201 -324v-594h-176v866q0 64 -10 162h180l8 -119q104 144 272 144q128 0 201.5 -74.5t73.5 -202.5v-776h-178zM747 1442q-37 -209 -182 -209q-28 0 -61 10l-89 27q-26 8 -46 8q-60 0 -84 -68h-82q35 203 188 203
q28 0 47 -6l91 -29q31 -10 46 -10q67 0 90 74h82z" />
    <glyph glyph-name="ograve" unicode="&#xf2;" horiz-adv-x="950" 
d="M88 516q0 247 70 372q91 163 317 163q227 0 317 -164q68 -123 68 -373q0 -249 -68 -374q-91 -165 -317 -165q-228 0 -319 165q-68 125 -68 376zM475 901q-132 0 -179 -138q-28 -83 -28 -249q0 -169 27 -250q46 -139 180 -139q132 0 178 138q27 81 27 249q0 170 -26 250
q-46 139 -179 139zM618 1163h-120l-285 348h201z" />
    <glyph glyph-name="oacute" unicode="&#xf3;" horiz-adv-x="950" 
d="M88 516q0 247 70 372q91 163 317 163q227 0 317 -164q68 -123 68 -373q0 -249 -68 -374q-91 -165 -317 -165q-228 0 -319 165q-68 125 -68 376zM475 901q-132 0 -179 -138q-28 -83 -28 -249q0 -169 27 -250q46 -139 180 -139q132 0 178 138q27 81 27 249q0 170 -26 250
q-46 139 -179 139zM332 1163l204 348h201l-285 -348h-120z" />
    <glyph glyph-name="ocircumflex" unicode="&#xf4;" horiz-adv-x="950" 
d="M88 516q0 247 70 372q91 163 317 163q227 0 317 -164q68 -123 68 -373q0 -249 -68 -374q-91 -165 -317 -165q-228 0 -319 165q-68 125 -68 376zM475 901q-132 0 -179 -138q-28 -83 -28 -249q0 -169 27 -250q46 -139 180 -139q132 0 178 138q27 81 27 249q0 170 -26 250
q-46 139 -179 139zM180 1163l197 348h196l197 -348h-123l-172 230l-174 -230h-121z" />
    <glyph glyph-name="otilde" unicode="&#xf5;" horiz-adv-x="950" 
d="M88 516q0 247 70 372q91 163 317 163q227 0 317 -164q68 -123 68 -373q0 -249 -68 -374q-91 -165 -317 -165q-228 0 -319 165q-68 125 -68 376zM475 901q-132 0 -179 -138q-28 -83 -28 -249q0 -169 27 -250q46 -139 180 -139q132 0 178 138q27 81 27 249q0 170 -26 250
q-46 139 -179 139zM747 1442q-37 -209 -182 -209q-28 0 -61 10l-89 27q-26 8 -46 8q-60 0 -84 -68h-82q35 203 188 203q28 0 47 -6l91 -29q31 -10 46 -10q67 0 90 74h82z" />
    <glyph glyph-name="odieresis" unicode="&#xf6;" horiz-adv-x="950" 
d="M88 516q0 247 70 372q91 163 317 163q227 0 317 -164q68 -123 68 -373q0 -249 -68 -374q-91 -165 -317 -165q-228 0 -319 165q-68 125 -68 376zM475 901q-132 0 -179 -138q-28 -83 -28 -249q0 -169 27 -250q46 -139 180 -139q132 0 178 138q27 81 27 249q0 170 -26 250
q-46 139 -179 139zM549 1223v209h182v-209h-182zM219 1223v209h182v-209h-182z" />
    <glyph glyph-name="divide" unicode="&#xf7;" horiz-adv-x="1706" 
d="M854 365q47 0 81 -34t34 -81q0 -48 -33.5 -81.5t-81.5 -33.5t-81.5 33.5t-33.5 81.5t33.5 81.5t81.5 33.5zM1452 670v-117h-1198v117h1198zM854 1085q48 0 81.5 -33t33.5 -81t-33.5 -81.5t-81.5 -33.5q-49 0 -82 33t-33 82q0 47 34 80.5t81 33.5z" />
    <glyph glyph-name="oslash" unicode="&#xf8;" horiz-adv-x="950" 
d="M295 264l350 535q-35 104 -166 104q-154 0 -194 -176q-15 -64 -15 -299q0 -108 25 -164zM92 -45l94 141q-96 112 -96 416q0 257 69 379q92 160 326 160q180 0 260 -99l74 111l62 -45l-88 -127q67 -124 67 -381q0 -253 -70 -375q-92 -160 -323 -160q-133 0 -227 64
l-86 -131zM338 190q48 -65 137 -65q133 0 179 142q26 81 26 253q0 80 -12 178z" />
    <glyph glyph-name="ugrave" unicode="&#xf9;" horiz-adv-x="948" 
d="M285 1028v-655q0 -126 24 -179q37 -81 146 -81q200 0 200 321v594h176v-866q0 -42 10 -162h-179l-9 121q-105 -146 -272 -146q-128 0 -201.5 74.5t-73.5 202.5v776h179zM618 1163h-120l-285 348h201z" />
    <glyph glyph-name="uacute" unicode="&#xfa;" horiz-adv-x="948" 
d="M285 1028v-655q0 -126 24 -179q37 -81 146 -81q200 0 200 321v594h176v-866q0 -42 10 -162h-179l-9 121q-105 -146 -272 -146q-128 0 -201.5 74.5t-73.5 202.5v776h179zM332 1163l204 348h201l-285 -348h-120z" />
    <glyph glyph-name="ucircumflex" unicode="&#xfb;" horiz-adv-x="948" 
d="M285 1028v-655q0 -126 24 -179q37 -81 146 -81q200 0 200 321v594h176v-866q0 -42 10 -162h-179l-9 121q-105 -146 -272 -146q-128 0 -201.5 74.5t-73.5 202.5v776h179zM180 1163l197 348h196l197 -348h-123l-172 230l-174 -230h-121z" />
    <glyph glyph-name="udieresis" unicode="&#xfc;" horiz-adv-x="948" 
d="M285 1028v-655q0 -126 24 -179q37 -81 146 -81q200 0 200 321v594h176v-866q0 -42 10 -162h-179l-9 121q-105 -146 -272 -146q-128 0 -201.5 74.5t-73.5 202.5v776h179zM549 1223v209h182v-209h-182zM219 1223v209h182v-209h-182z" />
    <glyph glyph-name="yacute" unicode="&#xfd;" horiz-adv-x="428" 
d="M129 0v1028h170v-1028h-170z" />
    <glyph glyph-name="thorn" unicode="&#xfe;" horiz-adv-x="877" 
d="M76 313h192q6 -192 174 -192q70 0 116 33q52 37 52 104q0 88 -149 164l-187 96q-184 94 -184 242q0 143 110 223q98 72 246 72q144 0 234 -64q104 -73 104 -211v-18h-188q0 162 -166 162q-63 0 -107 -32q-49 -36 -49 -97q0 -73 105 -125l170 -84q123 -61 175 -112
q77 -76 77 -185q0 -152 -109 -237q-100 -77 -256 -77q-358 0 -360 338zM184 -426v100q171 -39 248 -39q119 0 119 82q0 86 -131 86q-9 0 -27 -1h-27v198h76v-102h29q223 0 223 -181q0 -188 -250 -188q-105 0 -260 45z" />
    <glyph glyph-name="ydieresis" unicode="&#xff;" horiz-adv-x="930" 
d="M434 -389h-174l113 389l-353 1028h207l246 -813l244 813h190zM539 1223v209h182v-209h-182zM209 1223v209h182v-209h-182z" />
    <glyph glyph-name="Cacute" unicode="&#x106;" horiz-adv-x="1098" 
d="M989 455v-33q0 -205 -106 -323q-111 -122 -314 -122q-198 0 -307 101q-106 98 -138 327q-15 110 -15 365q0 400 94 553q105 170 364 170q412 0 412 -440h-207v22q0 262 -211 262q-136 0 -199 -102q-43 -69 -54 -265q-3 -58 -3 -272q0 -261 23 -354q52 -209 233 -209
q223 0 223 303v17h205zM426 1609l204 348h201l-285 -348h-120z" />
    <glyph glyph-name="cacute" unicode="&#x107;" horiz-adv-x="924" 
d="M668 348h177q-3 -175 -98 -273q-98 -100 -272 -100q-227 0 -317 164q-68 123 -68 373t68 374q90 165 317 165q155 0 256 -80q109 -87 109 -238v-22h-174q0 190 -181 190q-140 0 -188 -135q-27 -78 -27 -254q0 -169 26 -249q46 -138 179 -138q92 0 144 67q46 61 49 156z
M338 1163l204 348h201l-285 -348h-120z" />
    <glyph glyph-name="Ccaron" unicode="&#x10c;" horiz-adv-x="1098" 
d="M989 455v-33q0 -205 -106 -323q-111 -122 -314 -122q-198 0 -307 101q-106 98 -138 327q-15 110 -15 365q0 400 94 553q105 170 364 170q412 0 412 -440h-207v22q0 262 -211 262q-136 0 -199 -102q-43 -69 -54 -265q-3 -58 -3 -272q0 -261 23 -354q52 -209 233 -209
q223 0 223 303v17h205zM274 1957h121l174 -227l172 227h123l-197 -348h-196z" />
    <glyph glyph-name="ccaron" unicode="&#x10d;" horiz-adv-x="924" 
d="M668 348h177q-3 -175 -98 -273q-98 -100 -272 -100q-227 0 -317 164q-68 123 -68 373t68 374q90 165 317 165q155 0 256 -80q109 -87 109 -238v-22h-174q0 190 -181 190q-140 0 -188 -135q-27 -78 -27 -254q0 -169 26 -249q46 -138 179 -138q92 0 144 67q46 61 49 156z
M186 1511h121l174 -227l172 227h123l-197 -348h-196z" />
    <glyph glyph-name="dcroat" unicode="&#x111;" horiz-adv-x="975" 
d="M668 915v261h-262v122h262v177h178v-177h131v-122h-131v-992q0 -108 8 -182h-174l-10 100q-96 -125 -246 -125q-202 0 -282 173q-56 122 -56 352q0 553 336 553q155 0 246 -140zM461 905q-195 0 -195 -387q0 -183 23 -261q44 -148 182 -148q197 0 197 403q0 169 -27 252
q-47 141 -180 141z" />
    <glyph glyph-name="Gbreve" unicode="&#x11e;" horiz-adv-x="1163" 
d="M830 1073q-4 266 -244 266q-203 0 -258 -215q-23 -90 -23 -383q0 -285 30 -388q62 -212 273 -212q87 0 234 29v436h-205v170h397v-739q-262 -62 -428 -62q-254 0 -368 125q-90 99 -119 318q-15 117 -15 346q0 403 99 559q110 174 389 174q206 0 320 -106
q118 -110 118 -314v-4h-200zM312 1922l102 1q24 -140 168 -140q145 0 168 140l102 -1q-17 -278 -270 -278t-270 278z" />
    <glyph glyph-name="gbreve" unicode="&#x11f;" horiz-adv-x="967" 
d="M268 518q0 -165 26 -249q45 -144 173 -144q215 0 215 393q0 173 -27 259q-47 147 -182 147q-137 0 -181 -146q-24 -79 -24 -260zM150 -115h200q2 -69 41 -111t107 -42q109 0 147 67q29 50 29 170v148q-107 -142 -246 -142q-206 0 -287 186q-55 128 -55 367q0 527 340 527
q153 0 248 -125l10 98h178q-10 -70 -10 -182v-901q0 -163 -59 -238q-85 -108 -297 -108q-151 0 -240 67q-100 74 -106 219zM213 1476l102 1q24 -140 168 -140q145 0 168 140l102 -1q-17 -278 -270 -278t-270 278z" />
    <glyph glyph-name="Idotaccent" unicode="&#x130;" horiz-adv-x="465" 
d="M133 0v1475h199v-1475h-199zM137 1663v221h192v-221h-192z" />
    <glyph glyph-name="dotlessi" unicode="&#x131;" horiz-adv-x="428" 
d="M129 0v1028h170v-1028h-170z" />
    <glyph glyph-name="Lslash" unicode="&#x141;" horiz-adv-x="883" 
d="M147 0v627l-159 -115v162l159 112v689h195v-592l246 172v-160l-246 -172v-553h504v-170h-699z" />
    <glyph glyph-name="lslash" unicode="&#x142;" horiz-adv-x="428" 
d="M301 848l127 88v-135l-127 -86v-715h-176v643l-125 -88v135l125 86v699h176v-627z" />
    <glyph glyph-name="OE" unicode="&#x152;" horiz-adv-x="1632" 
d="M1554 1475v-162h-540v-473h540v-166h-540v-512h540v-162h-823q-18 0 -54 -1t-54 -1q-278 0 -396 129q-84 92 -107 292q-11 89 -11 318t11 317q23 199 107 292q118 131 402 131q17 0 51 -1t51 -1h823zM573 1313q-147 0 -213 -97q-52 -76 -61 -225q0 3 0 -254
q0 -280 23 -369q54 -206 251 -206h246v1151h-246z" />
    <glyph glyph-name="oe" unicode="&#x153;" horiz-adv-x="1509" 
d="M766 115q-91 -140 -291 -140q-227 0 -317 164q-68 123 -68 373t68 374q90 165 317 165q208 0 293 -138q97 138 289 138q201 0 291 -111q82 -100 82 -307v-160h-572v-70q0 -278 203 -278q167 0 192 197h177q-8 -165 -106 -256t-263 -91q-209 0 -295 140zM1255 694
q0 238 -196 238q-201 0 -201 -238v-88h397v88zM475 901q-132 0 -178 -139q-27 -81 -27 -248q0 -170 26 -250q46 -139 179 -139q134 0 179 138q26 79 26 249q0 168 -27 249q-46 140 -178 140z" />
    <glyph glyph-name="Scedilla" unicode="&#x15e;" horiz-adv-x="1079" 
d="M78 426h213v-27q0 -270 219 -270q104 0 174 60q74 63 74 165q0 126 -274 298q-25 15 -60 38q-172 110 -231 173q-99 108 -99 259q0 179 132 282q120 95 304 95q412 0 412 -387v-37h-203v31q0 240 -217 240q-94 0 -159 -53q-70 -56 -70 -148q0 -142 294 -330l83 -53
q144 -94 198 -154q88 -97 88 -225q0 -203 -126 -309q-117 -99 -324 -99q-430 0 -430 406q0 8 1 22.5t1 22.5zM287 -426v100q171 -39 248 -39q119 0 119 82q0 86 -131 86q-9 0 -27 -1h-27v198h76v-102h29q223 0 223 -181q0 -188 -250 -188q-105 0 -260 45z" />
    <glyph glyph-name="scedilla" unicode="&#x15f;" horiz-adv-x="877" 
d="M76 313h192q6 -192 174 -192q70 0 116 33q52 37 52 104q0 88 -149 164l-187 96q-184 94 -184 242q0 143 110 223q98 72 246 72q144 0 234 -64q104 -73 104 -211v-18h-188q0 162 -166 162q-63 0 -107 -32q-49 -36 -49 -97q0 -73 105 -125l170 -84q123 -61 175 -112
q77 -76 77 -185q0 -152 -109 -237q-100 -77 -256 -77q-358 0 -360 338zM184 -426v100q171 -39 248 -39q119 0 119 82q0 86 -131 86q-9 0 -27 -1h-27v198h76v-102h29q223 0 223 -181q0 -188 -250 -188q-105 0 -260 45z" />
    <glyph glyph-name="Scaron" unicode="&#x160;" horiz-adv-x="1079" 
d="M78 426h213v-27q0 -270 219 -270q104 0 174 60q74 63 74 165q0 126 -274 298q-25 15 -60 38q-172 110 -231 173q-99 108 -99 259q0 179 132 282q120 95 304 95q412 0 412 -387v-37h-203v31q0 240 -217 240q-94 0 -159 -53q-70 -56 -70 -148q0 -142 294 -330l83 -53
q144 -94 198 -154q88 -97 88 -225q0 -203 -126 -309q-117 -99 -324 -99q-430 0 -430 406q0 8 1 22.5t1 22.5zM246 1957h121l174 -227l172 227h123l-197 -348h-196z" />
    <glyph glyph-name="scaron" unicode="&#x161;" horiz-adv-x="877" 
d="M76 313h192q6 -192 174 -192q70 0 116 33q52 37 52 104q0 88 -149 164l-187 96q-184 94 -184 242q0 143 110 223q98 72 246 72q144 0 234 -64q104 -73 104 -211v-18h-188q0 162 -166 162q-63 0 -107 -32q-49 -36 -49 -97q0 -73 105 -125l170 -84q123 -61 175 -112
q77 -76 77 -185q0 -152 -109 -237q-100 -77 -256 -77q-358 0 -360 338zM143 1511h121l174 -227l172 227h123l-197 -348h-196z" />
    <glyph glyph-name="Ydieresis" unicode="&#x178;" horiz-adv-x="977" 
d="M377 0v618l-387 857h223l281 -695l294 695h197l-410 -875v-600h-198zM563 1669v209h182v-209h-182zM233 1669v209h182v-209h-182z" />
    <glyph glyph-name="Zcaron" unicode="&#x17d;" horiz-adv-x="930" 
d="M35 0v201l672 1112h-627v162h829v-185l-676 -1120h676v-170h-874zM170 1957h121l174 -227l172 227h123l-197 -348h-196z" />
    <glyph glyph-name="zcaron" unicode="&#x17e;" horiz-adv-x="696" 
d="M25 0v164l450 731h-424v133h623v-133l-469 -758h469v-137h-649zM53 1511h121l174 -227l172 227h123l-197 -348h-196z" />
    <glyph glyph-name="florin" unicode="&#x192;" horiz-adv-x="981" 
d="M449 1028q40 182 75 259q40 89 94 124q60 39 201 39q47 0 73 -2l-28 -137h-5q-32 4 -46 4q-126 0 -184 -264v-2l-41 -197h178l-25 -121h-178l-147 -688q-58 -273 -135 -356q-61 -66 -226 -66q-39 0 -73 2l28 137q4 0 11 -1q24 -3 36 -3q92 0 134 93q16 34 45 174l149 708
h-168l25 121h168z" />
    <glyph glyph-name="circumflex" unicode="&#x2c6;" 
d="M217 1163l197 348h196l197 -348h-123l-172 230l-174 -230h-121z" />
    <glyph glyph-name="caron" unicode="&#x2c7;" 
d="M217 1511h121l174 -227l172 227h123l-197 -348h-196z" />
    <glyph glyph-name="macron" unicode="&#xaf;" 
d="M264 1262v133h498v-133h-498z" />
    <glyph glyph-name="macron" unicode="&#x2c9;" 
d="M264 1262v133h498v-133h-498z" />
    <glyph glyph-name="breve" unicode="&#x2d8;" 
d="M242 1476l102 1q24 -140 168 -140q145 0 168 140l102 -1q-17 -278 -270 -278t-270 278z" />
    <glyph glyph-name="dotaccent" unicode="&#x2d9;" 
d="M416 1217v221h192v-221h-192z" />
    <glyph glyph-name="ring" unicode="&#x2da;" 
d="M377 1397q0 -57 39 -96t96 -39q56 0 96.5 39.5t40.5 95.5q0 55 -41 96t-96 41q-57 0 -96 -40t-39 -97zM260 1397q0 107 72.5 180.5t179.5 73.5t180.5 -73.5t73.5 -180.5t-73.5 -179.5t-180.5 -72.5t-179.5 72.5t-72.5 179.5z" />
    <glyph glyph-name="ogonek" unicode="&#x2db;" 
d="M594 0q-137 -122 -137 -221q0 -78 96 -78h84v-143h-86q-225 0 -225 168q0 126 186 274h82z" />
    <glyph glyph-name="tilde" unicode="&#x2dc;" 
d="M784 1442q-37 -209 -182 -209q-28 0 -61 10l-89 27q-26 8 -46 8q-60 0 -84 -68h-82q35 203 188 203q28 0 47 -6l91 -29q31 -10 46 -10q67 0 90 74h82z" />
    <glyph glyph-name="hungarumlaut" unicode="&#x2dd;" 
d="M569 1163l166 348h176l-245 -348h-97zM311 1163l138 348h178l-219 -348h-97z" />
    <glyph glyph-name="Delta" unicode="&#x394;" horiz-adv-x="1356" 
d="M1122 158l-444 1138l-445 -1138h889zM780 1473l586 -1473h-1374l586 1473h202z" />
    <glyph glyph-name="Delta" unicode="&#x2206;" horiz-adv-x="1356" 
d="M1122 158l-444 1138l-445 -1138h889zM780 1473l586 -1473h-1374l586 1473h202z" />
    <glyph glyph-name="Omega" unicode="&#x3a9;" horiz-adv-x="1573" 
d="M1473 156v-156h-590v150q399 229 399 653q0 239 -126 393q-136 166 -370 166q-233 0 -369 -166q-128 -155 -128 -393q0 -425 401 -653v-150h-590v156h332q-321 260 -321 620q0 317 177 521q186 216 498 216t498 -213q178 -203 178 -520q0 -364 -321 -624h332z" />
    <glyph glyph-name="Omega" unicode="&#x2126;" horiz-adv-x="1573" 
d="M1473 156v-156h-590v150q399 229 399 653q0 239 -126 393q-136 166 -370 166q-233 0 -369 -166q-128 -155 -128 -393q0 -425 401 -653v-150h-590v156h332q-321 260 -321 620q0 317 177 521q186 216 498 216t498 -213q178 -203 178 -520q0 -364 -321 -624h332z" />
    <glyph glyph-name="mu" unicode="&#xb5;" horiz-adv-x="1128" 
d="M362 1069l-126 -595q-15 -71 -15 -138q0 -227 217 -227q246 0 336 409l121 551h156l-162 -754q-23 -107 -23 -135q0 -65 72 -65q17 0 35 2l-27 -125q-42 -10 -92 -10q-134 0 -145 147q-86 -147 -289 -147q-175 0 -262 137l-113 -545h-156l316 1495h157z" />
    <glyph glyph-name="mu" unicode="&#x3bc;" horiz-adv-x="1128" 
d="M362 1069l-126 -595q-15 -71 -15 -138q0 -227 217 -227q246 0 336 409l121 551h156l-162 -754q-23 -107 -23 -135q0 -65 72 -65q17 0 35 2l-27 -125q-42 -10 -92 -10q-134 0 -145 147q-86 -147 -289 -147q-175 0 -262 137l-113 -545h-156l316 1495h157z" />
    <glyph glyph-name="pi" unicode="&#x3c0;" horiz-adv-x="1186" 
d="M1139 930h-185l-110 -516q-29 -136 -29 -189q0 -106 105 -106q44 0 98 10l-29 -129l-5 -1q-75 -15 -99 -15q-226 0 -226 202q0 89 56 351l84 393h-348l-197 -930h-158l197 930h-39q-104 0 -125 -131h-145q26 152 94.5 211t222.5 59h866z" />
    <glyph glyph-name="endash" unicode="&#x2013;" 
d="M0 455v118h1024v-118h-1024z" />
    <glyph glyph-name="emdash" unicode="&#x2014;" horiz-adv-x="2048" 
d="M2048 573v-118h-2048v118h2048z" />
    <glyph glyph-name="quoteleft" unicode="&#x2018;" horiz-adv-x="426" 
d="M362 1475l-88 -402h-211l156 402h143z" />
    <glyph glyph-name="quoteright" unicode="&#x2019;" horiz-adv-x="426" 
d="M63 1073l89 402h210l-155 -402h-144z" />
    <glyph glyph-name="quotesinglbase" unicode="&#x201a;" horiz-adv-x="426" 
d="M16 -211l90 401h213l-157 -401h-146z" />
    <glyph glyph-name="quotedblleft" unicode="&#x201c;" horiz-adv-x="754" 
d="M696 1475l-90 -402h-215l158 402h147zM369 1475l-90 -402h-216l158 402h148z" />
    <glyph glyph-name="quotedblright" unicode="&#x201d;" horiz-adv-x="754" 
d="M63 1073l91 402h215l-158 -402h-148zM391 1073l88 402h217l-159 -402h-146z" />
    <glyph glyph-name="quotedblbase" unicode="&#x201e;" horiz-adv-x="754" 
d="M63 -211l91 401h215l-158 -401h-148zM391 -211l88 401h217l-159 -401h-146z" />
    <glyph glyph-name="dagger" unicode="&#x2020;" horiz-adv-x="981" 
d="M403 0v999h-282v158h282v318h166v-318h289v-158h-289v-999h-166z" />
    <glyph glyph-name="daggerdbl" unicode="&#x2021;" horiz-adv-x="981" 
d="M403 0v324h-282v137h282v559h-282v137h282v318h166v-318h289v-137h-289v-559h289v-137h-289v-324h-166z" />
    <glyph glyph-name="bullet" unicode="&#x2022;" horiz-adv-x="1208" 
d="M307 762q0 124 86.5 209.5t210.5 85.5q123 0 209 -86t86 -209t-87 -210t-210 -87q-124 0 -209.5 86.5t-85.5 210.5z" />
    <glyph glyph-name="ellipsis" unicode="&#x2026;" horiz-adv-x="2048" 
d="M243 0v227h195v-227h-195zM925 0v227h195v-227h-195zM1609 0v227h195v-227h-195z" />
    <glyph glyph-name="perthousand" unicode="&#x2030;" horiz-adv-x="1974" 
d="M1653 596q-129 0 -129 -244q0 -258 129 -258t129 258q0 244 -129 244zM1653 715q272 0 272 -383q0 -357 -272 -357q-273 0 -273 371q0 369 273 369zM293 -25l612 1475h119l-621 -1475h-110zM322 1331q-129 0 -129 -244q0 -258 129 -258t129 258q0 244 -129 244zM594 1067
q0 -356 -272 -356q-273 0 -273 370q0 369 273 369q272 0 272 -383zM993 715q273 0 273 -383q0 -357 -273 -357q-270 0 -270 371q0 369 270 369zM993 596q-129 0 -129 -244q0 -258 129 -258t129 258q0 244 -129 244z" />
    <glyph glyph-name="guilsinglleft" unicode="&#x2039;" horiz-adv-x="498" 
d="M420 119h-156l-186 393l186 397h156l-156 -397z" />
    <glyph glyph-name="guilsinglright" unicode="&#x203a;" horiz-adv-x="498" 
d="M78 119l155 393l-155 397h155l187 -397l-187 -393h-155z" />
    <glyph glyph-name="fraction" unicode="&#x2044;" horiz-adv-x="342" 
d="M-342 -25l903 1475h121l-903 -1475h-121z" />
    <glyph glyph-name="franc" unicode="&#x20a3;" horiz-adv-x="1526" 
d="M135 0v1475h709v-162h-514v-473h489v-166h-489v-674h-195zM1208 1030l17 -135q58 160 258 160q6 0 16.5 -1t16.5 -1v-181q-8 0 -22.5 1t-22.5 1q-134 0 -190 -58.5t-56 -192.5v-623h-176v856q0 14 -11 118l-6 56h176z" />
    <glyph glyph-name="trademark" unicode="&#x2122;" horiz-adv-x="1706" 
d="M948 1456l160 -405l149 405h132v-534h-82v458l-172 -458h-54l-180 458v-458h-82v534h129zM694 1456v-67h-172v-467h-94v467h-174v67h440z" />
    <glyph glyph-name="partialdiff" unicode="&#x2202;" horiz-adv-x="1044" 
d="M754 604q26 162 26 320q0 293 -151 293q-48 0 -117.5 -63.5t-108.5 -63.5q-30 0 -51.5 21.5t-21.5 51.5q0 71 84 115q70 37 147 37q198 0 298 -194q77 -152 77 -371q0 -273 -105 -494q-133 -281 -378 -281q-155 0 -249 114q-87 107 -87 265q0 176 98 304q106 139 277 139
q192 0 262 -193zM709 483q0 244 -172 244q-138 0 -206 -173q-50 -126 -50 -288q0 -239 172 -239q135 0 204 171q52 128 52 285z" />
    <glyph glyph-name="product" unicode="&#x220f;" horiz-adv-x="1528" 
d="M160 1473h1208v-1866h-201v1693h-809v-1693h-198v1866z" />
    <glyph glyph-name="summation" unicode="&#x2211;" horiz-adv-x="1346" 
d="M51 1473h1239v-166h-989l690 -744l-719 -792h1035v-164h-1289v139l738 813l-705 758v156z" />
    <glyph glyph-name="minus" unicode="&#x2212;" horiz-adv-x="1706" 
d="M1452 670v-119h-1198v119h1198z" />
    <glyph glyph-name="periodcentered" horiz-adv-x="492" 
d="M127 713q0 48 32.5 81t80.5 33q49 0 81.5 -32.5t32.5 -81.5t-32.5 -81t-81.5 -32t-81 32t-32 81z" />
    <glyph glyph-name="radical" unicode="&#x221a;" horiz-adv-x="1288" 
d="M1288 1647v-82h-119l-594 -1606h-53l-323 893l-119 -43l-23 68l262 92l265 -729l522 1407h182z" />
    <glyph glyph-name="infinity" unicode="&#x221e;" horiz-adv-x="1706" 
d="M905 559q101 -188 275 -188q106 0 172 74q63 71 63 178q0 101 -55 173q-60 78 -158 78q-102 0 -187 -113q-50 -65 -110 -202zM803 666q-102 190 -273 190q-108 0 -174 -74q-63 -70 -63 -180q0 -101 55 -172q60 -78 158 -78q104 0 188 111q47 63 109 203zM840 727
q131 270 321 270q146 0 236 -121q82 -109 82 -260q0 -153 -69 -259q-81 -124 -226 -124q-109 0 -194 82q-59 58 -124 179q-136 -265 -321 -265q-146 0 -236 121q-82 109 -82 260q0 154 70 260q81 123 227 123q185 0 316 -266z" />
    <glyph glyph-name="integral" unicode="&#x222b;" horiz-adv-x="1020" 
d="M301 -268q103 0 116 664l5 216q9 379 52 560q88 376 331 376q71 0 117 -35q51 -39 51 -108q0 -107 -113 -107q-117 0 -117 127q0 23 -20 23q-105 0 -119 -634l-6 -245q-8 -250 -19 -359q-22 -226 -75 -349q-100 -232 -291 -232q-67 0 -114 33q-52 38 -52 102
q0 115 115 115q43 0 77.5 -27t34.5 -69q0 -51 27 -51z" />
    <glyph glyph-name="approxequal" unicode="&#x2248;" horiz-adv-x="1706" 
d="M1530 453q-208 -146 -389 -146q-100 0 -289 69.5t-289 69.5q-154 0 -385 -159v131q211 145 387 145q102 0 296.5 -68.5t281.5 -68.5q160 0 387 158v-131zM1530 803q-205 -144 -387 -144q-100 0 -290 69t-290 69q-155 0 -385 -158v131q211 145 387 145q102 0 295.5 -68.5
t282.5 -68.5q162 0 387 156v-131z" />
    <glyph glyph-name="approxequal" unicode="&#x22f2;" horiz-adv-x="1706" 
d="M1530 453q-208 -146 -389 -146q-100 0 -289 69.5t-289 69.5q-154 0 -385 -159v131q211 145 387 145q102 0 296.5 -68.5t281.5 -68.5q160 0 387 158v-131zM1530 803q-205 -144 -387 -144q-100 0 -290 69t-290 69q-155 0 -385 -158v131q211 145 387 145q102 0 295.5 -68.5
t282.5 -68.5q162 0 387 156v-131z" />
    <glyph glyph-name="notequal" unicode="&#x2260;" horiz-adv-x="1706" 
d="M1298 1110l-196 -250h350v-115h-424l-211 -270h635v-115h-709l-251 -319l-89 70l197 249h-346v115h420l211 270h-631v115h704l252 320z" />
    <glyph glyph-name="lessequal" unicode="&#x2264;" horiz-adv-x="1706" 
d="M1444 150v-117h-1182v117h1182zM1444 1067l-977 -324l977 -323v-125l-1182 399v101l1182 397v-125z" />
    <glyph glyph-name="greaterequal" unicode="&#x2265;" horiz-adv-x="1706" 
d="M1444 150v-117h-1182v117h1182zM1444 795v-101l-1182 -399v125l979 323l-979 324v125z" />
    <glyph glyph-name="lozenge" unicode="&#x25ca;" horiz-adv-x="1012" 
d="M506 1409l-385 -817l385 -825l385 825zM506 1653l500 -1061l-500 -1069l-500 1069z" />
    <glyph glyph-name="fi" unicode="&#xf001;" horiz-adv-x="924" 
d="M152 1270q0 125 71 174q39 27 100 40t150 13h45v-139q-124 -3 -158 -41.5t-34 -165.5v-123h192v-127h-192v-901h-174v901h-144v127h144v242zM625 0v1028h170v-1028h-170zM625 1286v189h170v-189h-170z" />
    <glyph glyph-name="fl" unicode="&#xf002;" horiz-adv-x="920" 
d="M152 1270q0 125 71 174q39 27 100 40t150 13h45v-139q-124 -3 -158 -41.5t-34 -165.5v-123h192v-127h-192v-901h-174v901h-144v127h144v242zM625 0v1475h170v-1475h-170z" />
    <glyph glyph-name="glyph256" horiz-adv-x="492" 
 />
    <glyph glyph-name="glyph257" horiz-adv-x="492" 
 />
    <glyph glyph-name="nonbreakingspace" unicode="&#xa0;" horiz-adv-x="981" 
 />
    <glyph glyph-name="apple" unicode="&#xf000;" horiz-adv-x="1618" 
d="M836 1216q-2 12 -2 37q0 132 101 237q96 99 230 124q2 -20 2 -62q0 -117 -94 -226q-97 -112 -213 -112h-8q-3 0 -8 1t-8 1zM1505 403q-90 -196 -152 -279q-118 -159 -257 -159q-46 0 -130 33t-124 33q-44 0 -130 -33t-128 -33q-129 0 -258 176q-213 291 -213 596
q0 211 117 348q124 146 331 146q57 0 149.5 -34t129.5 -34q32 0 124.5 35t149.5 35q216 0 359 -164q-201 -128 -201 -328q0 -233 233 -338z" />
    <glyph glyph-name="sfthyphen" unicode="&#xad;" horiz-adv-x="569" 
d="M68 442v150h434v-150h-434z" />
    <glyph glyph-name="ch270" unicode="&#xb7;" horiz-adv-x="492" 
d="M127 713q0 48 32.5 81t80.5 33q49 0 81.5 -32.5t32.5 -81.5t-32.5 -81t-81.5 -32t-81 32t-32 81z" />
    <glyph glyph-name="ch270" unicode="&#x2219;" horiz-adv-x="492" 
d="M127 713q0 48 32.5 81t80.5 33q49 0 81.5 -32.5t32.5 -81.5t-32.5 -81t-81.5 -32t-81 32t-32 81z" />
    </font>
</defs>
</svg>
