<?xml version="1.0" standalone="no"?>
<!DOCTYPE svg PUBLIC "-//W3C//DTD SVG 1.1//EN" "http://www.w3.org/Graphics/SVG/1.1/DTD/svg11.dtd" >
<svg>
<metadata>
Created by FontForge 20090622 at Mon Sep 26 14:19:15 2016
 By deploy user
Copyright 1990-1993 Bitstream Inc.  All rights reserved.
</metadata>
<defs>
<font id="ZurichBT-BoldCondensed" horiz-adv-x="1010" >
  <font-face 
    font-family="Zurich Cn BT"
    font-weight="700"
    font-stretch="condensed"
    units-per-em="2048"
    panose-1="2 11 7 6 3 5 2 4 2 4"
    ascent="1638"
    descent="-410"
    x-height="1028"
    cap-height="1475"
    bbox="-342 -483 2167 1972"
    underline-thickness="205"
    underline-position="-99"
    unicode-range="U+0020-U+F002"
  />
<missing-glyph horiz-adv-x="1972" 
d="M123 0v1972h1726v-1972h-1726zM1726 123v1726h-1480v-1726h1480z" />
    <glyph glyph-name=".notdef" horiz-adv-x="1972" 
d="M123 0v1972h1726v-1972h-1726zM1726 123v1726h-1480v-1726h1480z" />
    <glyph glyph-name=".null" horiz-adv-x="0" 
 />
    <glyph glyph-name="nonmarkingreturn" horiz-adv-x="506" 
 />
    <glyph glyph-name="space" unicode=" " horiz-adv-x="506" 
 />
    <glyph glyph-name="exclam" unicode="!" horiz-adv-x="664" 
d="M213 0v246h236v-246h-236zM225 395l-35 1080h281l-35 -1080h-211z" />
    <glyph glyph-name="quotedbl" unicode="&#x22;" horiz-adv-x="678" 
d="M406 1438h192v-559h-192v559zM80 1438h192v-559h-192v559z" />
    <glyph glyph-name="numbersign" unicode="#" horiz-adv-x="1575" 
d="M709 848l-88 -244h251l86 244h-249zM709 1464h221l-146 -415h242l148 415h221l-148 -415h283l-74 -201h-280l-84 -242h290l-71 -200h-291l-148 -416h-221l148 416h-244l-149 -416h-220l146 416h-287l76 200h282l86 242h-299l74 201h297z" />
    <glyph glyph-name="dollar" unicode="$" 
d="M553 569v-356q60 15 92.5 57.5t32.5 108.5q0 62 -31 109.5t-94 80.5zM451 -176v176q-87 0 -158.5 30t-122.5 82q-96 99 -96 277v28l4 46h254v-35q0 -98 30 -150t99 -67v395q-218 112 -297.5 207.5t-79.5 230.5q0 159 93 254t274 119v162h110v-162q88 0 154 -24.5
t114 -72.5q91 -89 91 -255l-1 -22l-1 -21h-242v10q0 90 -28.5 133.5t-94.5 55.5v-351q228 -130 306.5 -227.5t78.5 -232.5q0 -180 -98 -287t-279 -123v-176h-110zM461 907v314q-61 -12 -93 -47t-32 -91q0 -60 28 -101q29 -39 97 -75z" />
    <glyph glyph-name="percent" unicode="%" horiz-adv-x="1583" 
d="M1188 158q52 0 77 52.5t25 164.5q0 111 -24.5 164t-77.5 53q-50 0 -75.5 -51.5t-25.5 -165.5q0 -113 24 -165t77 -52zM395 860q53 0 78 53.5t25 163.5q0 111 -24.5 164t-78.5 53q-51 0 -75.5 -51.5t-24.5 -165.5q0 -113 24 -165t76 -52zM1481 375q0 -189 -72.5 -282
t-220.5 -93t-220.5 92.5t-72.5 282.5q0 188 72 280.5t221 92.5q148 0 220.5 -92t72.5 -281zM688 1077q0 -189 -72 -282t-221 -93q-146 0 -219.5 93t-73.5 282q0 188 72 280.5t221 92.5q148 0 220.5 -92t72.5 -281zM403 -25l601 1475h165l-606 -1475h-160z" />
    <glyph glyph-name="ampersand" unicode="&#x26;" horiz-adv-x="1184" 
d="M612 858h64v199h295v-199h182v-207h-182v-651h-469q-63 0 -111 4t-81 13q-63 18 -113 59q-59 49 -89 130q-14 42 -21 92t-7 116q0 148 65 228.5t207 107.5q-120 36 -171.5 120.5t-51.5 249.5q0 189 105 273t344 84h84v-230h-50q-93 0 -131.5 -39.5t-38.5 -136.5
q0 -111 41.5 -162t128.5 -51zM676 227v424h-66q-125 0 -171 -46t-46 -163q0 -124 42 -169.5t169 -45.5h72z" />
    <glyph glyph-name="quotesingle" unicode="'" horiz-adv-x="352" 
d="M80 1438h192v-559h-192v559z" />
    <glyph glyph-name="parenleft" unicode="(" horiz-adv-x="616" 
d="M352 -342q-104 298 -158.5 538t-54.5 406q0 140 54.5 378.5t154.5 516.5h170q-66 -280 -104 -517q-33 -224 -33 -400q0 -156 30 -371q15 -106 40 -244t61 -307h-160z" />
    <glyph glyph-name="parenright" unicode=")" horiz-adv-x="616" 
d="M260 -342h-162q35 163 60 300.5t41 250.5q30 213 30 371q0 175 -33 400q-17 114 -42.5 241.5t-61.5 275.5h172q98 -280 154 -518q27 -117 41 -211t14 -166q0 -164 -54 -403.5t-159 -540.5z" />
    <glyph glyph-name="asterisk" unicode="*" 
d="M506 1004l-100 -267l-181 105l181 219l-281 -47v209l281 -47l-181 219l181 102l100 -264l98 264l180 -102l-180 -219l281 45v-207l-281 45l180 -219l-180 -103z" />
    <glyph glyph-name="plus" unicode="+" horiz-adv-x="1706" 
d="M752 1221h202v-510h498v-199h-498v-512h-202v512h-498v199h498v510z" />
    <glyph glyph-name="comma" unicode="," horiz-adv-x="506" 
d="M68 -197l90 471h248l-160 -471h-178z" />
    <glyph glyph-name="hyphen" unicode="-" horiz-adv-x="569" 
d="M33 375v278h504v-278h-504z" />
    <glyph glyph-name="period" unicode="." horiz-adv-x="506" 
d="M129 0v274h246v-274h-246z" />
    <glyph glyph-name="slash" unicode="/" horiz-adv-x="569" 
d="M57 -190h-166l605 1687h166z" />
    <glyph glyph-name="zero" unicode="0" 
d="M506 1452q46 0 83 -5t78 -18q75 -22 117 -63q77 -68 109.5 -188.5t32.5 -393.5v-172q0 -188 -14.5 -283t-47.5 -157q-50 -96 -141.5 -147.5t-216.5 -51.5q-98 0 -175.5 31t-131.5 92q-62 69 -88.5 176t-26.5 342v121q0 283 19.5 387.5t65.5 177t134.5 112.5t202.5 40z
M367 713q0 -175 7 -284.5t22 -153.5q30 -87 110 -87q77 0 107 84.5t30 440.5q0 353 -29.5 438.5t-107.5 85.5t-108.5 -88t-30.5 -436z" />
    <glyph glyph-name="one" unicode="1" 
d="M401 0v1087q-74 -59 -138 -98q-56 -34 -103 -49v268q68 27 137.5 81t144.5 138h246v-1427h-287z" />
    <glyph glyph-name="two" unicode="2" 
d="M88 0v260q270 323 410 541q137 214 137 315q0 60 -30.5 93.5t-86.5 33.5q-59 0 -91 -42.5t-32 -121.5v-26q0 -11 2 -16l-284 -1l-1 20l-1 21q0 180 101 276.5t288 96.5q197 0 306 -93t109 -263q0 -161 -110.5 -351t-417.5 -528h535v-215h-834z" />
    <glyph glyph-name="three" unicode="3" 
d="M92 393h287q0 -105 32 -155q29 -45 95 -45q62 0 90.5 49t28.5 164q0 136 -44 184.5t-167 48.5l-24 -1l-25 -1v225h16q142 0 184.5 41t42.5 168q0 95 -28.5 140.5t-87.5 45.5q-53 0 -82 -43.5t-29 -121.5v-15h-276l-3 19v28q0 166 96.5 246t299.5 80q210 0 302.5 -90.5
t92.5 -298.5q0 -130 -45.5 -205.5t-138.5 -99.5q113 -28 161 -107t48 -246q0 -216 -106.5 -322t-326.5 -106q-199 0 -297 91.5t-98 275.5v30q0 14 2 21z" />
    <glyph glyph-name="four" unicode="4" 
d="M535 0v332h-447v291l346 804h379v-886h109v-209h-109v-332h-278zM569 541l9 706l-57 -164q-21 -61 -29 -81l-33 -82l-156 -379h266z" />
    <glyph glyph-name="five" unicode="5" 
d="M100 336l287 -1q0 -75 27.5 -114t79.5 -39q69 0 99 65.5t30 229.5q0 162 -24 217.5t-85 55.5q-49 0 -81 -36q-30 -36 -42 -112h-270l22 825h717v-221h-450l-11 -354q41 44 95.5 66t128.5 22q148 0 217 -111t69 -354q0 -260 -100 -379t-322 -119q-191 0 -289 83.5
t-98 246.5v29z" />
    <glyph glyph-name="six" unicode="6" 
d="M379 834q43 44 100.5 68t128.5 24q156 0 233 -109.5t77 -331.5q0 -259 -101 -384.5t-309 -125.5q-227 0 -321.5 145.5t-94.5 526.5q0 307 15.5 421.5t54.5 184.5q51 98 140 147.5t212 49.5q179 0 279 -83.5t100 -236.5v-8l-285 1q0 31 -7.5 55.5t-22.5 42.5
q-28 34 -76 34q-67 0 -97 -61t-30 -207l1 -91zM500 180q67 0 97 62t30 209q0 153 -28 215.5t-95 62.5q-68 0 -95.5 -57.5t-27.5 -208.5q0 -155 27 -219t92 -64z" />
    <glyph glyph-name="seven" unicode="7" 
d="M223 0l383 1212h-479v215h756v-243l-338 -1184h-322z" />
    <glyph glyph-name="eight" unicode="8" 
d="M508 854q51 0 76.5 51.5t25.5 153.5q0 87 -26.5 136.5t-75.5 49.5q-54 0 -81.5 -47t-27.5 -139q0 -109 26 -157t83 -48zM508 186q59 0 91 54.5t32 156.5q0 113 -33.5 177.5t-89.5 64.5q-61 0 -95 -63t-34 -179q0 -103 32.5 -157t96.5 -54zM309 750q-96 30 -142 107.5
t-46 211.5q0 189 98.5 286t288.5 97q186 0 283.5 -97.5t97.5 -285.5q0 -133 -45.5 -210.5t-143.5 -108.5q101 -36 156 -132t55 -241q0 -199 -103 -300.5t-306 -101.5q-202 0 -303 104t-101 310q0 138 55.5 231.5t155.5 129.5z" />
    <glyph glyph-name="nine" unicode="9" 
d="M631 592q-44 -46 -103 -70t-129 -24q-155 0 -231 110t-76 332q0 258 100.5 383t309.5 125q228 0 322 -145.5t94 -524.5q0 -306 -15.5 -420t-54.5 -186q-51 -97 -140.5 -147t-211.5 -50q-181 0 -281 84t-100 236v8h284q0 -31 8.5 -56.5t23.5 -44.5q28 -34 75 -34
q69 0 99 62.5t30 211.5l-1 89zM508 1245q-66 0 -95.5 -61.5t-29.5 -210.5q0 -152 27.5 -214.5t95.5 -62.5q65 0 93 57t28 210q0 157 -27.5 219.5t-91.5 62.5z" />
    <glyph glyph-name="colon" unicode=":" horiz-adv-x="532" 
d="M143 0v274h246v-274h-246zM143 754v274h246v-274h-246z" />
    <glyph glyph-name="semicolon" unicode=";" horiz-adv-x="532" 
d="M55 -197l92 471h246l-160 -471h-178zM147 754v274h246v-274h-246z" />
    <glyph glyph-name="less" unicode="&#x3c;" horiz-adv-x="1706" 
d="M1442 1194v-219l-893 -365l893 -364v-219l-1178 485v199z" />
    <glyph glyph-name="equal" unicode="=" horiz-adv-x="1706" 
d="M254 496h1198v-199h-1198v199zM254 926h1198v-199h-1198v199z" />
    <glyph glyph-name="greater" unicode="&#x3e;" horiz-adv-x="1706" 
d="M264 1194l1178 -483v-199l-1178 -485v219l895 364l-895 365v219z" />
    <glyph glyph-name="question" unicode="?" horiz-adv-x="854" 
d="M303 0v246h234v-246h-234zM313 397v146q0 72 12 122.5t42 108.5q21 44 72 130q98 161 98 249q0 65 -29.5 103t-81.5 38q-64 0 -93.5 -50.5t-29.5 -166.5l-252 1l-2 18v28q0 180 97 277.5t276 97.5q180 0 280.5 -90.5t100.5 -255.5q0 -190 -177 -408l-11 -13l-10 -12
q-83 -100 -83 -206v-117h-209z" />
    <glyph glyph-name="at" unicode="@" horiz-adv-x="2048" 
d="M1167 272q-54 -84 -126.5 -123.5t-170.5 -39.5q-158 0 -240.5 86.5t-82.5 253.5q0 238 139.5 400.5t343.5 162.5q79 0 138.5 -33t97.5 -98l53 98h178l-147 -598l-5 -23l-2 -18q0 -33 24 -53q25 -17 71 -17q22 0 40 4t41 16q42 20 80 56q85 79 130 186.5t45 235.5
q0 239 -185.5 394t-478.5 155q-142 0 -263.5 -33.5t-219.5 -101.5q-169 -113 -261 -285.5t-92 -374.5q0 -305 207 -489.5t553 -184.5q163 0 317.5 48.5t286.5 142.5l82 -117q-151 -112 -325 -171.5t-357 -59.5q-193 0 -353 49q-81 24 -151.5 59t-134.5 84
q-154 119 -231.5 278.5t-77.5 358.5q0 168 52.5 320t154.5 274q147 180 355 273.5t464 93.5q85 0 162 -11t155 -35q150 -45 259 -128q135 -105 201.5 -240.5t66.5 -302.5q0 -164 -65.5 -303.5t-188.5 -239.5q-67 -54 -153 -86q-82 -29 -171 -29q-104 0 -159.5 43t-55.5 123z
M1217 700q-12 82 -57.5 124t-117.5 42q-114 0 -198 -123.5t-84 -298.5q0 -91 40.5 -139.5t117.5 -48.5q82 0 151 63t94 164z" />
    <glyph glyph-name="A" unicode="A" horiz-adv-x="1262" 
d="M465 555h315l-153 639zM915 0l-79 328h-428l-78 -328h-310l416 1475h393l410 -1475h-324z" />
    <glyph glyph-name="B" unicode="B" horiz-adv-x="1208" 
d="M428 877h174q92 0 138 48t46 148q0 84 -47.5 129t-136.5 45h-174v-370zM428 231h147q117 0 172.5 51t55.5 158q0 105 -54 157t-165 52h-156v-418zM131 0v1475h522q220 0 326 -89t106 -270q0 -148 -66 -242t-179 -106q125 -21 196.5 -114t71.5 -238q0 -216 -107 -316
t-339 -100h-531z" />
    <glyph glyph-name="C" unicode="C" horiz-adv-x="1147" 
d="M1064 504l2 -26l1 -42q0 -220 -119 -339.5t-340 -119.5q-101 0 -190.5 27.5t-141.5 73.5q-90 78 -128.5 224t-38.5 470q0 118 5 199t18 147q24 123 78.5 205.5t157 126t238.5 43.5q223 0 337 -114t114 -339v-28h-309v28q0 117 -36.5 173.5t-111.5 56.5q-102 0 -142 -99
t-40 -460q0 -303 40.5 -403.5t145.5 -100.5q75 0 112.5 61t37.5 185l-1 24l-1 27h312z" />
    <glyph glyph-name="D" unicode="D" horiz-adv-x="1262" 
d="M465 1251v-1020h133q147 0 202.5 97.5t55.5 412.5q0 316 -55 413t-203 97h-133zM152 1475h487q285 0 400.5 -163t115.5 -575t-115.5 -574.5t-400.5 -162.5h-487v1475z" />
    <glyph glyph-name="E" unicode="E" horiz-adv-x="1022" 
d="M131 0v1475h797v-228h-486v-352h447v-227h-447v-430h504v-238h-815z" />
    <glyph glyph-name="F" unicode="F" horiz-adv-x="983" 
d="M131 0v1475h760v-228h-449v-352h428v-227h-428v-668h-311z" />
    <glyph glyph-name="G" unicode="G" horiz-adv-x="1208" 
d="M1096 776v-749q-75 -14 -130 -22t-122 -16q-102 -12 -187 -12q-136 0 -228.5 24.5t-152.5 76.5q-90 80 -128.5 226t-38.5 468q0 118 5 199t18 147q24 123 80 206t159 126q52 21 115 32t139 11q229 0 350 -115t121 -336v-22h-303v18q0 125 -43.5 185.5t-133.5 60.5
q-113 0 -155.5 -100t-42.5 -443q0 -359 51 -453.5t193 -94.5q25 0 41.5 2l31.5 4t33.5 5.5t46.5 10.5v330h-170v231h451z" />
    <glyph glyph-name="H" unicode="H" horiz-adv-x="1214" 
d="M438 0h-307v1475h307v-574h336v574h309v-1475h-309v653h-336v-653z" />
    <glyph glyph-name="I" unicode="I" horiz-adv-x="569" 
d="M133 0v1475h301v-1475h-301z" />
    <glyph glyph-name="J" unicode="J" horiz-adv-x="1038" 
d="M25 494h303l-1 -31l-1 -29q0 -126 30 -182.5t97 -56.5q77 0 108 54t31 261v965h309v-1004q0 -152 -17.5 -226t-58.5 -130q-49 -71 -137.5 -105.5t-232.5 -34.5q-224 0 -329 105q-51 53 -77 135.5t-26 196.5v50q0 21 2 32z" />
    <glyph glyph-name="K" unicode="K" horiz-adv-x="1114" 
d="M131 0v1475h307v-641l383 641h322l-426 -678l426 -797h-357l-348 717v-717h-307z" />
    <glyph glyph-name="L" unicode="L" horiz-adv-x="920" 
d="M131 0v1475h311v-1215h451v-260h-762z" />
    <glyph glyph-name="M" unicode="M" horiz-adv-x="1708" 
d="M129 0v1475h475l209 -904q4 -14 11 -52t12 -71l22 -183q0 30 5 75q2 21 11 92t25 141l186 902h494v-1475h-287l13 1008q0 53 1.5 111l2.5 94q0 41 2.5 77t7.5 88l-307 -1378h-295l-324 1380q7 -68 12.5 -165t5.5 -199l1 -8l18 -1008h-301z" />
    <glyph glyph-name="N" unicode="N" horiz-adv-x="1356" 
d="M131 0v1475h414l282 -766q48 -128 87.5 -258.5t66.5 -253.5q-6 48 -11.5 101t-5.5 99q0 33 -3 109t-3 119l-18 850h285v-1475h-404l-299 807q-17 47 -33.5 98.5l-36 116l-39 134.5l-40.5 149l17 -246q0 -36 3.5 -102t3.5 -78l17 -879h-283z" />
    <glyph glyph-name="O" unicode="O" horiz-adv-x="1214" 
d="M608 -23q-101 0 -190.5 27.5t-141.5 73.5q-89 77 -129.5 228t-40.5 448q0 228 24 358.5t78.5 211t157 125t240.5 44.5q106 0 194 -27.5t144 -76.5q87 -76 124.5 -213.5t37.5 -403.5q0 -277 -24 -406.5t-81 -215.5q-53 -80 -156 -126.5t-237 -46.5zM416 741
q0 -327 41 -430.5t147 -103.5q109 0 151 100.5t42 448.5q0 310 -41 409t-148 99t-149.5 -102.5t-42.5 -420.5z" />
    <glyph glyph-name="P" unicode="P" horiz-adv-x="1139" 
d="M627 1475q262 0 361 -98t99 -345q0 -114 -26.5 -202.5t-76 -139.5t-118.5 -74.5t-219 -23.5h-18h-176v-592h-322v1475h496zM449 1243v-414h102q133 0 178 45t45 166q0 114 -41.5 158.5t-154.5 44.5h-129z" />
    <glyph glyph-name="Q" unicode="Q" horiz-adv-x="1214" 
d="M975 186q40 13 97 22t118 9h55v-217h-373l-113 -9q-92 -9 -163 -9q-110 0 -187.5 23.5t-134.5 72.5q-91 81 -129.5 223.5t-38.5 472.5q0 222 24 345t78.5 204t157 125.5t240.5 44.5q135 0 238 -44.5t158.5 -127t79.5 -212.5t24 -376q0 -236 -30.5 -360t-100.5 -187z
M416 741q0 -330 40.5 -432t145.5 -102q109 0 151 100.5t42 448.5q0 310 -41 409t-148 99q-108 0 -150 -101q-20 -51 -30 -154t-10 -268z" />
    <glyph glyph-name="R" unicode="R" horiz-adv-x="1151" 
d="M569 1475q270 0 367.5 -82t97.5 -297q0 -170 -48.5 -253.5t-166.5 -113.5q132 -27 180 -93.5t48 -256.5l-2 -37l-1 -37q0 -100 9 -172t30 -133h-321q-11 39 -17 110t-6 182q0 25 -0.5 54t-1.5 62q0 56 -10 93t-31 62q-38 45 -127 45h-129v-608h-309v1475h438zM440 838h76
q124 0 172.5 47t48.5 164q0 113 -44 154.5t-171 41.5h-82v-407z" />
    <glyph glyph-name="S" unicode="S" horiz-adv-x="1128" 
d="M92 455h314v-39q0 -115 38.5 -163t128.5 -48q70 0 112 43.5t42 118.5q0 104 -196 233l-19 12l-71 46q-55 36 -94 64q-32 22 -52 38q-24 19 -39 33q-81 74 -111 139.5t-30 161.5q0 184 126.5 294.5t340.5 110.5q219 0 331.5 -102.5t112.5 -302.5v-39h-305v8q0 105 -38 156
q-36 53 -112 53q-68 0 -108.5 -41.5t-40.5 -110.5q0 -118 256 -271l102 -63q144 -91 201 -176t57 -202q0 -214 -126.5 -323.5t-372.5 -109.5q-231 0 -340 103.5t-109 324.5l1 25z" />
    <glyph glyph-name="T" unicode="T" horiz-adv-x="1034" 
d="M365 0v1233h-336v242h991v-242h-338v-1233h-317z" />
    <glyph glyph-name="U" unicode="U" horiz-adv-x="1266" 
d="M1135 1475v-924q0 -308 -117.5 -442t-384.5 -134q-257 0 -379.5 130t-122.5 403v967h307v-887q0 -253 42.5 -321t156.5 -68q108 0 151 76q21 38 32 115.5t11 197.5v887h304z" />
    <glyph glyph-name="V" unicode="V" horiz-adv-x="1128" 
d="M371 -2l-371 1477h322l151 -770l56 -294q16 -91 26 -190q16 146 35.5 268t42.5 216l176 770h311l-385 -1477h-364z" />
    <glyph glyph-name="W" unicode="W" horiz-adv-x="1831" 
d="M319 0l-319 1475h322l106 -662q12 -78 30 -229q9 -76 18 -160t18 -178q18 152 42 293t54 278l145 658h359l131 -666q16 -82 36 -227l46 -336q15 127 40.5 278.5t57.5 292.5l145 658h271l-330 -1475h-344l-162 782l-32 186l-15 120l-16 141q-9 -72 -13.5 -101.5
t-18.5 -99.5q-21 -112 -52 -248l-179 -780h-340z" />
    <glyph glyph-name="X" unicode="X" horiz-adv-x="1139" 
d="M797 0l-244 535l-238 -535h-309l379 776l-352 699h332l225 -496l219 496h315l-368 -727l374 -748h-333z" />
    <glyph glyph-name="Y" unicode="Y" horiz-adv-x="1096" 
d="M375 0v555l-385 920h342l213 -615l237 615h322l-416 -920v-555h-313z" />
    <glyph glyph-name="Z" unicode="Z" horiz-adv-x="948" 
d="M4 0v254l610 983h-581v238h891v-263l-602 -970h622v-242h-940z" />
    <glyph glyph-name="bracketleft" unicode="[" horiz-adv-x="616" 
d="M582 -356h-432v1831h432v-172h-209v-1489h209v-170z" />
    <glyph glyph-name="backslash" unicode="\" horiz-adv-x="569" 
d="M662 -190h-166l-607 1687h166z" />
    <glyph glyph-name="bracketright" unicode="]" horiz-adv-x="616" 
d="M25 -356v170h208v1489h-208v172h430v-1831h-430z" />
    <glyph glyph-name="asciicircum" unicode="^" horiz-adv-x="2048" 
d="M897 1460h252l481 -561h-235l-371 371l-373 -371h-235z" />
    <glyph glyph-name="underscore" unicode="_" horiz-adv-x="1024" 
d="M0 -279h1024v-204h-1024v204z" />
    <glyph glyph-name="grave" unicode="`" horiz-adv-x="1024" 
d="M219 1526h258l197 -369h-142z" />
    <glyph glyph-name="a" unicode="a" horiz-adv-x="995" 
d="M102 760v20q0 133 103 203t301 70q194 0 286.5 -72t92.5 -227v-512q0 -34 1 -66t4 -63q0 -27 1.5 -39.5t13.5 -73.5h-256l-22 117q-39 -55 -116 -90t-161 -35q-126 0 -201 87t-75 234q0 172 108 256q56 44 141 69q94 28 207 28h91v47q0 104 -26.5 148t-88.5 44
q-67 0 -102 -37t-35 -108h-267zM621 510q-154 0 -213.5 -41.5t-59.5 -146.5q0 -76 29.5 -118t81.5 -42q78 0 120 66t42 192v90z" />
    <glyph glyph-name="b" unicode="b" horiz-adv-x="995" 
d="M385 635v-221q0 -154 27 -209t98 -55q65 0 92 57q25 59 25 295v24q0 209 -27 276.5t-94 67.5q-60 0 -90.5 -57.5t-30.5 -177.5zM102 1475h285v-531q43 55 101 83q30 14 60.5 21t69.5 7q158 0 226.5 -119t68.5 -404q0 -99 -3 -165.5t-11 -114.5q-14 -92 -47 -150
t-96.5 -91.5t-143.5 -33.5q-77 0 -136.5 32.5t-90.5 90.5l-8 -98h-283l6 118l2 109v1246z" />
    <glyph glyph-name="c" unicode="c" horiz-adv-x="995" 
d="M637 381h287q0 -201 -104.5 -302.5t-313.5 -101.5q-239 0 -332.5 119t-93.5 441q0 276 99 396t327 120q199 0 308.5 -98.5t109.5 -278.5v-10h-287v10q0 99 -33.5 147.5t-99.5 48.5q-75 0 -104 -69t-29 -279q0 -218 29.5 -293t105.5 -75q63 0 97 53.5t34 152.5v19z" />
    <glyph glyph-name="d" unicode="d" horiz-adv-x="995" 
d="M606 635q0 118 -30.5 176.5t-90.5 58.5q-66 0 -93 -67t-27 -277v-24q0 -236 24 -294t92 -58t96.5 55t28.5 209v221zM608 944v531h281v-1246q0 -16 1 -52t1 -57l6 -118h-281l-10 98q-30 -56 -89.5 -89.5t-137.5 -33.5q-61 0 -113.5 21.5t-89.5 58.5q-53 56 -74.5 152
t-21.5 323q0 281 66 402t219 121q79 0 137.5 -26.5t105.5 -84.5z" />
    <glyph glyph-name="e" unicode="e" horiz-adv-x="995" 
d="M375 645h258v86q0 72 -33.5 113t-93.5 41q-64 0 -97.5 -51.5t-33.5 -153.5v-35zM637 381h287q0 -201 -104.5 -302.5t-313.5 -101.5q-239 0 -332.5 119t-93.5 441q0 276 99 396t327 120q212 0 315 -103t103 -311v-156h-549v-106q0 -115 30.5 -168t98.5 -53q65 0 99 53
t34 153v19z" />
    <glyph glyph-name="f" unicode="f" horiz-adv-x="623" 
d="M150 0v858h-146v170h146v172q0 183 67.5 240t265.5 57h27.5t34.5 -2h42q20 -3 29 -4v-203l-18 1l-29 1q-77 0 -107 -30q-28 -31 -28 -121v-111h182v-170h-182v-858h-284z" />
    <glyph glyph-name="g" unicode="g" horiz-adv-x="995" 
d="M606 618q0 153 -28 208t-97 55q-65 0 -90.5 -57.5t-25.5 -295.5v-24q0 -107 6 -175t20 -103q27 -66 94 -66q60 0 90.5 57.5t30.5 177.5v223zM889 20q0 -238 -90.5 -330.5t-315.5 -92.5q-183 0 -283 74t-100 210v13l277 -1q0 -36 7 -59.5t21 -40.5q26 -29 87 -29
q59 0 85 33q12 16 20.5 62.5t8.5 111.5v117q-54 -57 -114 -85t-125 -28q-153 0 -220 119.5t-67 403.5q0 98 3 167.5t10 116.5q14 88 46.5 146t97 91.5t142.5 33.5q79 0 137.5 -32t89.5 -91l10 98h281l-6 -118l-2 -109v-781z" />
    <glyph glyph-name="h" unicode="h" horiz-adv-x="1008" 
d="M395 0h-289v1475h289v-553q34 62 93.5 96.5t136.5 34.5q135 0 206.5 -69.5t71.5 -201.5v-782h-289v702q0 99 -21.5 137t-74.5 38q-56 0 -89.5 -39.5t-33.5 -106.5v-731z" />
    <glyph glyph-name="i" unicode="i" horiz-adv-x="485" 
d="M387 1028v-1028h-289v1028h289zM387 1475v-244h-289v244h289z" />
    <glyph glyph-name="j" unicode="j" horiz-adv-x="496" 
d="M397 1475v-244h-284v244h284zM397 1028v-1096q0 -198 -64 -266.5t-237 -68.5l-39 1l-26 1v198q45 5 63.5 32t18.5 130v1069h284z" />
    <glyph glyph-name="k" unicode="k" horiz-adv-x="991" 
d="M115 0v1475h286v-867l263 420h288l-301 -448l336 -580h-313l-273 539v-539h-286z" />
    <glyph glyph-name="l" unicode="l" horiz-adv-x="485" 
d="M100 0v1475h285v-1475h-285z" />
    <glyph glyph-name="m" unicode="m" horiz-adv-x="1513" 
d="M395 922q34 62 93.5 96.5t136.5 34.5q101 0 168.5 -41t95.5 -117q39 78 101 118t143 40q135 0 206.5 -69.5t71.5 -201.5v-782h-289v702q0 102 -21.5 138.5t-72.5 36.5q-55 0 -90 -40t-35 -106v-731h-289v702q0 99 -21.5 137t-74.5 38q-56 0 -89.5 -39.5t-33.5 -106.5
v-731h-289v844q0 24 -0.5 51t-1.5 58q0 16 -1.5 35t-5.5 40h290z" />
    <glyph glyph-name="n" unicode="n" horiz-adv-x="1008" 
d="M395 0h-289v844q0 24 -0.5 51t-1.5 58q0 16 -1.5 35t-5.5 40h290l8 -106q34 62 93.5 96.5t136.5 34.5q135 0 206.5 -69.5t71.5 -201.5v-782h-289v702q0 99 -21.5 137t-74.5 38q-56 0 -89.5 -39.5t-33.5 -106.5v-731z" />
    <glyph glyph-name="o" unicode="o" 
d="M512 1053q221 0 319.5 -119.5t98.5 -396.5q0 -322 -93.5 -441t-330.5 -119q-239 0 -332.5 119t-93.5 441q0 279 99.5 397.5t332.5 118.5zM371 524q0 -218 29.5 -293t105.5 -75q75 0 105 75t30 293q0 212 -29.5 280t-107.5 68q-75 0 -104 -69t-29 -279z" />
    <glyph glyph-name="p" unicode="p" horiz-adv-x="995" 
d="M389 618v-223q0 -118 30.5 -176.5t90.5 -58.5q66 0 92.5 65t26.5 279v24q0 238 -24.5 295.5t-92.5 57.5q-69 0 -96 -53.5t-27 -209.5zM106 -389v1190q0 14 -1 47t-1 52l-7 128h282l10 -98q30 58 90.5 90.5t136.5 32.5q60 0 114 -21.5t89 -58.5q51 -54 73.5 -153.5
t22.5 -321.5q0 -289 -67 -406t-225 -117q-72 0 -129 26.5t-103 84.5v-475h-285z" />
    <glyph glyph-name="q" unicode="q" horiz-adv-x="995" 
d="M606 395v223q0 153 -28 208t-97 55q-65 0 -90.5 -57.5t-25.5 -295.5v-24q0 -107 6 -175t20 -103q27 -66 94 -66q60 0 90.5 57.5t30.5 177.5zM608 -389v475q-43 -55 -103.5 -84t-131.5 -29q-157 0 -225 120t-68 405q0 98 3 167.5t10 116.5q14 88 46.5 146t97 91.5
t142.5 33.5q79 0 137.5 -32t89.5 -91l10 98h281l-6 -118l-2 -109v-1190h-281z" />
    <glyph glyph-name="r" unicode="r" horiz-adv-x="682" 
d="M106 0v1030h252l19 -135q27 75 92.5 116.5t159.5 41.5h18v-250h-26q-120 0 -173 -58t-53 -192v-553h-289z" />
    <glyph glyph-name="s" unicode="s" horiz-adv-x="920" 
d="M66 340h280v-21q0 -75 28.5 -120t76.5 -45q58 0 93.5 29t35.5 77q0 80 -195 184l-68 35q-165 90 -207 147t-42 142q0 128 102.5 208.5t269.5 80.5q186 0 281.5 -71t95.5 -208l-1 -16l-1 -17l-270 1l1 13l1 19q0 62 -26 92.5t-79 30.5q-46 0 -75 -24.5t-29 -65.5
q0 -65 177 -160l124 -69q122 -73 168.5 -137.5t46.5 -153.5q0 -151 -111.5 -228t-328.5 -77q-167 0 -259 81.5t-92 231.5v24z" />
    <glyph glyph-name="t" unicode="t" horiz-adv-x="621" 
d="M602 6l-119 -12l-88 -4q-133 0 -196.5 65t-63.5 205v594h-135v174h135v174l283 125v-299h184v-174h-184v-557q0 -78 21 -101.5t85 -23.5l64 3l14 1v-170z" />
    <glyph glyph-name="u" unicode="u" horiz-adv-x="1008" 
d="M608 1028h291v-891v-43t2 -38l6 -54h-289l-10 109q-36 -66 -94.5 -100t-132.5 -34q-136 0 -207.5 70.5t-71.5 202.5v778h289v-700q0 -102 21 -138t73 -36q54 0 88.5 39.5t34.5 105.5v729z" />
    <glyph glyph-name="v" unicode="v" horiz-adv-x="930" 
d="M291 0l-262 1028h295l73 -414q7 -42 18 -120l11 -83q12 -98 25 -247q21 164 88 422l6 23l110 419h279l-330 -1028h-313z" />
    <glyph glyph-name="w" unicode="w" horiz-adv-x="1608" 
d="M289 0l-264 1028h294l78 -424q21 -114 34 -223t13 -186q18 96 42.5 203.5t54.5 215.5l112 414h299l133 -518l12 -54q11 -50 20 -96l22 -165q0 50 12 120q2 13 30 148l9 47l102 518h289l-287 -1028h-309l-125 469q-9 37 -17.5 76.5t-17.5 92.5q-2 16 -11 73t-9 104
q-11 -69 -20 -118.5t-18 -87.5q-16 -82 -36 -144l-141 -465h-301z" />
    <glyph glyph-name="x" unicode="x" horiz-adv-x="1030" 
d="M317 0h-290l313 549l-285 479h312l161 -317l170 317h287l-278 -483l301 -545h-316l-180 379z" />
    <glyph glyph-name="y" unicode="y" horiz-adv-x="924" 
d="M205 -389l112 364l-299 1053h289l156 -737l184 737h281l-428 -1417h-295z" />
    <glyph glyph-name="z" unicode="z" horiz-adv-x="811" 
d="M51 0v221l408 633h-385v174h684v-184l-408 -654h408v-190h-707z" />
    <glyph glyph-name="braceleft" unicode="{" horiz-adv-x="1024" 
d="M883 1477v-209l-25 1l-22 1q-99 0 -135.5 -38.5t-36.5 -162.5v-240q0 -147 -44.5 -208.5t-162.5 -90.5q117 -27 162 -87.5t45 -209.5v-241q0 -123 35 -161t137 -38l22 1l25 1v-209l-39 -1l-37 -1q-98 0 -166 12t-115 37q-58 33 -81 91.5t-23 199.5v252q0 135 -51.5 193.5
t-171.5 58.5l-20 -1l-21 -1v209l21 -1l20 -1q120 0 171 58q26 29 39 77t13 119v250q0 145 23 201t81 92q45 23 112.5 36t168.5 13l37 -1z" />
    <glyph glyph-name="bar" unicode="|" horiz-adv-x="1024" 
d="M410 1565h206v-2048h-206v2048z" />
    <glyph glyph-name="braceright" unicode="}" horiz-adv-x="1024" 
d="M143 1477h68q109 0 177 -12t112 -38q56 -31 80 -91t24 -199v-252q0 -136 51 -194t172 -58l20 1l21 1v-209h-37q-124 0 -175.5 -56t-51.5 -194v-252q0 -142 -23.5 -200.5t-80.5 -90.5q-45 -23 -112.5 -36t-168.5 -13l-37 1l-39 1v209l25 -1l22 -1q100 0 136 38.5t36 160.5
v239q0 149 45 210.5t162 88.5q-118 27 -162.5 89t-44.5 210v242q0 121 -35.5 160t-136.5 39l-22 -1l-25 -1v209z" />
    <glyph glyph-name="asciitilde" unicode="~" horiz-adv-x="1706" 
d="M1530 803v-221q-105 -71 -197 -104.5t-182 -33.5q-36 0 -50 1.5t-40.5 6t-47 9.5t-46.5 14l-71 25q-219 75 -333 75q-43 0 -86.5 -9t-91.5 -29q-94 -37 -207 -119v221q103 70 201.5 106.5t185.5 36.5q118 0 291 -58l4 -1l55 -19q157 -55 240 -55q41 0 85 9t90 28
q88 35 200 117z" />
    <glyph glyph-name="quotesinglbase" unicode="&#x201a;" horiz-adv-x="451" 
d="M29 -197l61 396h260l-139 -396h-182z" />
    <glyph glyph-name="florin" unicode="&#x192;" 
d="M444 1049l7 29q46 224 112 290q42 42 107.5 63t158.5 21l72 -3q16 0 36.5 -1.5t47.5 -5.5l-41 -195l-19 1l-28 1q-120 0 -171 -225l-1 -4l-41 -186h180l-45 -213h-182l-143 -646q-37 -164 -62 -225.5t-59 -95.5q-40 -41 -109.5 -61.5t-175.5 -20.5q-46 0 -63 1
q-38 5 -59 6l-13 1l41 194h19l28 -1q69 0 102.5 36.5t69.5 192.5l137 619h-203l46 213h204z" />
    <glyph glyph-name="quotedblbase" unicode="&#x201e;" horiz-adv-x="801" 
d="M412 -197l65 396h260l-139 -396h-186zM63 -197l64 396h260l-139 -396h-185z" />
    <glyph glyph-name="ellipsis" unicode="&#x2026;" horiz-adv-x="2048" 
d="M217 0v274h246v-274h-246zM899 0v274h246v-274h-246zM1583 0v274h246v-274h-246z" />
    <glyph glyph-name="dagger" unicode="&#x2020;" 
d="M389 0v958h-319v199h319v318h229v-318h320v-199h-320v-958h-229z" />
    <glyph glyph-name="daggerdbl" unicode="&#x2021;" 
d="M389 0v291h-319v188h319v484h-319v188h319v324h229v-324h320v-188h-320v-484h320v-188h-320v-291h-229z" />
    <glyph glyph-name="circumflex" unicode="&#x2c6;" horiz-adv-x="1024" 
d="M197 1157l196 369h238l196 -369h-141l-174 217l-176 -217h-139z" />
    <glyph glyph-name="perthousand" unicode="&#x2030;" horiz-adv-x="2269" 
d="M1874 158q52 0 77 52.5t25 164.5q0 111 -24.5 164t-77.5 53q-51 0 -75.5 -51.5t-24.5 -165.5q0 -113 24 -165t76 -52zM1188 158q52 0 77 52.5t25 164.5q0 111 -24.5 164t-77.5 53q-50 0 -75.5 -51.5t-25.5 -165.5q0 -113 24 -165t77 -52zM395 860q53 0 78 53.5t25 163.5
q0 111 -24.5 164t-78.5 53q-51 0 -75.5 -51.5t-24.5 -165.5q0 -113 24 -165t76 -52zM2167 375q0 -189 -72.5 -282t-220.5 -93q-147 0 -220 92.5t-73 282.5q0 188 72 280.5t221 92.5q148 0 220.5 -92t72.5 -281zM1481 375q0 -189 -72.5 -282t-220.5 -93t-220.5 92.5
t-72.5 282.5q0 188 72 280.5t221 92.5q148 0 220.5 -92t72.5 -281zM688 1077q0 -189 -72 -282t-221 -93q-146 0 -219.5 93t-73.5 282q0 188 72 280.5t221 92.5q148 0 220.5 -92t72.5 -281zM403 -25l601 1475h165l-606 -1475h-160z" />
    <glyph glyph-name="Scaron" unicode="&#x160;" horiz-adv-x="1128" 
d="M92 455h314v-39q0 -115 38.5 -163t128.5 -48q70 0 112 43.5t42 118.5q0 104 -196 233l-19 12l-71 46q-55 36 -94 64q-32 22 -52 38q-24 19 -39 33q-81 74 -111 139.5t-30 161.5q0 184 126.5 294.5t340.5 110.5q219 0 331.5 -102.5t112.5 -302.5v-39h-305v8q0 105 -38 156
q-36 53 -112 53q-68 0 -108.5 -41.5t-40.5 -110.5q0 -118 256 -271l102 -63q144 -91 201 -176t57 -202q0 -214 -126.5 -323.5t-372.5 -109.5q-231 0 -340 103.5t-109 324.5l1 25zM250 1972h139l176 -217l174 217h141l-196 -369h-238z" />
    <glyph glyph-name="guilsinglleft" unicode="&#x2039;" horiz-adv-x="545" 
d="M248 127l-187 379l187 395h237l-180 -395l180 -379h-237z" />
    <glyph glyph-name="OE" unicode="&#x152;" horiz-adv-x="1720" 
d="M836 1245h-125q-98 0 -138 -9.5t-69 -33.5q-46 -38 -66 -132.5t-20 -299.5q0 -251 12 -334t41 -123.5t73 -58.5q22 -8 61.5 -12t105.5 -4h125v1007zM1591 895v-227h-444v-430h502v-238h-815q-17 0 -42 -1t-58 -4l-95 -5q-121 0 -213 24t-150 74q-91 77 -129 223.5
t-38 462.5q0 229 23 346.5t77 196.5q58 86 158.5 127t259.5 41q13 0 37.5 -1t58.5 -4l111 -5h796v-230h-483v-350h444z" />
    <glyph glyph-name="quoteleft" unicode="&#x2018;" horiz-adv-x="451" 
d="M385 1475l-63 -396h-259l140 396h182z" />
    <glyph glyph-name="quoteright" unicode="&#x2019;" horiz-adv-x="451" 
d="M63 1079l72 396h256l-137 -396h-191z" />
    <glyph glyph-name="quotedblleft" unicode="&#x201c;" horiz-adv-x="801" 
d="M387 1475l-59 -396h-265l144 396h180zM735 1475l-59 -396h-262l141 396h180z" />
    <glyph glyph-name="quotedblright" unicode="&#x201d;" horiz-adv-x="801" 
d="M412 1079l65 396h260l-139 -396h-186zM63 1079l64 396h260l-139 -396h-185z" />
    <glyph glyph-name="bullet" unicode="&#x2022;" horiz-adv-x="1208" 
d="M307 762q0 122 87.5 208.5t209.5 86.5q121 0 208 -86.5t87 -208.5t-87.5 -209.5t-209.5 -87.5t-208.5 87.5t-86.5 209.5z" />
    <glyph glyph-name="endash" unicode="&#x2013;" horiz-adv-x="1024" 
d="M0 412v204h1024v-204h-1024z" />
    <glyph glyph-name="emdash" unicode="&#x2014;" horiz-adv-x="2048" 
d="M0 616h2048v-204h-2048v204z" />
    <glyph glyph-name="tilde" unicode="&#x2dc;" horiz-adv-x="1024" 
d="M807 1475q-24 -122 -72 -181t-123 -59h-13q-6 0 -22 2l-32 8l-83 27l-32 7l-29 3q-30 0 -47.5 -19t-26.5 -63h-110q22 122 69 181t122 59h15.5t23.5 -4q11 -1 21.5 -4t21.5 -7l83 -24l24 -6l28 -2q28 0 46.5 20t24.5 62h111z" />
    <glyph glyph-name="trademark" unicode="&#x2122;" horiz-adv-x="1706" 
d="M803 1462h196l127 -332l123 332h197v-547h-135v410l-154 -410h-61l-158 410v-410h-135v547zM207 1462h485v-112h-168v-435h-149v435h-168v112z" />
    <glyph glyph-name="scaron" unicode="&#x161;" horiz-adv-x="920" 
d="M66 340h280v-21q0 -75 28.5 -120t76.5 -45q58 0 93.5 29t35.5 77q0 80 -195 184l-68 35q-165 90 -207 147t-42 142q0 128 102.5 208.5t269.5 80.5q186 0 281.5 -71t95.5 -208l-1 -16l-1 -17l-270 1l1 13l1 19q0 62 -26 92.5t-79 30.5q-46 0 -75 -24.5t-29 -65.5
q0 -65 177 -160l124 -69q122 -73 168.5 -137.5t46.5 -153.5q0 -151 -111.5 -228t-328.5 -77q-167 0 -259 81.5t-92 231.5v24zM146 1526h139l176 -217l174 217h141l-196 -369h-238z" />
    <glyph glyph-name="guilsinglright" unicode="&#x203a;" horiz-adv-x="545" 
d="M297 127h-236l179 379l-179 395h236l188 -395z" />
    <glyph glyph-name="oe" unicode="&#x153;" horiz-adv-x="1548" 
d="M780 88q-57 -57 -125.5 -84t-158.5 -27q-231 0 -323.5 121t-92.5 439q0 278 98.5 397t327.5 119q89 0 159 -26t123 -81q62 56 132 81.5t161 25.5q197 0 297.5 -105t100.5 -309v-156h-551v-106q0 -115 30.5 -168t98.5 -53q65 0 99 53t34 153v19h289v-10
q0 -189 -104 -291.5t-298 -102.5q-98 0 -170 26.5t-127 84.5zM1188 645v86q0 71 -33.5 111.5t-91.5 40.5q-69 0 -101 -49.5t-32 -157.5v-31h258zM369 524q0 -213 32.5 -290.5t114.5 -77.5q81 0 114 75q16 38 24 109.5t8 183.5q0 215 -31 281.5t-117 66.5q-82 0 -114 -69
q-15 -34 -23 -103.5t-8 -175.5z" />
    <glyph glyph-name="Ydieresis" unicode="&#x178;" horiz-adv-x="1096" 
d="M375 0v555l-385 920h342l213 -615l237 615h322l-416 -920v-555h-313zM610 1663v243h226v-243h-226zM262 1663v243h226v-243h-226z" />
    <glyph glyph-name="nonbreakingspace" unicode="&#xa0;" 
 />
    <glyph glyph-name="exclamdown" unicode="&#xa1;" horiz-adv-x="664" 
d="M449 1475v-246h-234v246h234zM436 1079l35 -1079h-278l32 1079h211z" />
    <glyph glyph-name="cent" unicode="&#xa2;" 
d="M379 227l169 650l-20 3l-30 1q-84 0 -117 -73.5t-33 -297.5q0 -88 7.5 -155.5t23.5 -127.5zM664 666v14q0 41 -9 76q-7 33 -24 63l-172 -667l27 -5l26 -2q72 0 112 56t40 159v21h260v-6q0 -192 -103 -295t-299 -103l-54 1h-26q-12 3 -18 4l-49 -168h-109l45 190
q-125 45 -179 159q-26 58 -39 149.5t-13 224.5q0 274 96 394t318 120l81 -4h7l45 172h114l-47 -197q116 -40 173 -126.5t57 -221.5v-8h-260z" />
    <glyph glyph-name="sterling" unicode="&#xa3;" 
d="M72 0v209h127v450h-127v205h127v142q0 131 13 193t46 112q45 69 123 105t184 36q168 0 254 -82t86 -244v-32h-223q0 82 -29 119.5t-92 37.5q-56 0 -82 -33q-24 -33 -24 -143v-211h250v-205h-250v-450h448v-209h-831z" />
    <glyph glyph-name="currency" unicode="&#xa4;" horiz-adv-x="1241" 
d="M623 1161q-113 0 -195 -82t-82 -194q0 -114 81 -195q41 -40 89 -60t107 -20q113 0 194.5 81t81.5 194q0 111 -82 193.5t-194 82.5zM172 1438l205 -203q53 38 114 58q30 10 61.5 15t68.5 5q39 0 67 -4t64 -16q61 -18 116 -58l203 203l105 -107l-203 -205q38 -52 57 -114.5
t19 -126.5q0 -67 -18.5 -126.5t-57.5 -115.5l203 -205l-105 -104l-203 203q-52 -37 -115 -59q-63 -19 -130 -19q-73 0 -133 18.5t-113 59.5l-205 -203l-104 104l202 205q-38 55 -56.5 114t-18.5 128q0 65 18 126t57 115l-202 205z" />
    <glyph glyph-name="yen" unicode="&#xa5;" 
d="M1044 1427l-188 -407h143v-154h-211l-83 -176h294v-153h-358v-537h-283v537h-346v153h283l-74 176h-209v154h144l-170 407h321l207 -593l227 593h303z" />
    <glyph glyph-name="brokenbar" unicode="&#xa6;" horiz-adv-x="1024" 
d="M410 408h206v-758h-206v758zM410 1432h206v-758h-206v758z" />
    <glyph glyph-name="section" unicode="&#xa7;" 
d="M129 39v244q107 -46 184.5 -66t135.5 -20q57 0 90.5 24.5t33.5 65.5q0 60 -154 121l-63 25q-31 13 -49 22q-98 45 -148 109t-50 145q0 79 49.5 148t142.5 122q-72 48 -107.5 107.5t-35.5 130.5q0 124 99 202t261 78q77 0 160.5 -15t173.5 -46v-236q-112 48 -181 69
t-118 21q-52 0 -81.5 -21.5t-29.5 -58.5q0 -57 127 -114l78 -37q150 -73 202 -134t52 -147q0 -69 -37 -128t-133 -138q78 -54 114 -109.5t36 -123.5q0 -144 -115 -224t-326 -80q-87 0 -163.5 15.5t-147.5 48.5zM526 608q67 39 91 70t24 72q0 42 -25.5 73.5t-103.5 75.5
q-77 -24 -109 -58.5t-32 -84.5q0 -51 36 -86t119 -62z" />
    <glyph glyph-name="dieresis" unicode="&#xa8;" horiz-adv-x="1024" 
d="M573 1217v243h226v-243h-226zM225 1217v243h226v-243h-226z" />
    <glyph glyph-name="copyright" unicode="&#xa9;" horiz-adv-x="1706" 
d="M1212 897h-188q-8 70 -53 108.5t-119 38.5q-89 0 -142 -82.5t-53 -226.5q0 -147 51.5 -224t151.5 -77q72 0 116 41.5t54 119.5l193 1q0 -66 -28.5 -122.5t-80.5 -100.5q-101 -84 -260 -84q-186 0 -293.5 118t-107.5 322q0 206 109.5 328.5t293.5 122.5q151 0 250 -78
q51 -40 78.5 -91t27.5 -114zM854 1356q-129 0 -240 -46q-58 -24 -105 -55.5t-93 -78.5q-88 -89 -135.5 -203.5t-47.5 -237.5q0 -127 47 -238t135 -199t202 -135.5t237 -47.5q125 0 237 47q57 23 108 57t97 80q87 85 133 197.5t46 238.5q0 65 -11 122.5t-36 115.5
q-46 114 -134 201.5t-200.5 134.5t-239.5 47zM852 1479q153 0 288 -56t241 -162t161 -243t55 -285q0 -152 -54.5 -283.5t-163 -238t-245.5 -164t-282 -57.5q-148 0 -280 56.5t-242 164.5q-106 104 -162.5 240t-56.5 282q0 150 55.5 284t163.5 245q104 104 237.5 160.5
t284.5 56.5z" />
    <glyph glyph-name="ordfeminine" unicode="&#xaa;" horiz-adv-x="748" 
d="M78 1286v14q0 93 77.5 142t223.5 49q147 0 216 -50.5t69 -158.5v-358v-41.5t4 -52.5q0 -24 5 -49q0 -1 7 -27h-193l-16 82q-30 -39 -87.5 -63.5t-121.5 -24.5q-94 0 -150.5 60.5t-56.5 164.5q0 119 81 179q43 31 109 50t152 19h68v32q0 75 -20 104q-18 29 -66 29
q-51 0 -77 -24.5t-26 -75.5h-198zM465 1110q-116 0 -159.5 -29t-43.5 -102q0 -51 21 -82t61 -31q57 0 89 47t32 136v61z" />
    <glyph glyph-name="guillemotleft" unicode="&#xab;" horiz-adv-x="952" 
d="M629 127l-187 379l187 395h237l-178 -395l178 -379h-237zM276 127l-190 379l190 395h232l-174 -395l174 -379h-232z" />
    <glyph glyph-name="logicalnot" unicode="&#xac;" horiz-adv-x="1706" 
d="M254 864h1198v-502h-199v306h-999v196z" />
    <glyph glyph-name="minus" unicode="&#xad;" horiz-adv-x="569" 
d="M33 375v278h504v-278h-504z" />
    <glyph glyph-name="registered" unicode="&#xae;" horiz-adv-x="1706" 
d="M745 1034v-239h99q88 0 129 27.5t41 88.5q0 64 -44 93.5t-136 29.5h-89zM545 1161h323q175 0 264 -59.5t89 -177.5q0 -80 -48 -138.5t-133 -80.5l185 -369h-224l-157 338h-99v-338h-200v825zM854 1356q-125 0 -236 -45q-55 -22 -103 -54t-93 -77q-88 -88 -138.5 -205.5
t-50.5 -239.5q0 -123 45.5 -235.5t133.5 -200t202.5 -137t237.5 -49.5q62 0 118 11t115 36q114 47 207 135q87 84 135 195.5t48 232.5q0 131 -44 243.5t-133 203.5t-202 138.5t-242 47.5zM852 1479q153 0 289.5 -57.5t244.5 -166.5q101 -103 156 -237.5t55 -284.5
q0 -154 -55.5 -288.5t-162 -238t-244 -160t-283.5 -56.5q-150 0 -286 58t-241 165t-159.5 240.5t-54.5 279.5q0 102 27 198t81 189q101 170 267 264.5t366 94.5z" />
    <glyph glyph-name="macron" unicode="&#xaf;" horiz-adv-x="1024" 
d="M246 1264v151h534v-151h-534z" />
    <glyph glyph-name="degree" unicode="&#xb0;" horiz-adv-x="674" 
d="M338 1335q-71 0 -123.5 -51t-52.5 -123t51 -124t125 -52q72 0 123 51.5t51 124.5q0 72 -51 123t-123 51zM338 1464q125 0 214 -89.5t89 -215.5q0 -125 -89 -214t-216 -89q-126 0 -213.5 87.5t-87.5 215.5q0 127 88.5 216t214.5 89z" />
    <glyph glyph-name="plusminus" unicode="&#xb1;" horiz-adv-x="1706" 
d="M254 197h1198v-199h-1198v199zM752 1223h202v-326h498v-199h-498v-325h-202v325h-498v199h498v326z" />
    <glyph glyph-name="twosuperior" unicode="&#xb2;" horiz-adv-x="666" 
d="M57 569v156q184 200 273.5 326.5t89.5 187.5q0 35 -20.5 55.5t-57.5 20.5q-39 0 -60.5 -25t-21.5 -73v-16l2 -9h-188v25q0 106 66.5 164.5t189.5 58.5q131 0 202.5 -56t71.5 -159q0 -96 -73 -210.5t-275 -316.5h352v-129h-551z" />
    <glyph glyph-name="threesuperior" unicode="&#xb3;" horiz-adv-x="666" 
d="M62 805l188 -1q0 -64 19.5 -92t64.5 -28q43 0 60.5 29.5t17.5 99.5q0 81 -29 110t-111 29h-32v135h12q92 0 120.5 24.5t28.5 100.5q0 58 -18.5 84.5t-58.5 26.5q-33 0 -52.5 -25.5t-19.5 -72.5v-8h-182l-2 9v17q0 99 63 148t197 49q138 0 200 -54.5t62 -179.5
q0 -78 -30.5 -123.5t-92.5 -60.5q74 -16 106.5 -63.5t32.5 -147.5q0 -129 -70 -192.5t-217 -63.5q-130 0 -195 54.5t-65 164.5v19z" />
    <glyph glyph-name="acute" unicode="&#xb4;" horiz-adv-x="1024" 
d="M805 1526l-313 -369h-142l197 369h258z" />
    <glyph glyph-name="mu" unicode="&#xb5;" horiz-adv-x="1249" 
d="M205 1092h289l-76 -435q-7 -36 -12 -70.5t-10 -76t-7 -68.5t-2 -53q0 -92 42 -138t128 -46q98 0 154.5 81.5t93.5 291.5l90 514h289l-193 -1092h-268l18 117q-42 -79 -93.5 -114.5t-121.5 -35.5q-65 0 -117.5 29t-95.5 92l-90 -526h-286z" />
    <glyph glyph-name="paragraph" unicode="&#xb6;" horiz-adv-x="1024" 
d="M983 1479v-111h-113v-1368h-151v1368h-158v-1368h-153v784q-83 0 -149 25.5t-118 75.5q-100 95 -100 245q0 158 107 253.5t284 95.5h551z" />
    <glyph glyph-name="periodcentered" unicode="&#x2219;" horiz-adv-x="506" 
d="M102 715q0 59 42 102t104 43q59 0 102 -42t43 -103q0 -60 -42 -103t-103 -43q-60 0 -103 42t-43 104z" />
    <glyph glyph-name="cedilla" unicode="&#xb8;" horiz-adv-x="1024" 
d="M231 -438v129q26 -7 64.5 -15.5t81.5 -16.5q29 -5 58 -8t52 -3q51 0 76 17.5t25 55.5t-28.5 54t-92.5 16h-35q-15 0 -22 -2v211h102v-90h14q117 0 176.5 -48t59.5 -143q0 -99 -66.5 -149.5t-197.5 -50.5q-57 0 -120 11q-32 5 -70.5 13t-76.5 19z" />
    <glyph glyph-name="onesuperior" unicode="&#xb9;" horiz-adv-x="666" 
d="M264 569v654q-48 -37 -90 -61q-34 -19 -70 -29v161q48 17 93 49.5t94 81.5h162v-856h-189z" />
    <glyph glyph-name="ordmasculine" unicode="&#xba;" horiz-adv-x="758" 
d="M385 1491q164 0 238.5 -84.5t74.5 -278.5q0 -223 -69.5 -307t-249.5 -84q-178 0 -249 84t-71 307q0 195 75 279t251 84zM279 1120q0 -151 21 -204.5t79 -53.5q56 0 80 53q22 55 22 205q0 148 -21.5 196t-80.5 48q-57 0 -78.5 -48.5t-21.5 -195.5z" />
    <glyph glyph-name="guillemotright" unicode="&#xbb;" horiz-adv-x="952" 
d="M324 127h-238l178 379l-178 395h238l186 -395zM676 127h-232l174 379l-174 395h232l190 -395z" />
    <glyph glyph-name="onequarter" unicode="&#xbc;" horiz-adv-x="1614" 
d="M1315 0v186h-281v162l219 451h238v-496h70v-117h-70v-186h-176zM1337 303l6 395l-36 -90l-39 -94l-99 -211h168zM295 -25l850 1475h174l-848 -1475h-176zM252 627v608q-53 -35 -92 -56q-14 -8 -29 -14.5t-31 -11.5v150q42 14 83 43t96 79h153v-798h-180z" />
    <glyph glyph-name="onehalf" unicode="&#xbd;" horiz-adv-x="1614" 
d="M1034 0v145q171 183 257.5 303.5t86.5 176.5q0 34 -18.5 52.5t-54.5 18.5t-57 -24q-19 -24 -19 -68v-24h-178l-1 12l-1 12q0 99 63 153t182 54q126 0 194 -51.5t68 -147.5q0 -87 -68 -193t-265 -298h338v-121h-527zM295 -25l850 1475h174l-848 -1475h-176zM252 627v608
q-53 -35 -92 -56q-14 -8 -29 -14.5t-31 -11.5v150q42 14 83 43t96 79h153v-798h-180z" />
    <glyph glyph-name="threequarters" unicode="&#xbe;" horiz-adv-x="1614" 
d="M1315 0v186h-281v162l219 451h238v-496h70v-117h-70v-186h-176zM1337 303l6 395l-36 -90l-39 -94l-99 -211h168zM295 -25l850 1475h174l-848 -1475h-176zM57 848h182q0 -32 5 -53t15 -36q18 -24 60 -24q39 0 56.5 27.5t17.5 91.5q0 75 -28 103t-105 28l-14 -1l-17 -1v127
h11q89 0 116 23t27 94q0 52 -18 78t-56 26q-33 0 -51 -24.5t-18 -69.5v-6h-174v24q0 93 60 138t187 45q131 0 190.5 -51t59.5 -166q0 -73 -28 -115t-89 -55q73 -18 102.5 -61t29.5 -138q0 -120 -67.5 -180t-205.5 -60q-124 0 -186 51.5t-62 155.5v29z" />
    <glyph glyph-name="questiondown" unicode="&#xbf;" horiz-adv-x="854" 
d="M551 1475v-246h-234v246h234zM541 1073v-145q0 -36 -3 -66t-10 -57q-13 -52 -41 -109q-21 -44 -72 -130q-98 -161 -98 -249q0 -66 29 -104q31 -37 82 -37q65 0 94 51t29 166h252l1 -19l1 -28q0 -179 -98 -277t-277 -98q-180 0 -279.5 90.5t-99.5 255.5q0 190 177 408
l12 15l10 12q82 99 82 204v117h209z" />
    <glyph glyph-name="Agrave" unicode="&#xc0;" horiz-adv-x="1262" 
d="M465 555h315l-153 639zM915 0l-79 328h-428l-78 -328h-310l416 1475h393l410 -1475h-324zM338 1972h258l197 -369h-142z" />
    <glyph glyph-name="Aacute" unicode="&#xc1;" horiz-adv-x="1262" 
d="M465 555h315l-153 639zM915 0l-79 328h-428l-78 -328h-310l416 1475h393l410 -1475h-324zM924 1972l-313 -369h-142l197 369h258z" />
    <glyph glyph-name="Acircumflex" unicode="&#xc2;" horiz-adv-x="1262" 
d="M465 555h315l-153 639zM915 0l-79 328h-428l-78 -328h-310l416 1475h393l410 -1475h-324zM316 1603l196 369h238l196 -369h-141l-174 217l-176 -217h-139z" />
    <glyph glyph-name="Atilde" unicode="&#xc3;" horiz-adv-x="1262" 
d="M465 555h315l-153 639zM915 0l-79 328h-428l-78 -328h-310l416 1475h393l410 -1475h-324zM926 1921q-24 -122 -72 -181t-123 -59h-13q-6 0 -22 2l-32 8l-83 27l-32 7l-29 3q-30 0 -47.5 -19t-26.5 -63h-110q22 122 69 181t122 59h15.5t23.5 -4q11 -1 21.5 -4t21.5 -7
l83 -24l24 -6l28 -2q28 0 46.5 20t24.5 62h111z" />
    <glyph glyph-name="Adieresis" unicode="&#xc4;" horiz-adv-x="1262" 
d="M465 555h315l-153 639zM915 0l-79 328h-428l-78 -328h-310l416 1475h393l410 -1475h-324zM692 1663v243h226v-243h-226zM344 1663v243h226v-243h-226z" />
    <glyph glyph-name="Aring" unicode="&#xc5;" horiz-adv-x="1262" 
d="M510 1706q0 -55 35.5 -91t89.5 -36q53 0 90 37t37 90q0 52 -36.5 88.5t-90.5 36.5t-89.5 -35.5t-35.5 -89.5zM465 555h315l-153 639zM915 0l-79 328h-428l-78 -328h-310l420 1475h68q-67 37 -103 95.5t-36 135.5q0 111 77.5 188.5t188.5 77.5q110 0 188 -77.5t78 -188.5
q0 -78 -35 -135.5t-104 -95.5h67l410 -1475h-324z" />
    <glyph glyph-name="AE" unicode="&#xc6;" horiz-adv-x="1569" 
d="M786 0l-51 322h-385l-78 -322h-286l372 1475h1115v-224h-605l62 -356h506v-227h-463l78 -430h440v-238h-705zM580 1294l-179 -745h295z" />
    <glyph glyph-name="Ccedilla" unicode="&#xc7;" horiz-adv-x="1147" 
d="M500 -15q-45 8 -83 19q-89 28 -141 74q-90 78 -128.5 224t-38.5 470q0 118 5 199t18 147q24 123 78.5 205.5t157 126t238.5 43.5q223 0 337 -114t114 -339v-28h-309v28q0 117 -36.5 173.5t-111.5 56.5q-102 0 -142 -99t-40 -460q0 -303 40.5 -403.5t145.5 -100.5
q75 0 112.5 61t37.5 185l-1 24l-1 27h312l2 -26l1 -42q0 -220 -119 -339.5t-340 -119.5h-6v-67h14q117 0 176.5 -48t59.5 -143q0 -99 -66.5 -149.5t-197.5 -50.5q-57 0 -120 11q-32 5 -70.5 13t-76.5 19v129q26 -7 64.5 -15.5t81.5 -16.5q29 -5 58 -8t52 -3q51 0 76 17.5
t25 55.5t-28.5 54t-92.5 16h-35q-15 0 -22 -2v196z" />
    <glyph glyph-name="Egrave" unicode="&#xc8;" horiz-adv-x="1022" 
d="M131 0v1475h797v-228h-486v-352h447v-227h-447v-430h504v-238h-815zM237 1972h258l197 -369h-142z" />
    <glyph glyph-name="Eacute" unicode="&#xc9;" horiz-adv-x="1022" 
d="M131 0v1475h797v-228h-486v-352h447v-227h-447v-430h504v-238h-815zM823 1972l-313 -369h-142l197 369h258z" />
    <glyph glyph-name="Ecircumflex" unicode="&#xca;" horiz-adv-x="1022" 
d="M131 0v1475h797v-228h-486v-352h447v-227h-447v-430h504v-238h-815zM215 1603l196 369h238l196 -369h-141l-174 217l-176 -217h-139z" />
    <glyph glyph-name="Edieresis" unicode="&#xcb;" horiz-adv-x="1022" 
d="M131 0v1475h797v-228h-486v-352h447v-227h-447v-430h504v-238h-815zM591 1663v243h226v-243h-226zM243 1663v243h226v-243h-226z" />
    <glyph glyph-name="Igrave" unicode="&#xcc;" horiz-adv-x="569" 
d="M133 0v1475h301v-1475h-301zM-8 1972h258l197 -369h-142z" />
    <glyph glyph-name="Iacute" unicode="&#xcd;" horiz-adv-x="569" 
d="M133 0v1475h301v-1475h-301zM578 1972l-313 -369h-142l197 369h258z" />
    <glyph glyph-name="Icircumflex" unicode="&#xce;" horiz-adv-x="569" 
d="M133 0v1475h301v-1475h-301zM-30 1603l196 369h238l196 -369h-141l-174 217l-176 -217h-139z" />
    <glyph glyph-name="Idieresis" unicode="&#xcf;" horiz-adv-x="569" 
d="M133 0v1475h301v-1475h-301zM346 1663v243h226v-243h-226zM-2 1663v243h226v-243h-226z" />
    <glyph glyph-name="Eth" unicode="&#xd0;" horiz-adv-x="1208" 
d="M1096 776v-749q-75 -14 -130 -22t-122 -16q-102 -12 -187 -12q-136 0 -228.5 24.5t-152.5 76.5q-90 80 -128.5 226t-38.5 468q0 118 5 199t18 147q24 123 80 206t159 126q52 21 115 32t139 11q229 0 350 -115t121 -336v-22h-303v18q0 125 -43.5 185.5t-133.5 60.5
q-113 0 -155.5 -100t-42.5 -443q0 -359 51 -453.5t193 -94.5q25 0 41.5 2l31.5 4t33.5 5.5t46.5 10.5v330h-170v231h451zM318 1939h118q0 -38 11.5 -66t34.5 -48q41 -36 122 -36q80 0 120 35.5t48 114.5h118q0 -74 -21 -132.5t-58 -97.5q-70 -73 -207 -73t-207 74
q-37 40 -58 96.5t-21 132.5z" />
    <glyph glyph-name="Ntilde" unicode="&#xd1;" horiz-adv-x="1356" 
d="M131 0v1475h414l282 -766q48 -128 87.5 -258.5t66.5 -253.5q-6 48 -11.5 101t-5.5 99q0 33 -3 109t-3 119l-18 850h285v-1475h-404l-299 807q-17 47 -33.5 98.5l-36 116l-39 134.5l-40.5 149l17 -246q0 -36 3.5 -102t3.5 -78l17 -879h-283zM973 1921q-24 -122 -72 -181
t-123 -59h-13q-6 0 -22 2l-32 8l-83 27l-32 7l-29 3q-30 0 -47.5 -19t-26.5 -63h-110q22 122 69 181t122 59h15.5t23.5 -4q11 -1 21.5 -4t21.5 -7l83 -24l24 -6l28 -2q28 0 46.5 20t24.5 62h111z" />
    <glyph glyph-name="Ograve" unicode="&#xd2;" horiz-adv-x="1214" 
d="M608 -23q-101 0 -190.5 27.5t-141.5 73.5q-89 77 -129.5 228t-40.5 448q0 228 24 358.5t78.5 211t157 125t240.5 44.5q106 0 194 -27.5t144 -76.5q87 -76 124.5 -213.5t37.5 -403.5q0 -277 -24 -406.5t-81 -215.5q-53 -80 -156 -126.5t-237 -46.5zM416 741
q0 -327 41 -430.5t147 -103.5q109 0 151 100.5t42 448.5q0 310 -41 409t-148 99t-149.5 -102.5t-42.5 -420.5zM315 1972h258l197 -369h-142z" />
    <glyph glyph-name="Oacute" unicode="&#xd3;" horiz-adv-x="1214" 
d="M608 -23q-101 0 -190.5 27.5t-141.5 73.5q-89 77 -129.5 228t-40.5 448q0 228 24 358.5t78.5 211t157 125t240.5 44.5q106 0 194 -27.5t144 -76.5q87 -76 124.5 -213.5t37.5 -403.5q0 -277 -24 -406.5t-81 -215.5q-53 -80 -156 -126.5t-237 -46.5zM416 741
q0 -327 41 -430.5t147 -103.5q109 0 151 100.5t42 448.5q0 310 -41 409t-148 99t-149.5 -102.5t-42.5 -420.5zM901 1972l-313 -369h-142l197 369h258z" />
    <glyph glyph-name="Ocircumflex" unicode="&#xd4;" horiz-adv-x="1214" 
d="M608 -23q-101 0 -190.5 27.5t-141.5 73.5q-89 77 -129.5 228t-40.5 448q0 228 24 358.5t78.5 211t157 125t240.5 44.5q106 0 194 -27.5t144 -76.5q87 -76 124.5 -213.5t37.5 -403.5q0 -277 -24 -406.5t-81 -215.5q-53 -80 -156 -126.5t-237 -46.5zM416 741
q0 -327 41 -430.5t147 -103.5q109 0 151 100.5t42 448.5q0 310 -41 409t-148 99t-149.5 -102.5t-42.5 -420.5zM293 1603l196 369h238l196 -369h-141l-174 217l-176 -217h-139z" />
    <glyph glyph-name="Otilde" unicode="&#xd5;" horiz-adv-x="1214" 
d="M608 -23q-101 0 -190.5 27.5t-141.5 73.5q-89 77 -129.5 228t-40.5 448q0 228 24 358.5t78.5 211t157 125t240.5 44.5q106 0 194 -27.5t144 -76.5q87 -76 124.5 -213.5t37.5 -403.5q0 -277 -24 -406.5t-81 -215.5q-53 -80 -156 -126.5t-237 -46.5zM416 741
q0 -327 41 -430.5t147 -103.5q109 0 151 100.5t42 448.5q0 310 -41 409t-148 99t-149.5 -102.5t-42.5 -420.5zM903 1921q-24 -122 -72 -181t-123 -59h-13q-6 0 -22 2l-32 8l-83 27l-32 7l-29 3q-30 0 -47.5 -19t-26.5 -63h-110q22 122 69 181t122 59h15.5t23.5 -4
q11 -1 21.5 -4t21.5 -7l83 -24l24 -6l28 -2q28 0 46.5 20t24.5 62h111z" />
    <glyph glyph-name="Odieresis" unicode="&#xd6;" horiz-adv-x="1214" 
d="M608 -23q-101 0 -190.5 27.5t-141.5 73.5q-89 77 -129.5 228t-40.5 448q0 228 24 358.5t78.5 211t157 125t240.5 44.5q106 0 194 -27.5t144 -76.5q87 -76 124.5 -213.5t37.5 -403.5q0 -277 -24 -406.5t-81 -215.5q-53 -80 -156 -126.5t-237 -46.5zM416 741
q0 -327 41 -430.5t147 -103.5q109 0 151 100.5t42 448.5q0 310 -41 409t-148 99t-149.5 -102.5t-42.5 -420.5zM669 1663v243h226v-243h-226zM321 1663v243h226v-243h-226z" />
    <glyph glyph-name="multiply" unicode="&#xd7;" horiz-adv-x="1706" 
d="M416 1202l450 -450l451 450l141 -139l-450 -453l450 -450l-141 -140l-451 451l-450 -451l-140 140l451 450l-451 453z" />
    <glyph glyph-name="Oslash" unicode="&#xd8;" horiz-adv-x="1214" 
d="M793 872l-351 -524q13 -65 56.5 -103t105.5 -38q106 0 149.5 100t43.5 363l-4 185v17zM418 530l362 540q0 45 -12.5 81t-36.5 62q-44 51 -123 51q-109 0 -150.5 -105.5t-41.5 -460.5v-27zM281 74l-121 -172l-127 84l147 217q-37 75 -54 206.5t-17 372.5
q0 400 115.5 558.5t393.5 158.5q114 0 195 -31.5t143 -99.5l113 158l125 -84l-145 -215q29 -67 43 -177t14 -284q0 -272 -24 -402t-81 -217q-52 -79 -154.5 -124.5t-232.5 -45.5q-109 0 -193 24.5t-140 72.5z" />
    <glyph glyph-name="Ugrave" unicode="&#xd9;" horiz-adv-x="1266" 
d="M1135 1475v-924q0 -308 -117.5 -442t-384.5 -134q-257 0 -379.5 130t-122.5 403v967h307v-887q0 -253 42.5 -321t156.5 -68q108 0 151 76q21 38 32 115.5t11 197.5v887h304zM340 1972h258l197 -369h-142z" />
    <glyph glyph-name="Uacute" unicode="&#xda;" horiz-adv-x="1266" 
d="M1135 1475v-924q0 -308 -117.5 -442t-384.5 -134q-257 0 -379.5 130t-122.5 403v967h307v-887q0 -253 42.5 -321t156.5 -68q108 0 151 76q21 38 32 115.5t11 197.5v887h304zM926 1972l-313 -369h-142l197 369h258z" />
    <glyph glyph-name="Ucircumflex" unicode="&#xdb;" horiz-adv-x="1266" 
d="M1135 1475v-924q0 -308 -117.5 -442t-384.5 -134q-257 0 -379.5 130t-122.5 403v967h307v-887q0 -253 42.5 -321t156.5 -68q108 0 151 76q21 38 32 115.5t11 197.5v887h304zM318 1603l196 369h238l196 -369h-141l-174 217l-176 -217h-139z" />
    <glyph glyph-name="Udieresis" unicode="&#xdc;" horiz-adv-x="1266" 
d="M1135 1475v-924q0 -308 -117.5 -442t-384.5 -134q-257 0 -379.5 130t-122.5 403v967h307v-887q0 -253 42.5 -321t156.5 -68q108 0 151 76q21 38 32 115.5t11 197.5v887h304zM694 1663v243h226v-243h-226zM346 1663v243h226v-243h-226z" />
    <glyph glyph-name="Yacute" unicode="&#xdd;" horiz-adv-x="569" 
d="M133 0v1475h301v-1475h-301zM168 1656v256h236v-256h-236z" />
    <glyph glyph-name="Thorn" unicode="&#xde;" horiz-adv-x="1128" 
d="M463 -22q-174 15 -265 100q-108 104 -108 325l1 25l1 27h314v-39q0 -115 38.5 -163t128.5 -48q70 0 112 43.5t42 118.5q0 104 -196 233l-19 12l-71 46q-55 36 -94 64q-32 22 -52 38q-24 19 -39 33q-81 74 -111 139.5t-30 161.5q0 184 126.5 294.5t340.5 110.5
q219 0 331.5 -102.5t112.5 -302.5v-39h-305v8q0 105 -38 156q-36 53 -112 53q-68 0 -108.5 -41.5t-40.5 -110.5q0 -118 256 -271l102 -63q144 -91 201 -176t57 -202q0 -214 -126 -324q-62 -52 -148.5 -80.5t-198.5 -28.5v-65h14q117 0 176.5 -48t59.5 -143
q0 -99 -66.5 -149.5t-197.5 -50.5q-57 0 -120 11q-32 5 -70.5 13t-76.5 19v129q26 -7 64.5 -15.5t81.5 -16.5q29 -5 58 -8t52 -3q51 0 76 17.5t25 55.5t-28.5 54t-92.5 16h-35q-15 0 -22 -2v189z" />
    <glyph glyph-name="germandbls" unicode="&#xdf;" horiz-adv-x="1087" 
d="M96 0v1079q0 213 111.5 313.5t349.5 100.5q192 0 294.5 -78.5t102.5 -224.5q0 -31 -4 -54t-15 -49q-18 -44 -69 -106l-33 -36q-61 -67 -61 -105q0 -57 174 -245l17 -17q48 -53 73 -111.5t25 -130.5q0 -164 -105 -255t-299 -91l-62 3q-30 0 -73 8v197l47 -4l43 -1
q91 0 137 28.5t46 87.5q0 68 -132 220l-30 34l-13 15q-122 140 -122 208q0 64 69 145l17 20q67 78 88.5 124.5t21.5 95.5q0 62 -43.5 105t-107.5 43q-38 0 -69 -14q-32 -12 -52 -34t-32 -60q-9 -35 -9 -107v-78v-1026h-285z" />
    <glyph glyph-name="agrave" unicode="&#xe0;" horiz-adv-x="995" 
d="M102 760v20q0 133 103 203t301 70q194 0 286.5 -72t92.5 -227v-512q0 -34 1 -66t4 -63q0 -27 1.5 -39.5t13.5 -73.5h-256l-22 117q-39 -55 -116 -90t-161 -35q-126 0 -201 87t-75 234q0 172 108 256q56 44 141 69q94 28 207 28h91v47q0 104 -26.5 148t-88.5 44
q-67 0 -102 -37t-35 -108h-267zM621 510q-154 0 -213.5 -41.5t-59.5 -146.5q0 -76 29.5 -118t81.5 -42q78 0 120 66t42 192v90zM235 1526h258l197 -369h-142z" />
    <glyph glyph-name="aacute" unicode="&#xe1;" horiz-adv-x="995" 
d="M102 760v20q0 133 103 203t301 70q194 0 286.5 -72t92.5 -227v-512q0 -34 1 -66t4 -63q0 -27 1.5 -39.5t13.5 -73.5h-256l-22 117q-39 -55 -116 -90t-161 -35q-126 0 -201 87t-75 234q0 172 108 256q56 44 141 69q94 28 207 28h91v47q0 104 -26.5 148t-88.5 44
q-67 0 -102 -37t-35 -108h-267zM621 510q-154 0 -213.5 -41.5t-59.5 -146.5q0 -76 29.5 -118t81.5 -42q78 0 120 66t42 192v90zM821 1526l-313 -369h-142l197 369h258z" />
    <glyph glyph-name="acircumflex" unicode="&#xe2;" horiz-adv-x="995" 
d="M102 760v20q0 133 103 203t301 70q194 0 286.5 -72t92.5 -227v-512q0 -34 1 -66t4 -63q0 -27 1.5 -39.5t13.5 -73.5h-256l-22 117q-39 -55 -116 -90t-161 -35q-126 0 -201 87t-75 234q0 172 108 256q56 44 141 69q94 28 207 28h91v47q0 104 -26.5 148t-88.5 44
q-67 0 -102 -37t-35 -108h-267zM621 510q-154 0 -213.5 -41.5t-59.5 -146.5q0 -76 29.5 -118t81.5 -42q78 0 120 66t42 192v90zM213 1157l196 369h238l196 -369h-141l-174 217l-176 -217h-139z" />
    <glyph glyph-name="atilde" unicode="&#xe3;" horiz-adv-x="995" 
d="M102 760v20q0 133 103 203t301 70q194 0 286.5 -72t92.5 -227v-512q0 -34 1 -66t4 -63q0 -27 1.5 -39.5t13.5 -73.5h-256l-22 117q-39 -55 -116 -90t-161 -35q-126 0 -201 87t-75 234q0 172 108 256q56 44 141 69q94 28 207 28h91v47q0 104 -26.5 148t-88.5 44
q-67 0 -102 -37t-35 -108h-267zM621 510q-154 0 -213.5 -41.5t-59.5 -146.5q0 -76 29.5 -118t81.5 -42q78 0 120 66t42 192v90zM823 1475q-24 -122 -72 -181t-123 -59h-13q-6 0 -22 2l-32 8l-83 27l-32 7l-29 3q-30 0 -47.5 -19t-26.5 -63h-110q22 122 69 181t122 59h15.5
t23.5 -4q11 -1 21.5 -4t21.5 -7l83 -24l24 -6l28 -2q28 0 46.5 20t24.5 62h111z" />
    <glyph glyph-name="adieresis" unicode="&#xe4;" horiz-adv-x="995" 
d="M102 760v20q0 133 103 203t301 70q194 0 286.5 -72t92.5 -227v-512q0 -34 1 -66t4 -63q0 -27 1.5 -39.5t13.5 -73.5h-256l-22 117q-39 -55 -116 -90t-161 -35q-126 0 -201 87t-75 234q0 172 108 256q56 44 141 69q94 28 207 28h91v47q0 104 -26.5 148t-88.5 44
q-67 0 -102 -37t-35 -108h-267zM621 510q-154 0 -213.5 -41.5t-59.5 -146.5q0 -76 29.5 -118t81.5 -42q78 0 120 66t42 192v90zM589 1217v243h226v-243h-226zM241 1217v243h226v-243h-226z" />
    <glyph glyph-name="aring" unicode="&#xe5;" horiz-adv-x="995" 
d="M387 1374q0 -55 36 -90t89 -35q52 0 89.5 36.5t37.5 88.5q0 53 -37 90t-90 37q-52 0 -88.5 -36.5t-36.5 -90.5zM246 1376q0 111 77 187.5t189 76.5t189 -76t77 -188t-77 -189t-189 -77t-189 77t-77 189zM621 510q-154 0 -213.5 -41.5t-59.5 -146.5q0 -76 29.5 -118
t81.5 -42q78 0 120 66t42 192v90zM102 760v20q0 133 103 203t301 70q194 0 286.5 -72t92.5 -227v-512q0 -34 1 -66t4 -63q0 -27 1.5 -39.5t13.5 -73.5h-256l-22 117q-39 -55 -116 -90t-161 -35q-126 0 -201 87t-75 234q0 172 108 256q56 44 141 69q94 28 207 28h91v47
q0 104 -26.5 148t-88.5 44q-67 0 -102 -37t-35 -108h-267z" />
    <glyph glyph-name="ae" unicode="&#xe6;" horiz-adv-x="1516" 
d="M895 483v-106q0 -116 30 -168.5t97 -52.5q66 0 100.5 53t34.5 156v16h287q0 -201 -105.5 -302.5t-314.5 -101.5q-132 0 -217 36t-131 112q-69 -70 -139 -102.5t-152 -32.5q-146 0 -224.5 83.5t-78.5 239.5q0 172 108 256q56 44 141 69q94 28 208 28h90v47
q0 105 -26.5 148.5t-88.5 43.5q-65 0 -100 -37t-35 -108h-266v22q0 131 101.5 201t289.5 70q54 0 93 -5t74 -18q65 -22 105 -72q50 47 118 71t157 24q191 0 293 -106q50 -53 75 -129t25 -179v-156h-549zM1153 645v86q0 71 -33 112.5t-92 41.5q-67 0 -100 -52t-33 -157v-31
h258zM631 510q-155 0 -214 -41.5t-59 -146.5q0 -76 29.5 -118t81.5 -42q78 0 120 66t42 192v90z" />
    <glyph glyph-name="ccedilla" unicode="&#xe7;" horiz-adv-x="995" 
d="M396 -16q-153 22 -223 112q-93 119 -93 441q0 276 99 396t327 120q199 0 308.5 -98.5t109.5 -278.5v-10h-287v10q0 99 -33.5 147.5t-99.5 48.5q-75 0 -104 -69t-29 -279q0 -218 29.5 -293t105.5 -75q63 0 97 53.5t34 152.5v19h287q0 -201 -104.5 -302.5t-313.5 -101.5h-8
v-67h14q117 0 176.5 -48t59.5 -143q0 -99 -66.5 -149.5t-197.5 -50.5q-57 0 -120 11q-32 5 -70.5 13t-76.5 19v129q26 -7 64.5 -15.5t81.5 -16.5q29 -5 58 -8t52 -3q51 0 76 17.5t25 55.5t-28.5 54t-92.5 16h-35q-15 0 -22 -2v195z" />
    <glyph glyph-name="egrave" unicode="&#xe8;" horiz-adv-x="995" 
d="M375 645h258v86q0 72 -33.5 113t-93.5 41q-64 0 -97.5 -51.5t-33.5 -153.5v-35zM637 381h287q0 -201 -104.5 -302.5t-313.5 -101.5q-239 0 -332.5 119t-93.5 441q0 276 99 396t327 120q212 0 315 -103t103 -311v-156h-549v-106q0 -115 30.5 -168t98.5 -53q65 0 99 53
t34 153v19zM219 1526h258l197 -369h-142z" />
    <glyph glyph-name="eacute" unicode="&#xe9;" horiz-adv-x="995" 
d="M375 645h258v86q0 72 -33.5 113t-93.5 41q-64 0 -97.5 -51.5t-33.5 -153.5v-35zM637 381h287q0 -201 -104.5 -302.5t-313.5 -101.5q-239 0 -332.5 119t-93.5 441q0 276 99 396t327 120q212 0 315 -103t103 -311v-156h-549v-106q0 -115 30.5 -168t98.5 -53q65 0 99 53
t34 153v19zM805 1526l-313 -369h-142l197 369h258z" />
    <glyph glyph-name="ecircumflex" unicode="&#xea;" horiz-adv-x="995" 
d="M375 645h258v86q0 72 -33.5 113t-93.5 41q-64 0 -97.5 -51.5t-33.5 -153.5v-35zM637 381h287q0 -201 -104.5 -302.5t-313.5 -101.5q-239 0 -332.5 119t-93.5 441q0 276 99 396t327 120q212 0 315 -103t103 -311v-156h-549v-106q0 -115 30.5 -168t98.5 -53q65 0 99 53
t34 153v19zM197 1157l196 369h238l196 -369h-141l-174 217l-176 -217h-139z" />
    <glyph glyph-name="edieresis" unicode="&#xeb;" horiz-adv-x="995" 
d="M375 645h258v86q0 72 -33.5 113t-93.5 41q-64 0 -97.5 -51.5t-33.5 -153.5v-35zM637 381h287q0 -201 -104.5 -302.5t-313.5 -101.5q-239 0 -332.5 119t-93.5 441q0 276 99 396t327 120q212 0 315 -103t103 -311v-156h-549v-106q0 -115 30.5 -168t98.5 -53q65 0 99 53
t34 153v19zM573 1217v243h226v-243h-226zM225 1217v243h226v-243h-226z" />
    <glyph glyph-name="igrave" unicode="&#xec;" horiz-adv-x="485" 
d="M387 1028v-1028h-289v1028h289zM-49 1526h258l197 -369h-142z" />
    <glyph glyph-name="iacute" unicode="&#xed;" horiz-adv-x="485" 
d="M387 1028v-1028h-289v1028h289zM537 1526l-313 -369h-142l197 369h258z" />
    <glyph glyph-name="icircumflex" unicode="&#xee;" horiz-adv-x="485" 
d="M387 1028v-1028h-289v1028h289zM-71 1157l196 369h238l196 -369h-141l-174 217l-176 -217h-139z" />
    <glyph glyph-name="idieresis" unicode="&#xef;" horiz-adv-x="485" 
d="M387 1028v-1028h-289v1028h289zM305 1217v243h226v-243h-226zM-43 1217v243h226v-243h-226z" />
    <glyph glyph-name="eth" unicode="&#xf0;" horiz-adv-x="995" 
d="M606 618q0 153 -28 208t-97 55q-65 0 -90.5 -57.5t-25.5 -295.5v-24q0 -107 6 -175t20 -103q27 -66 94 -66q60 0 90.5 57.5t30.5 177.5v223zM889 20q0 -238 -90.5 -330.5t-315.5 -92.5q-183 0 -283 74t-100 210v13l277 -1q0 -36 7 -59.5t21 -40.5q26 -29 87 -29
q59 0 85 33q12 16 20.5 62.5t8.5 111.5v117q-54 -57 -114 -85t-125 -28q-153 0 -220 119.5t-67 403.5q0 98 3 167.5t10 116.5q14 88 46.5 146t97 91.5t142.5 33.5q79 0 137.5 -32t89.5 -91l10 98h281l-6 -118l-2 -109v-781zM212 1493h118q0 -38 11.5 -66t34.5 -48
q41 -36 122 -36q80 0 120 35.5t48 114.5h118q0 -74 -21 -132.5t-58 -97.5q-70 -73 -207 -73t-207 74q-37 40 -58 96.5t-21 132.5z" />
    <glyph glyph-name="ntilde" unicode="&#xf1;" horiz-adv-x="1008" 
d="M395 0h-289v844q0 24 -0.5 51t-1.5 58q0 16 -1.5 35t-5.5 40h290l8 -106q34 62 93.5 96.5t136.5 34.5q135 0 206.5 -69.5t71.5 -201.5v-782h-289v702q0 99 -21.5 137t-74.5 38q-56 0 -89.5 -39.5t-33.5 -106.5v-731zM799 1475q-24 -122 -72 -181t-123 -59h-13q-6 0 -22 2
l-32 8l-83 27l-32 7l-29 3q-30 0 -47.5 -19t-26.5 -63h-110q22 122 69 181t122 59h15.5t23.5 -4q11 -1 21.5 -4t21.5 -7l83 -24l24 -6l28 -2q28 0 46.5 20t24.5 62h111z" />
    <glyph glyph-name="ograve" unicode="&#xf2;" 
d="M512 1053q221 0 319.5 -119.5t98.5 -396.5q0 -322 -93.5 -441t-330.5 -119q-239 0 -332.5 119t-93.5 441q0 279 99.5 397.5t332.5 118.5zM371 524q0 -218 29.5 -293t105.5 -75q75 0 105 75t30 293q0 212 -29.5 280t-107.5 68q-75 0 -104 -69t-29 -279zM213 1526h258
l197 -369h-142z" />
    <glyph glyph-name="oacute" unicode="&#xf3;" 
d="M512 1053q221 0 319.5 -119.5t98.5 -396.5q0 -322 -93.5 -441t-330.5 -119q-239 0 -332.5 119t-93.5 441q0 279 99.5 397.5t332.5 118.5zM371 524q0 -218 29.5 -293t105.5 -75q75 0 105 75t30 293q0 212 -29.5 280t-107.5 68q-75 0 -104 -69t-29 -279zM799 1526
l-313 -369h-142l197 369h258z" />
    <glyph glyph-name="ocircumflex" unicode="&#xf4;" 
d="M512 1053q221 0 319.5 -119.5t98.5 -396.5q0 -322 -93.5 -441t-330.5 -119q-239 0 -332.5 119t-93.5 441q0 279 99.5 397.5t332.5 118.5zM371 524q0 -218 29.5 -293t105.5 -75q75 0 105 75t30 293q0 212 -29.5 280t-107.5 68q-75 0 -104 -69t-29 -279zM191 1157l196 369
h238l196 -369h-141l-174 217l-176 -217h-139z" />
    <glyph glyph-name="otilde" unicode="&#xf5;" 
d="M512 1053q221 0 319.5 -119.5t98.5 -396.5q0 -322 -93.5 -441t-330.5 -119q-239 0 -332.5 119t-93.5 441q0 279 99.5 397.5t332.5 118.5zM371 524q0 -218 29.5 -293t105.5 -75q75 0 105 75t30 293q0 212 -29.5 280t-107.5 68q-75 0 -104 -69t-29 -279zM801 1475
q-24 -122 -72 -181t-123 -59h-13q-6 0 -22 2l-32 8l-83 27l-32 7l-29 3q-30 0 -47.5 -19t-26.5 -63h-110q22 122 69 181t122 59h15.5t23.5 -4q11 -1 21.5 -4t21.5 -7l83 -24l24 -6l28 -2q28 0 46.5 20t24.5 62h111z" />
    <glyph glyph-name="odieresis" unicode="&#xf6;" 
d="M512 1053q221 0 319.5 -119.5t98.5 -396.5q0 -322 -93.5 -441t-330.5 -119q-239 0 -332.5 119t-93.5 441q0 279 99.5 397.5t332.5 118.5zM371 524q0 -218 29.5 -293t105.5 -75q75 0 105 75t30 293q0 212 -29.5 280t-107.5 68q-75 0 -104 -69t-29 -279zM567 1217v243h226
v-243h-226zM219 1217v243h226v-243h-226z" />
    <glyph glyph-name="divide" unicode="&#xf7;" horiz-adv-x="1706" 
d="M854 369q60 0 106 -45t46 -107q0 -60 -45.5 -104.5t-106.5 -44.5q-64 0 -108 42.5t-44 106.5q0 63 44.5 107.5t107.5 44.5zM254 711h1198v-199h-1198v199zM854 1155q60 0 106 -44.5t46 -106.5q0 -63 -44.5 -107.5t-107.5 -44.5q-64 0 -108 45t-44 107q0 63 45 107t107 44
z" />
    <glyph glyph-name="oslash" unicode="&#xf8;" 
d="M360 383l279 354q0 70 -35 106t-100 36q-81 0 -113.5 -67t-32.5 -255v-103q0 -11 1 -35t1 -36zM651 610l-274 -348q9 -54 42.5 -84.5t86.5 -30.5q80 0 112.5 75.5t32.5 301.5v86zM27 -20l125 151q-38 51 -54 144.5t-16 273.5q0 270 99 387t325 117q95 0 169 -24t132 -75
l102 125l82 -65l-114 -148q27 -47 39 -123t12 -221q0 -309 -94 -428t-328 -119q-50 0 -91 4t-74 13q-65 17 -118 55l-108 -131z" />
    <glyph glyph-name="ugrave" unicode="&#xf9;" horiz-adv-x="1008" 
d="M608 1028h291v-891v-43t2 -38l6 -54h-289l-10 109q-36 -66 -94.5 -100t-132.5 -34q-136 0 -207.5 70.5t-71.5 202.5v778h289v-700q0 -102 21 -138t73 -36q54 0 88.5 39.5t34.5 105.5v729zM211 1526h258l197 -369h-142z" />
    <glyph glyph-name="uacute" unicode="&#xfa;" horiz-adv-x="1008" 
d="M608 1028h291v-891v-43t2 -38l6 -54h-289l-10 109q-36 -66 -94.5 -100t-132.5 -34q-136 0 -207.5 70.5t-71.5 202.5v778h289v-700q0 -102 21 -138t73 -36q54 0 88.5 39.5t34.5 105.5v729zM797 1526l-313 -369h-142l197 369h258z" />
    <glyph glyph-name="ucircumflex" unicode="&#xfb;" horiz-adv-x="1008" 
d="M608 1028h291v-891v-43t2 -38l6 -54h-289l-10 109q-36 -66 -94.5 -100t-132.5 -34q-136 0 -207.5 70.5t-71.5 202.5v778h289v-700q0 -102 21 -138t73 -36q54 0 88.5 39.5t34.5 105.5v729zM189 1157l196 369h238l196 -369h-141l-174 217l-176 -217h-139z" />
    <glyph glyph-name="udieresis" unicode="&#xfc;" horiz-adv-x="1008" 
d="M608 1028h291v-891v-43t2 -38l6 -54h-289l-10 109q-36 -66 -94.5 -100t-132.5 -34q-136 0 -207.5 70.5t-71.5 202.5v778h289v-700q0 -102 21 -138t73 -36q54 0 88.5 39.5t34.5 105.5v729zM565 1217v243h226v-243h-226zM217 1217v243h226v-243h-226z" />
    <glyph glyph-name="yacute" unicode="&#xfd;" horiz-adv-x="485" 
d="M387 1028v-1028h-289v1028h289z" />
    <glyph glyph-name="thorn" unicode="&#xfe;" horiz-adv-x="920" 
d="M359 -12q-129 12 -205 79q-91 82 -91 232v24l3 17h280v-21q0 -75 28.5 -120t76.5 -45q58 0 93.5 29t35.5 77q0 80 -195 184l-68 35q-165 90 -207 147t-42 142q0 128 102.5 208.5t269.5 80.5q186 0 281.5 -71t95.5 -208l-1 -16l-1 -17l-270 1l1 13l1 19q0 62 -26 92.5
t-79 30.5q-46 0 -75 -24.5t-29 -65.5q0 -65 177 -160l124 -69q122 -73 168.5 -137.5t46.5 -153.5q0 -151 -111 -229q-53 -35 -123 -55t-159 -20v-77h14q117 0 176.5 -48t59.5 -143q0 -99 -66.5 -149.5t-197.5 -50.5q-57 0 -120 11q-32 5 -70.5 13t-76.5 19v129
q26 -7 64.5 -15.5t81.5 -16.5q29 -5 58 -8t52 -3q51 0 76 17.5t25 55.5t-28.5 54t-92.5 16h-35q-15 0 -22 -2v199z" />
    <glyph glyph-name="ydieresis" unicode="&#xff;" horiz-adv-x="924" 
d="M205 -389l112 364l-299 1053h289l156 -737l184 737h281l-428 -1417h-295zM524 1217v243h226v-243h-226zM176 1217v243h226v-243h-226z" />
    <glyph glyph-name="breve" unicode="&#x2d8;" horiz-adv-x="1024" 
d="M226 1493h118q0 -38 11.5 -66t34.5 -48q41 -36 122 -36q80 0 120 35.5t48 114.5h118q0 -74 -21 -132.5t-58 -97.5q-70 -73 -207 -73t-207 74q-37 40 -58 96.5t-21 132.5z" />
    <glyph glyph-name="dotaccent" unicode="&#x2d9;" horiz-adv-x="1024" 
d="M395 1210v256h236v-256h-236z" />
    <glyph glyph-name="dotlessi" unicode="&#x131;" horiz-adv-x="485" 
d="M387 1028v-1028h-289v1028h289z" />
    <glyph glyph-name="ring" unicode="&#x2da;" horiz-adv-x="1024" 
d="M391 1403q0 -52 34 -87q36 -34 87 -34q52 0 87.5 35t35.5 86t-36 87t-87 36t-86 -36t-35 -87zM248 1403q0 112 76.5 189t187.5 77t188.5 -77.5t77.5 -188.5q0 -112 -77 -189t-189 -77q-111 0 -187.5 77t-76.5 189z" />
    <glyph glyph-name="ogonek" unicode="&#x2db;" horiz-adv-x="1024" 
d="M627 0q-61 -49 -95 -102q-16 -26 -24 -51t-8 -52q0 -40 20 -60t62 -20h102v-174h-106q-118 0 -178 46t-60 139q0 70 45 136q22 31 58.5 66t86.5 72h97z" />
    <glyph glyph-name="caron" unicode="&#x2c7;" horiz-adv-x="1024" 
d="M197 1526h139l176 -217l174 217h141l-196 -369h-238z" />
    <glyph glyph-name="Lslash" unicode="&#x141;" horiz-adv-x="934" 
d="M145 0v557l-159 -115v240l159 113v680h312v-549l245 172v-238l-245 -172v-428h450v-260h-762z" />
    <glyph glyph-name="lslash" unicode="&#x142;" horiz-adv-x="514" 
d="M115 0v598l-125 -86v184l125 86v693h284v-572l125 86v-184l-125 -86v-719h-284z" />
    <glyph glyph-name="fraction" unicode="&#x2215;" horiz-adv-x="342" 
d="M-342 -25l850 1475h174l-848 -1475h-176z" />
    <glyph glyph-name="fi" unicode="&#xf001;" horiz-adv-x="1059" 
d="M139 0v858h-145v170h145v172q0 184 68 240.5t266 56.5h29t34 -2h28t44 -4v-203l-18 1l-29 1q-78 0 -107.5 -31t-29.5 -120v-111h184v-170h-184v-858h-285zM950 1475v-244h-288v244h288zM950 1028v-1028h-288v1028h288z" />
    <glyph glyph-name="fl" unicode="&#xf002;" horiz-adv-x="1059" 
d="M139 0v858h-145v170h145v172q0 184 68 240.5t266 56.5h27.5t34.5 -2h42q20 -3 29 -4v-202h-18l-29 1q-77 0 -107 -30q-28 -31 -28 -121v-111h182v-170h-182v-858h-285zM668 0v1475h284v-1475h-284z" />
    <glyph glyph-name="Zcaron" unicode="&#x17d;" horiz-adv-x="948" 
d="M4 0v254l610 983h-581v238h891v-263l-602 -970h622v-242h-940zM160 1972h139l176 -217l174 217h141l-196 -369h-238z" />
    <glyph glyph-name="zcaron" unicode="&#x17e;" horiz-adv-x="811" 
d="M51 0v221l408 633h-385v174h684v-184l-408 -654h408v-190h-707zM91 1526h139l176 -217l174 217h141l-196 -369h-238z" />
    <glyph glyph-name="Cacute" unicode="&#x106;" horiz-adv-x="1147" 
d="M1064 504l2 -26l1 -42q0 -220 -119 -339.5t-340 -119.5q-101 0 -190.5 27.5t-141.5 73.5q-90 78 -128.5 224t-38.5 470q0 118 5 199t18 147q24 123 78.5 205.5t157 126t238.5 43.5q223 0 337 -114t114 -339v-28h-309v28q0 117 -36.5 173.5t-111.5 56.5q-102 0 -142 -99
t-40 -460q0 -303 40.5 -403.5t145.5 -100.5q75 0 112.5 61t37.5 185l-1 24l-1 27h312zM891 1972l-313 -369h-142l197 369h258z" />
    <glyph glyph-name="cacute" unicode="&#x107;" horiz-adv-x="995" 
d="M637 381h287q0 -201 -104.5 -302.5t-313.5 -101.5q-239 0 -332.5 119t-93.5 441q0 276 99 396t327 120q199 0 308.5 -98.5t109.5 -278.5v-10h-287v10q0 99 -33.5 147.5t-99.5 48.5q-75 0 -104 -69t-29 -279q0 -218 29.5 -293t105.5 -75q63 0 97 53.5t34 152.5v19z
M807 1526l-313 -369h-142l197 369h258z" />
    <glyph glyph-name="Ccaron" unicode="&#x10c;" horiz-adv-x="1147" 
d="M1064 504l2 -26l1 -42q0 -220 -119 -339.5t-340 -119.5q-101 0 -190.5 27.5t-141.5 73.5q-90 78 -128.5 224t-38.5 470q0 118 5 199t18 147q24 123 78.5 205.5t157 126t238.5 43.5q223 0 337 -114t114 -339v-28h-309v28q0 117 -36.5 173.5t-111.5 56.5q-102 0 -142 -99
t-40 -460q0 -303 40.5 -403.5t145.5 -100.5q75 0 112.5 61t37.5 185l-1 24l-1 27h312zM283 1972h139l176 -217l174 217h141l-196 -369h-238z" />
    <glyph glyph-name="ccaron" unicode="&#x10d;" horiz-adv-x="995" 
d="M637 381h287q0 -201 -104.5 -302.5t-313.5 -101.5q-239 0 -332.5 119t-93.5 441q0 276 99 396t327 120q199 0 308.5 -98.5t109.5 -278.5v-10h-287v10q0 99 -33.5 147.5t-99.5 48.5q-75 0 -104 -69t-29 -279q0 -218 29.5 -293t105.5 -75q63 0 97 53.5t34 152.5v19z
M199 1526h139l176 -217l174 217h141l-196 -369h-238z" />
    <glyph glyph-name="dcroat" unicode="&#x111;" 
d="M606 635q0 118 -30.5 176.5t-90.5 58.5q-65 0 -92.5 -66t-27.5 -278v-47q0 -218 24.5 -273.5t91.5 -55.5q68 0 96.5 55t28.5 209v221zM608 944v213h-256v166h256v152h281v-152h131v-166h-131v-928q0 -14 1 -48t1 -55l6 -124h-281l-10 98q-30 -56 -89.5 -89.5
t-137.5 -33.5q-163 0 -231 118t-68 437q0 283 66 403t219 120q80 0 137 -26t106 -85z" />
    <glyph glyph-name="Scedilla" unicode="&#x15e;" horiz-adv-x="1128" 
d="M463 -22q-174 15 -265 100q-108 104 -108 325l1 25l1 27h314v-39q0 -115 38.5 -163t128.5 -48q70 0 112 43.5t42 118.5q0 104 -196 233l-19 12l-71 46q-55 36 -94 64q-32 22 -52 38q-24 19 -39 33q-81 74 -111 139.5t-30 161.5q0 184 126.5 294.5t340.5 110.5
q219 0 331.5 -102.5t112.5 -302.5v-39h-305v8q0 105 -38 156q-36 53 -112 53q-68 0 -108.5 -41.5t-40.5 -110.5q0 -118 256 -271l102 -63q144 -91 201 -176t57 -202q0 -214 -126 -324q-62 -52 -148.5 -80.5t-198.5 -28.5v-65h14q117 0 176.5 -48t59.5 -143
q0 -99 -66.5 -149.5t-197.5 -50.5q-57 0 -120 11q-32 5 -70.5 13t-76.5 19v129q26 -7 64.5 -15.5t81.5 -16.5q29 -5 58 -8t52 -3q51 0 76 17.5t25 55.5t-28.5 54t-92.5 16h-35q-15 0 -22 -2v189z" />
    <glyph glyph-name="scedilla" unicode="&#x15f;" horiz-adv-x="920" 
d="M359 -12q-129 12 -205 79q-91 82 -91 232v24l3 17h280v-21q0 -75 28.5 -120t76.5 -45q58 0 93.5 29t35.5 77q0 80 -195 184l-68 35q-165 90 -207 147t-42 142q0 128 102.5 208.5t269.5 80.5q186 0 281.5 -71t95.5 -208l-1 -16l-1 -17l-270 1l1 13l1 19q0 62 -26 92.5
t-79 30.5q-46 0 -75 -24.5t-29 -65.5q0 -65 177 -160l124 -69q122 -73 168.5 -137.5t46.5 -153.5q0 -151 -111 -229q-53 -35 -123 -55t-159 -20v-77h14q117 0 176.5 -48t59.5 -143q0 -99 -66.5 -149.5t-197.5 -50.5q-57 0 -120 11q-32 5 -70.5 13t-76.5 19v129
q26 -7 64.5 -15.5t81.5 -16.5q29 -5 58 -8t52 -3q51 0 76 17.5t25 55.5t-28.5 54t-92.5 16h-35q-15 0 -22 -2v199z" />
    <glyph glyph-name="franc" unicode="&#x20a3;" horiz-adv-x="1665" 
d="M131 0v1475h760v-228h-449v-352h428v-227h-428v-668h-311zM1089 0v1030h252l19 -135q27 75 92.5 116.5t159.5 41.5h18v-250h-26q-120 0 -173 -58t-53 -192v-553h-289z" />
    <glyph glyph-name="Gbreve" unicode="&#x11e;" horiz-adv-x="1208" 
d="M1096 776v-749q-75 -14 -130 -22t-122 -16q-102 -12 -187 -12q-136 0 -228.5 24.5t-152.5 76.5q-90 80 -128.5 226t-38.5 468q0 118 5 199t18 147q24 123 80 206t159 126q52 21 115 32t139 11q229 0 350 -115t121 -336v-22h-303v18q0 125 -43.5 185.5t-133.5 60.5
q-113 0 -155.5 -100t-42.5 -443q0 -359 51 -453.5t193 -94.5q25 0 41.5 2l31.5 4t33.5 5.5t46.5 10.5v330h-170v231h451zM318 1939h118q0 -38 11.5 -66t34.5 -48q41 -36 122 -36q80 0 120 35.5t48 114.5h118q0 -74 -21 -132.5t-58 -97.5q-70 -73 -207 -73t-207 74
q-37 40 -58 96.5t-21 132.5z" />
    <glyph glyph-name="gbreve" unicode="&#x11f;" horiz-adv-x="995" 
d="M606 618q0 153 -28 208t-97 55q-65 0 -90.5 -57.5t-25.5 -295.5v-24q0 -107 6 -175t20 -103q27 -66 94 -66q60 0 90.5 57.5t30.5 177.5v223zM889 20q0 -238 -90.5 -330.5t-315.5 -92.5q-183 0 -283 74t-100 210v13l277 -1q0 -36 7 -59.5t21 -40.5q26 -29 87 -29
q59 0 85 33q12 16 20.5 62.5t8.5 111.5v117q-54 -57 -114 -85t-125 -28q-153 0 -220 119.5t-67 403.5q0 98 3 167.5t10 116.5q14 88 46.5 146t97 91.5t142.5 33.5q79 0 137.5 -32t89.5 -91l10 98h281l-6 -118l-2 -109v-781zM212 1493h118q0 -38 11.5 -66t34.5 -48
q41 -36 122 -36q80 0 120 35.5t48 114.5h118q0 -74 -21 -132.5t-58 -97.5q-70 -73 -207 -73t-207 74q-37 40 -58 96.5t-21 132.5z" />
    <glyph glyph-name="Idotaccent" unicode="&#x130;" horiz-adv-x="569" 
d="M133 0v1475h301v-1475h-301zM168 1656v256h236v-256h-236z" />
    <glyph glyph-name="c274" unicode="&#x10e;" horiz-adv-x="2455" 
 />
    <glyph glyph-name="c275" unicode="&#x10f;" horiz-adv-x="2455" 
 />
    <glyph glyph-name="c276" unicode="&#x110;" horiz-adv-x="2455" 
 />
    <glyph glyph-name="Omega" unicode="&#x3a9;" horiz-adv-x="1575" 
d="M1227 256h291v-256h-609v291q126 86 192 217.5t66 296.5q0 202 -101.5 319t-279.5 117q-177 0 -278.5 -116.5t-101.5 -319.5q0 -163 66 -295.5t192 -218.5v-291h-609v256h291q-126 120 -187 260t-61 303q0 313 188 501.5t500 188.5t500.5 -188.5t188.5 -501.5
q0 -165 -60.5 -302.5t-187.5 -260.5z" />
    <glyph glyph-name="pi" unicode="&#x3c0;" horiz-adv-x="1319" 
d="M1354 1092l-39 -224h-176l-154 -868h-287l152 868h-238l-151 -868h-287l152 868h-25q-54 0 -83 -30.5t-40 -99.5l-213 -1q30 199 123 277t311 78h955z" />
    <glyph glyph-name="c279" unicode="&#x2015;" horiz-adv-x="2455" 
 />
    <glyph glyph-name="c280" unicode="&#x2016;" horiz-adv-x="2455" 
 />
    <glyph glyph-name="c281" unicode="&#x2017;" horiz-adv-x="2455" 
 />
    <glyph glyph-name="c282" unicode="&#x201b;" horiz-adv-x="2455" 
 />
    <glyph glyph-name="c283" unicode="&#x201f;" horiz-adv-x="2455" 
 />
    <glyph glyph-name="c284" unicode="&#x2023;" horiz-adv-x="2455" 
 />
    <glyph glyph-name="c285" unicode="&#x2024;" horiz-adv-x="2455" 
 />
    <glyph glyph-name="c286" unicode="&#x2025;" horiz-adv-x="2455" 
 />
    <glyph glyph-name="partialdiff" unicode="&#x2202;" horiz-adv-x="1094" 
d="M762 662q8 43 16 96l13 92q4 37 7 82t3 74q0 101 -26 158t-70 57q-43 0 -146 -73t-160 -73q-41 0 -70.5 30.5t-29.5 72.5q0 63 86.5 117.5t210.5 54.5q192 0 309 -161.5t117 -432.5q0 -339 -156.5 -560t-396.5 -221q-171 0 -282 114t-111 292q0 198 116 329.5t287 131.5
q103 0 169.5 -42.5t113.5 -137.5zM700 518q0 115 -38.5 177.5t-110.5 62.5q-101 0 -167.5 -134t-66.5 -341q0 -118 38.5 -178t111.5 -60q100 0 166.5 133.5t66.5 339.5z" />
    <glyph glyph-name="c288" unicode="&#x2203;" horiz-adv-x="2455" 
 />
    <glyph glyph-name="c289" unicode="&#x2204;" horiz-adv-x="2455" 
 />
    <glyph glyph-name="c290" unicode="&#x2205;" horiz-adv-x="2455" 
 />
    <glyph glyph-name="Delta" unicode="&#x2206;" horiz-adv-x="1427" 
d="M713 1110l-326 -854h653zM563 1473h301l563 -1473h-1427z" />
    <glyph glyph-name="product" unicode="&#x220f;" horiz-adv-x="1612" 
d="M150 1473h1308v-1866h-344v1577h-620v-1577h-344v1866z" />
    <glyph glyph-name="c293" unicode="&#x2210;" horiz-adv-x="2455" 
 />
    <glyph glyph-name="c294" unicode="&#x2211;" horiz-adv-x="1470" 
d="M66 1473h1308v-265h-878l620 -645l-622 -690h933v-266h-1386v172l698 772l-673 690v232z" />
    <glyph glyph-name="c295" unicode="&#x2212;" horiz-adv-x="1706" 
d="M254 713h1198v-203h-1198v203z" />
    <glyph glyph-name="c296" unicode="&#x2213;" horiz-adv-x="2455" 
 />
    <glyph glyph-name="c297" unicode="&#x2214;" horiz-adv-x="2455" 
 />
    <glyph glyph-name="c298" unicode="&#x2216;" horiz-adv-x="2455" 
 />
    <glyph glyph-name="c299" unicode="&#x2217;" horiz-adv-x="2455" 
 />
    <glyph glyph-name="c300" unicode="&#x2218;" horiz-adv-x="2455" 
 />
    <glyph glyph-name="radical" unicode="&#x221a;" horiz-adv-x="1346" 
d="M1141 1694h207v-129h-103l-592 -1606h-100l-311 858l-140 -51l-30 113l331 116l236 -661z" />
    <glyph glyph-name="c302" unicode="&#x221b;" horiz-adv-x="2455" 
 />
    <glyph glyph-name="c303" unicode="&#x221c;" horiz-adv-x="2455" 
 />
    <glyph glyph-name="c304" unicode="&#x221d;" horiz-adv-x="2455" 
 />
    <glyph glyph-name="infinity" unicode="&#x221e;" horiz-adv-x="1706" 
d="M942 561q44 -74 106 -112.5t140 -38.5q93 0 152 55.5t59 144.5q0 85 -54 142t-135 57q-73 0 -136 -57.5t-132 -190.5zM766 659q-45 74 -107 112t-139 38q-92 0 -151.5 -56.5t-59.5 -144.5q0 -83 54 -140.5t135 -57.5q76 0 138.5 57.5t129.5 191.5zM858 457
q-69 -131 -147.5 -194.5t-173.5 -63.5q-137 0 -234.5 117t-97.5 294q0 184 85.5 297t223.5 113q94 0 170 -58t164 -200q67 132 148 196t175 64q138 0 235 -118t97 -294q0 -183 -86 -296t-223 -113q-94 0 -168.5 56t-167.5 200z" />
    <glyph glyph-name="integral" unicode="&#x222b;" horiz-adv-x="1186" 
d="M342 -252q53 0 87 165t34 474l6 211q0 245 34 436q31 176 89 296q107 224 328 224q98 0 157.5 -48.5t59.5 -129.5q0 -60 -38 -96.5t-100 -36.5q-44 0 -77 24q-29 23 -41 68q-4 16 -7 54q0 22 -8 33.5t-22 13.5q-119 0 -119 -633l-6 -178q0 -105 -6.5 -212t-25.5 -245
t-58 -238q-56 -148 -148.5 -225.5t-214.5 -77.5q-96 0 -156.5 48.5t-60.5 127.5q0 61 39.5 98.5t104.5 37.5q50 0 85 -31.5t35 -71.5q0 -56 6 -72t23 -16z" />
    <glyph glyph-name="approxequal" unicode="&#x2248;" horiz-adv-x="1706" 
d="M1530 596v-219q-103 -71 -196.5 -105t-182.5 -34q-93 0 -287 66q-96 33 -170.5 50t-130.5 17q-41 0 -85 -9t-88.5 -27t-98 -48.5t-113.5 -73.5v219q112 73 207.5 108t179.5 35q123 0 315.5 -65.5t274.5 -65.5q45 0 86.5 8t87.5 27q87 36 201 117zM1530 1008v-220
q-103 -69 -195 -103t-182 -34q-95 0 -286.5 65.5t-303.5 65.5q-82 0 -170 -35t-215 -122v219q103 68 201.5 105.5t185.5 37.5q124 0 316.5 -65.5t273.5 -65.5q44 0 85 8t86 27q87 35 204 117z" />
    <glyph glyph-name="notequal" unicode="&#x2260;" horiz-adv-x="1706" 
d="M1198 1233l148 -119l-154 -192h260v-191h-389l-191 -239h580v-193h-707l-245 -309l-148 119l154 190h-252v193h377l190 239h-567v191h696z" />
    <glyph glyph-name="c309" unicode="&#x2261;" horiz-adv-x="2455" 
 />
    <glyph glyph-name="c310" unicode="&#x2262;" horiz-adv-x="2455" 
 />
    <glyph glyph-name="c311" unicode="&#x2263;" horiz-adv-x="2455" 
 />
    <glyph glyph-name="lessequal" unicode="&#x2264;" horiz-adv-x="1706" 
d="M258 195h1192v-197h-1192v197zM1448 1241v-209l-834 -264l834 -262v-209l-1190 385v174z" />
    <glyph glyph-name="greaterequal" unicode="&#x2265;" horiz-adv-x="1706" 
d="M258 195h1192v-197h-1192v197zM260 1241l1188 -385v-174l-1188 -385v209l832 262l-832 264v209z" />
    <glyph glyph-name="lozenge" unicode="&#x25ca;" horiz-adv-x="1012" 
d="M506 1409l-385 -817l385 -825l385 825zM506 1653l500 -1061l-500 -1069l-500 1069z" />
    <glyph glyph-name="apple" unicode="&#xf000;" horiz-adv-x="1618" 
d="M836 1216l-2 14v23q0 124 95 229t236 132l1 -23l1 -39q0 -131 -103.5 -234.5t-203.5 -103.5h-8l-8 1zM1505 403q-114 -246 -204.5 -342t-204.5 -96q-49 0 -131 33t-123 33q-44 0 -130.5 -33t-127.5 -33q-64 0 -128 44t-130 132q-100 137 -158 295q-27 78 -41 153t-14 148
q0 219 125 356.5t323 137.5q68 0 156.5 -34t122.5 -34q18 0 46 8t75 27q88 35 153 35q111 0 197.5 -39.5t161.5 -124.5q-101 -64 -151 -145.5t-50 -182.5q0 -111 60 -199.5t173 -138.5z" />
    </font>
</defs>
</svg>
